<?xml version="1.0" encoding="UTF-8" standalone="no"?>
<!DOCTYPE svg  PUBLIC '-//W3C//DTD SVG 1.1//EN'  'http://www.w3.org/Graphics/SVG/1.1/DTD/svg11.dtd'>
<svg xmlns="http://www.w3.org/2000/svg">
<defs>
<font id="MicrobrewOne-Regular" horiz-adv-x="260">
<font-face underline-position="-50" font-weight="400" descent="-200" panose-1="2 0 5 6 0 0 0 2 0 4" units-per-em="1000" unicode-range="U+0020-25CA" bbox="0 -195 979 882" x-height="701" underline-thickness="50" font-family="MicrobrewOne" ascent="800" cap-height="701"/>
<missing-glyph horiz-adv-x="0"/>
<glyph glyph-name=".notdef" horiz-adv-x="0"/>
<glyph glyph-name=".null" horiz-adv-x="0"/>
<glyph glyph-name="nonmarkingreturn" horiz-adv-x="333"/>
<glyph glyph-name="space" horiz-adv-x="255" unicode=" "/>
<glyph glyph-name="exclam" d="M74 68l10 16l18 20l15 4l28 -2l23 -10l17 -27l-3 -26l-5 -19l-9 -11l-11 -8l-14 -5h-30l-10 6l-22 21l-4 14zM187 696l5 -33v-44l-4 -31v-60l-3 -15l4 -16l-5 -26l2 -17v-30l-3 -31v-53l-6 -77l2 -31l-3 -11v-15l-5 -28l-34 -6l-17 -5l-32 7l-7 29v60l-3 18l3 43l-4 10 l-2 32l2 31l-3 13l3 19l-5 14l3 15v26l-3 16v45l-2 12v20l-3 27l2 14l-3 29l5 49l27 4h46z" unicode="!"/>
<glyph glyph-name="quotedbl" horiz-adv-x="390" unicode='&quot;' d="M321 704l5 -31l-3 -16v-18l-5 -14l-2 -16l2 -13l-4 -14v-20l-4 -12v-21l-8 -24l-30 -8l-23 9l-13 39v37l-5 11l1 15l-4 15v15l-4 18l5 47l29 11l14 -3l19 3zM163 708l3 -37l-2 -13l-8 -47v-34l-6 -32l-11 -44h-50l-13 46v29l-4 21v10l-4 20v15l-4 27l4 36l44 9z"/>
<glyph glyph-name="numbersign" horiz-adv-x="520" unicode="#" d="M288 312l4 13v19l6 14l5 40l-1 14l-13 14l-11 5h-33l-14 -13l-4 -15l-3 -29l-4 -17l-3 -29l-4 -13l14 -15l18 -4h13l5 6zM260 671l3 -28l-2 -15l-7 -12v-33l-5 -29l-2 -27l-3 -10l11 -21l16 1l16 5h13l18 9l6 15v34l10 60l-1 13l14 39l27 9l28 -9l3 -30l-3 -26v-18 l-7 -29l1 -15l-5 -15l-5 -27l17 -12h16l36 -11l-3 -29l-8 -23l-28 -10l-13 4l-12 -4l-17 -12l-4 -11l-2 -18v-32l-6 -12v-30l14 -16l15 5l27 -5l10 -11l-12 -55h-54l-18 -18l1 -13l-10 -61l1 -15l-6 -11v-32l-4 -30l-13 -28l-26 -3l-29 8l-6 33l6 10v34l10 38l-2 19l4 11 l2 27l4 16l-15 16l-11 1l-19 -4l-13 3l-16 -15l-8 -31v-32l-4 -30l-5 -12l2 -17l-7 -29l1 -16l-11 -26l-28 -2l-32 2v51l3 11l2 32l4 15l4 28l3 10v19l3 29l-13 8l-44 9l-6 8v24l9 31l39 3l14 -2l15 12l3 19l4 13l2 30l9 44l-16 9l-16 5h-26l-10 8v32l12 25l26 4l10 -1l17 2 l19 10v35l3 27l6 12v35l6 16l7 40l28 2z"/>
<glyph glyph-name="dollar" horiz-adv-x="435" unicode="$" d="M156 492l1 -16l9 -11l7 -16l19 -20h11l-4 34l4 9l-2 15v109l-11 3l-15 -10l-15 -24l-1 -10l-7 -17v-17zM280 206l-5 21l-6 9l-5 13l-20 30l-11 -4l-4 -64l4 -14l-3 -33v-44l2 -11l12 -10l11 4l11 15l7 14l4 27zM228 723l2 -30l17 -14l13 -3l15 -7l14 -2l37 -29l7 -15 l17 -20l14 -33l1 -14l9 -29v-41l-6 -22l-51 -8l-32 8l-8 77l-9 28l-23 34l-12 -11l-3 -15l2 -29l-2 -15v-52l2 -14l-2 -32l3 -12l-1 -14l6 -23l17 -8l9 -14l14 -8l23 -18l22 -22l6 -16l20 -23l14 -26l7 -31l5 -11v-33l-5 -31l-4 -11l-1 -15l-9 -16l-3 -12l-17 -22l-48 -39 l-13 -7l-16 1l-15 -5l-15 -19l-5 -28l-20 5l-3 24l-16 16l-14 3l-29 11l-11 14l-10 5l-15 13l-16 20l-21 42v19l-7 11v54l3 24l33 9h15l35 -6l4 -27v-38l16 -50l19 -22l13 9l-1 9l4 20l-3 14l2 13l-1 12l2 20l-2 9l2 14l-3 17v19l3 23l-5 15v21l-18 9l-26 20l-13 7l-9 13 l-22 20l-16 27l-10 11l-14 24l-2 20l-7 15l-3 11l2 31l6 42l23 55l12 11l29 32l16 3l14 9l29 5l12 18l3 26h24z"/>
<glyph glyph-name="percent" horiz-adv-x="778" unicode="%" d="M562 90l4 -9l2 -11l20 -11l19 -2l11 4l10 10l5 20l3 32v61l-3 11l1 22l-1 6l3 14l-2 9v22l2 8l-3 11v20l3 13l-2 9v62l-3 11l-6 10l-8 8l-9 3h-21l-9 -3l-9 -8l-5 -8l-5 -44l3 -12v-17l-3 -25v-42l1 -9v-40l2 -9v-11l-3 -22l3 -12l-2 -19v-20zM147 307l4 -9l2 -11l20 -11 l19 -2l11 4l10 10l5 20l3 32v61l-3 11l1 22l-1 6l3 14l-2 9v22l2 8l-3 11v20l3 13l-2 9v62l-3 11l-6 10l-8 8l-9 3h-21l-9 -3l-9 -8l-5 -8l-5 -44l3 -12v-17l-3 -25v-42l1 -9v-40l2 -9v-11l-3 -22l3 -12l-2 -19v-20zM475 692v-29l2 -18l-8 -47l-4 -13l-3 -25l-7 -20v-28 l-7 -15l1 -12l-4 -17l-3 -28l-7 -27v-16l-3 -18l-8 -26l-1 -16l-3 -11v-19l-7 -15v-30l-8 -28v-15l-6 -16l-4 -25v-19l-5 -12l-8 -46l1 -15l-6 -11l-5 -48l-9 -22l-25 -4l-32 8l-4 27l9 46l2 27l6 18l7 61l6 13v11l6 16v28l6 19l3 25v19l5 10l7 32l-2 13l5 17l8 46l-1 12 l5 12l2 17l8 60l6 16l6 58l7 12l-1 13l4 30l10 29l27 4zM493 391v12l1 9l9 28l5 12l7 10l12 15l10 3l10 5l7 7l12 1l11 3l10 -2h33l9 -4l11 -1l8 -5l11 -2l8 -7l10 -3l7 -12l6 -5l11 -34l4 -52l-2 -12v-17l2 -11l-1 -21l1 -9l-2 -11l3 -10l-3 -20l3 -14v-20l-3 -20l3 -30 l-2 -13v-72l-1 -19l-5 -19l-10 -22l-7 -6l-7 -11l-8 -7l-8 -2l-10 -6l-28 -9l-34 3l-9 -1l-23 3l-25 14l-10 9l-7 4l-7 8l-4 10l-7 31v12l-4 8l1 22l-1 11v32l2 10l-3 11l2 19v23l-1 17l2 14l-1 9v22l1 6l-2 11l2 11l-1 12v32l-2 9zM78 608v12l1 9l9 28l5 12l7 10l12 15 l10 3l10 5l7 7l12 1l11 3l10 -2h33l9 -4l11 -1l8 -5l11 -2l8 -7l10 -3l7 -12l6 -5l11 -34l4 -52l-2 -12v-17l2 -11l-1 -21l1 -9l-2 -11l3 -10l-3 -20l3 -14v-20l-3 -20l3 -30l-2 -13v-72l-1 -19l-5 -19l-10 -22l-7 -6l-7 -11l-8 -7l-8 -2l-10 -6l-28 -9l-34 3l-9 -1l-23 3 l-25 14l-10 9l-7 4l-7 8l-4 10l-7 31v12l-4 8l1 22l-1 11v32l2 10l-3 11l2 19v23l-1 17l2 14l-1 9v22l1 6l-2 11l2 11l-1 12v32l-2 9z"/>
<glyph glyph-name="ampersand" horiz-adv-x="634" unicode="&amp;" d="M305 468l11 -10l15 -1l27 4v22l-11 5l-39 -3zM328 709l17 -4l29 -3l14 -9l10 -10l7 -16l10 -9l7 -16v-26l-6 -13l-4 -16l-8 -15l-14 -6l-23 -2l-11 9l-2 25l20 26v32l-8 7l-13 4l-44 3l-29 -11l-14 -3l-7 -15l-10 -6l-11 -29l-2 -27l11 -30l13 -19l31 -11l15 5l52 -4 l11 -10l17 -3l7 -14v-30l-4 -13l-20 -26l-17 -4l-10 -11l-17 -2h-41l-31 12l-8 7l-25 -6l-18 -26l-4 -13l-9 -11v-19l-9 -45v-30l6 -16v-31l6 -11l10 -33l7 -7l4 -19l10 -8l8 -11l45 -41l60 -15l15 4h60l15 3l26 14l23 17l22 24l4 14l2 16v31l-9 25l-14 28l-9 11l-13 10 l-8 9l-28 17l-13 -3l-30 2l-27 -7l-11 -15l-13 -12l-6 -14l2 -28l12 -25l13 -2l-3 20l7 13l13 12h43l16 -5l12 -11l6 -10v-33l-11 -26l-14 -10l-13 -2l-16 -7h-28l-43 16l-12 7l-22 20l-21 42v30l7 31l31 33l13 6l8 15l26 14l15 5l17 2l11 10l28 2l17 5l28 12l13 2l27 14 l25 18l11 29v24l-7 14l-5 17l-16 7l4 -8v-27l-24 -13h-30l-12 6l-12 9l-9 17l-3 27l10 19l10 7l17 6l45 8l15 -7l16 -2l12 -12l7 -10l10 -10l14 -28l4 -27v-43l-10 -28l-15 -25l-12 -11l-22 -15l-14 -6l-11 -9v-20l9 -7l9 -12l16 -28l11 -14l11 -25l7 -60l-22 -70l-8 -11 l-9 -7l-12 -17l-22 -20l-12 -4l-11 -12l-14 -6l-11 -10l-27 -9l-17 -2l-15 -8l-15 -1l-30 -7h-42l-14 3l-16 -2l-18 7l-13 -3l-27 11l-16 2l-42 21l-9 15l-25 13l-19 28l-11 9l-23 43l-11 41l-6 13l1 12l-3 20l2 29l-3 17l6 15l-1 11l8 27l15 29l3 14l17 31l11 9l9 15l9 9 l11 7l11 16l11 5l11 11l5 19l-16 32l-8 27v32l4 16v11l8 17l22 37l15 11l7 3l16 13l12 5l10 11l15 2l16 6l25 5z"/>
<glyph glyph-name="quotesingle" horiz-adv-x="230" unicode="&apos;" d="M163 706l4 -36l-6 -15v-29l-7 -33v-30l-6 -16l2 -12l-12 -30l-26 -5l-23 7l-9 27l-5 31l1 12l-5 17l2 14l-7 32l2 17l-6 17l3 32l48 8z"/>
<glyph glyph-name="parenleft" horiz-adv-x="349" unicode="(" d="M269 653l-27 -11l-16 -4l-13 -9l-19 -26l-3 -16l-6 -11l-3 -35l4 -41l-3 -15l3 -14l-3 -32l3 -15l-2 -14l1 -16l-2 -12l3 -21l-3 -11l3 -31l-4 -13l3 -29l-2 -30l3 -20l-4 -30l2 -15v-60l3 -15l6 -13l19 -22l26 -17l30 -11l4 -27l-1 -16l4 -13l-10 -42l-28 -7l-44 14 l-13 9l-12 2l-25 17l-13 14l-11 6l-16 29l-6 7l-17 42l-3 16l-2 29v44l-3 35l2 9l-1 16l3 35l-3 10v73l3 15l-4 16v16l3 14l-3 17l3 17l-2 26v63l4 40l-3 17l4 17l1 15l6 10l19 43l20 24l7 11l50 34l14 4l26 11h15l29 -4l9 -28v-29z"/>
<glyph glyph-name="parenright" horiz-adv-x="349" unicode=")" d="M83 756h26l17 -3l30 -9l39 -21l19 -15l11 -14l10 -7l10 -18l4 -12l7 -9l12 -29l3 -29v-49l4 -25l-3 -34l3 -15l-4 -26l4 -34l-2 -12v-88l2 -33v-27l-4 -14v-66l2 -9l-3 -45l2 -14l-11 -35l-6 -10l-4 -16l-7 -9l-6 -12l-13 -16l-19 -16l-10 -14l-29 -14l-29 -6l-28 -11 l-29 4l-9 46l3 28l6 30l29 6l36 31l7 12l10 26v44l2 19l-2 32l1 10l-3 15v30l3 33l-1 16l2 12v28l-3 33l3 16l-3 30l3 15l-2 14v42l2 14l-6 64l-8 17l-8 7l-9 15l-57 25l-5 25l3 13v32z"/>
<glyph glyph-name="asterisk" horiz-adv-x="390" unicode="*" d="M222 706l5 -29l-3 -13v-34l11 -4l12 7l24 10l32 2l13 -28l7 -30l-29 -10l-41 -8l-4 -13l44 -56l-22 -23l-31 -11l-16 18l-8 14l-8 8l-5 14l-15 -3l-9 -8l-7 -16l-27 -31l-27 15l-21 20l15 30l21 18l8 11l-7 9l-40 12l-25 15v25l18 32l34 -7l15 -10l15 -5l14 2l-4 18l1 15 l-2 15l6 29h56z"/>
<glyph glyph-name="plus" horiz-adv-x="420" unicode="+" d="M250 515l5 -32l1 -14l-4 -12v-18l3 -13l-3 -10l14 -20l32 5l43 -8l5 -31l-9 -46l-39 -10l-14 5l-16 1l-13 -19v-28l-3 -26l2 -13l-3 -29l-50 -9l-31 9l-8 40l3 32l-3 10v14l-13 13l-12 3l-16 -2l-41 10l-7 29l5 49l30 7l29 -5l14 1l12 18v10l3 14l-3 15v28l6 30l31 2h50z "/>
<glyph glyph-name="comma" horiz-adv-x="231" unicode="," d="M164 104l4 -32l2 -14l-3 -15l-8 -63l-9 -10l-2 -17l-4 -11l-10 -14l-4 -13l-9 -16l-35 -24l-21 18l23 45l7 29v15l-5 16l-25 10l-7 28l2 8v19l7 44l29 3l14 -4l28 2z"/>
<glyph glyph-name="hyphen" horiz-adv-x="300" unicode="-" d="M251 394l5 -29l-4 -17l-4 -37h-27l-31 -3h-93l-15 5h-30l-8 32v17l7 30l30 5l12 4h32l17 -5l15 4l15 -4l15 5h18l15 -4z"/>
<glyph glyph-name="period" horiz-adv-x="230" unicode="." d="M59 69l8 16l8 8l26 17l41 -5l11 -14l10 -7l4 -16v-26l-7 -16l-8 -11l-11 -7l-12 -4l-31 -5l-11 11l-10 5l-18 23v31z"/>
<glyph glyph-name="slash" horiz-adv-x="247" unicode="/" d="M208 692v-29l2 -18l-8 -47l-4 -13l-3 -25l-7 -20v-28l-7 -15l1 -12l-4 -17l-3 -28l-7 -27v-16l-3 -18l-8 -26l-1 -16l-3 -11v-19l-7 -15v-30l-8 -28v-15l-6 -16l-4 -25v-19l-5 -12l-8 -46l1 -15l-6 -11l-5 -48l-9 -22l-25 -4l-32 8l-4 27l9 46l2 27l6 18l7 61l6 13v11 l6 16v28l6 19l3 25v19l5 10l7 32l-2 13l5 17l8 46l-1 12l5 12l2 17l8 60l6 16l6 58l7 12l-1 13l4 30l10 29l27 4z"/>
<glyph glyph-name="zero" horiz-adv-x="415" unicode="0" d="M156 133l5 -13l3 -16l29 -16l27 -2l16 5l14 15l7 29l4 45v87l-4 16l2 31l-2 9l4 20l-2 13v31l2 11l-4 17v28l4 19l-3 12v89l-3 16l-9 14l-11 12l-14 3h-30l-13 -4l-12 -11l-8 -11l-6 -64l4 -16v-25l-4 -35v-60l1 -13v-57l3 -13v-16l-4 -32l4 -16l-3 -28v-29zM57 563v17 l1 13l13 40l8 17l9 14l18 22l14 4l15 7l10 10l16 1l16 5l15 -3h46l13 -6l16 -1l12 -7l15 -3l12 -10l14 -5l10 -17l8 -7l16 -48l6 -74l-3 -17v-25l3 -16l-2 -30l2 -13l-3 -15l4 -14l-4 -29l4 -20v-28l-4 -29l4 -43l-2 -19v-103l-2 -27l-7 -27l-14 -31l-10 -9l-10 -16l-12 -9 l-11 -3l-14 -9l-41 -13l-48 4l-13 -1l-32 4l-37 21l-13 12l-10 6l-10 12l-6 14l-11 44v17l-5 11l2 32l-2 16v46l3 14l-4 15l3 28v32l-2 25l3 19l-2 13v32l2 9l-3 15l3 16l-2 17v46l-2 13z"/>
<glyph glyph-name="one" horiz-adv-x="290" unicode="1" d="M210 692l4 -26l-2 -19l2 -14v-29l2 -16l-3 -12v-64l3 -15l-3 -14l2 -29l-3 -31l4 -17l-4 -24l3 -21l-3 -14l2 -12v-75l2 -29l-3 -29v-51l3 -26l-1 -13v-62l-8 -44l-41 -9l-14 2l-14 -3l-29 8l-6 30v135l3 14l-4 21l4 44l-3 27l3 18l-2 14v18l-2 13l3 16l-3 30v28l4 14v34 l-3 12l2 17l-3 27l4 15l-14 18h-12l-31 5l-5 47l6 32l28 12h15l22 24l13 29h37l17 2z"/>
<glyph glyph-name="two" horiz-adv-x="415" unicode="2" d="M43 564l5 17v9l6 20l11 24l29 36l13 8l12 13l14 3l12 7l15 5l33 7h31l13 -2l44 -13l26 -15l13 -13l11 -8l10 -13l15 -29l2 -10l8 -15l3 -33v-77l-18 -59l-7 -9l-6 -17l-12 -23l-12 -15l-6 -11l-9 -10l-7 -19l-18 -22l-13 -28l-12 -8l-5 -14l-10 -14l-13 -31l-9 -8l-3 -16 l-9 -14l-10 -32l-7 -11l11 -17h17l30 5l46 -4l14 3l19 -3l16 2l29 -7l5 -25v-46l-8 -27l-30 -8l-13 2l-16 -3l-29 4h-93l-12 -4l-17 4h-47l-13 -3l-34 10v47l6 44l5 10l6 32l6 14l4 16l14 29l8 27l17 23l4 15l10 12l6 17l19 26l4 12l19 20l10 19l8 7l4 17l12 12l4 12l19 25 l2 17l9 12l6 44l-6 65l-7 12l-24 15h-34l-10 -9l-12 -5l-11 -32l-4 -30l3 -15l-2 -15l3 -20l-6 -27l-31 -4h-15l-10 -4h-18l-26 11l-7 25v81z"/>
<glyph glyph-name="three" horiz-adv-x="415" unicode="3" d="M43 566l3 12l7 12l2 20l16 22l8 16l16 18l27 23l12 3l30 15l27 5h29l18 -4l14 -6h14l16 -6l37 -30l20 -19l7 -10l9 -19l2 -14l8 -12l6 -27l-2 -32v-69l-5 -13v-19l-8 -13l-3 -11l-11 -13l-7 -16v-17l8 -13l7 -16l10 -14l10 -37v-46l-2 -30l3 -14l-3 -15l2 -14l-4 -28v-18 l-8 -30l-11 -22l-12 -13l-9 -14l-11 -7l-13 -14l-21 -16l-28 -7l-16 -7l-14 4h-32l-15 -3l-13 3l-31 14l-22 18l-12 7l-30 36l-11 21l-14 45v50l2 14v29l3 29l28 7l16 1l14 -3l12 1l30 -5l6 -77v-45l5 -16l31 -26l42 4l20 22l6 18v73l2 12l-2 15l2 16l-3 31l-3 10l-8 14 l-13 11l-13 6l-28 4l-28 9l-5 43l7 30l26 8l28 2l12 11l10 6l13 11l3 16v57l1 11l-5 48l-22 20l-12 7h-26l-16 -2l-7 -17l-16 -23v-49l-8 -43l-25 -9l-31 2l-43 7l-6 27v20l4 15z"/>
<glyph glyph-name="four" horiz-adv-x="410" unicode="4" d="M211 219v151l2 14v30h-4l-11 -22l-13 -33l-1 -14l-8 -14l-10 -29l-22 -56l-3 -13l-8 -10l9 -17l14 -3l28 5l14 -5zM316 697l7 -32l2 -33l-2 -9v-49l2 -10l-4 -18l4 -14l-2 -13l2 -16l-4 -32v-45l4 -13v-47l-4 -12l2 -12l-2 -16l3 -28v-34l-3 -26l4 -14l12 -15l27 -5 l7 -52l-8 -33l-27 -6l-12 -10l-2 -17l3 -19v-30l-9 -30l-57 -11l-12 4l-30 3l-2 32v64l-14 14l-16 6l-14 -6l-16 4l-16 -4l-14 3l-15 -2l-30 3l-14 -2l-31 5l-8 31l3 22v35l6 13l3 15l9 16l12 45l9 9l23 70l6 13l4 19l15 25l2 16l13 27l2 14l9 16l8 25l13 29l2 16l7 10l4 17 l10 26l9 13l7 28l11 27h102z"/>
<glyph glyph-name="five" horiz-adv-x="415" unicode="5" d="M349 696v-35l3 -13l-5 -35l-33 -7l-12 3l-16 -2l-14 4l-31 -5l-32 2l-15 -2l-12 2l-20 -15v-41l-6 -42l2 -18l9 -9h13l43 7l12 -8l28 -3l15 -7l13 -9l12 -3l25 -19l19 -24l15 -38l9 -33v-45l-4 -26l2 -21l-2 -11v-18l2 -12v-83l-4 -8v-20l-7 -12l-4 -14l-27 -36l-11 -9 l-10 -13l-12 -10l-14 -2l-16 -11l-45 -9l-28 4l-12 4l-18 -2l-13 9l-15 5l-23 12l-15 13l-7 11l-13 6l-7 17l-13 23l-6 19l-4 25l-3 43l8 27l26 4l16 -1l13 3l15 1l30 -6l7 -38v-34l4 -14l5 -9l13 -14l14 -7l29 2l13 7l21 20l2 16v49l3 27l-4 21l4 14v26l-2 18v59l-5 15 l-9 18l-12 6l-11 9l-29 4l-16 -7l-17 -23l-14 -40h-26l-24 -4l-44 9l-5 31v48l6 27v92l5 12l-3 15l3 18v32l4 29l-2 10l2 21l8 25l30 7h44l10 -3h18l15 4l15 -3l11 3l29 -5l31 4h29z"/>
<glyph glyph-name="six" horiz-adv-x="430" unicode="6" d="M172 132l5 -15l32 -30l26 2l14 6l22 21l4 64l-3 32l4 16v15l-4 13l4 16v18l-7 44l-8 16l-11 7l-11 11l-30 -4l-13 -4l-13 -13l-9 -14l-7 -41v-27l4 -43l-3 -19l3 -14l-3 -10zM59 563l3 17l3 12l14 27l5 15l8 9l19 28l10 5l29 20l13 6l16 2l26 7h46l59 -22l10 -12l14 -9 l7 -10l20 -21l6 -17l9 -12l1 -16l9 -27v-35l-7 -27l-30 -8l-11 4l-16 2l-15 -1l-29 7l-5 58l-13 35l-14 14l-10 7l-27 -3l-16 -9l-10 -11l-4 -12l-8 -13v-36l-4 -10l3 -19v-32l-2 -13l16 -13l9 5h13l32 4l14 -6l28 -7l41 -18l33 -26l4 -14l10 -11l8 -13l9 -47v-121l-3 -17 l2 -16v-32l-7 -28l-16 -41l-18 -23l-23 -17l-14 -14l-12 -6l-14 -1l-15 -11l-13 -3l-16 5h-46l-28 9l-12 7l-13 2l-13 7l-11 9l-13 15l-10 8l-9 13l-5 14l-13 26v20l-6 38l4 20v30l-4 9v21l2 13l-2 15l2 16l-2 11v73l4 14v35l-4 9l2 18v46l2 14l-2 15v44z"/>
<glyph glyph-name="seven" horiz-adv-x="391" unicode="7" d="M358 691v-84l-10 -10l-24 -40l-10 -10l-4 -15l-25 -52l-8 -33l-6 -12l-20 -54l-3 -19l-5 -14l-11 -57l-8 -33l1 -15l-6 -13l-5 -42v-30l-4 -17v-31l-4 -33v-25l-8 -48l-28 -5l-28 3l-16 -5l-17 2l-30 9l-6 43l1 14l7 33v26l7 58l5 15l4 21l-1 14l6 14l6 42l10 32l1 13 l9 31l8 13l1 14l5 16l14 24l3 14l10 29l9 15l4 12l7 13l6 17l8 13l26 53l-4 13h-31l-16 -2l-13 4h-15l-15 -3l-28 2l-15 -2l-12 4h-32l-6 50l6 29l31 10h32l16 -6l13 3h77l16 3l44 -6l18 6l13 -4l18 4z"/>
<glyph glyph-name="eight" horiz-adv-x="415" unicode="8" d="M154 461l4 -14l20 -21l14 -8l27 3l15 5l11 8l11 11l3 18l-2 30l3 11v29l-4 30l-11 30l-24 15h-28l-15 -7l-16 -21l-8 -16l2 -29l-2 -28l6 -13zM158 133l2 -14l6 -14l14 -13h43l13 5l11 8l11 30l3 25l-4 17l2 27v76l-12 26l-14 16l-11 5h-32l-13 -5l-12 -12l-5 -14l-4 -20 l-2 -24l2 -29l-3 -15l3 -15l-3 -18zM45 565l4 12l1 13l6 18l13 24l10 12l6 15l12 9l11 12l25 17l29 11h29l32 4l26 -9l19 -4l12 -8l12 -4l26 -15l29 -37l11 -29l11 -40v-32l-2 -25v-45l-2 -30l-20 -42l-11 -13l2 -17l7 -16l9 -11l15 -40l4 -46l-3 -29v-100l-6 -19l-6 -10 l-4 -16l-36 -48l-13 -7l-24 -18l-12 -2l-17 -10l-16 -1l-15 -4l-27 7l-16 1l-12 4l-16 2l-14 4l-12 11l-25 12l-12 14l-31 49l-4 13l-2 19l-6 12v32l2 14l-2 26l4 16l-4 11l3 16v33l6 30l10 26l15 27l2 15l-18 27l-7 16l-1 15l-9 25l2 29l-2 18l2 13v43z"/>
<glyph glyph-name="nine" horiz-adv-x="415" unicode="9" d="M155 383l4 -17l6 -18l15 -8l11 -9l29 2l13 7l13 11l11 24v60l3 28v59l-2 15v26l-2 16l-10 15l-22 16l-29 2l-27 -16l-7 -12l-5 -19v-46l-3 -15l2 -15l-3 -19l3 -42v-45zM43 563l5 19l2 15l6 9l12 30l9 13l23 24l22 16l29 15l11 2h18l40 7l31 -9l27 -13l16 -3l44 -39 l6 -15l9 -12l12 -29l5 -59v-173l-3 -14l4 -33l-3 -12l3 -19l-4 -16l4 -26l-4 -15l4 -15l-4 -16l3 -17v-45l-17 -52l-10 -13l-6 -14l-21 -23l-23 -21l-39 -13l-15 -10l-48 3l-14 -3l-13 9l-15 2l-16 5l-11 6l-14 15l-24 17l-14 25l-17 23l-3 19l-4 13l1 14l-3 33l7 26l26 4 l14 5l56 -10l9 -24v-48l7 -13l20 -21l13 -4h28l12 9l18 22l3 17v44l2 26v36l-14 10l-13 -5l-10 3h-44l-13 4h-18l-11 10l-16 4l-8 8l-13 8l-23 18l-9 13l-12 25l-13 47v30l4 14l-2 17v48l-2 14l3 33z"/>
<glyph glyph-name="colon" horiz-adv-x="230" unicode=":" d="M59 515l10 11l8 13l23 11l29 6l14 -8l9 -10l16 -23v-29l-7 -12l-18 -21l-15 -4h-29l-23 14l-8 8v17zM63 69l5 16l7 8l13 10l13 2h41l11 -11l17 -25l-3 -28l-5 -13l-21 -24l-12 -6l-28 2l-23 14l-17 28z"/>
<glyph glyph-name="semicolon" horiz-adv-x="231" unicode=";" d="M60 516l9 14l19 18l14 6h26l16 -9l20 -17l5 -16l-6 -41l-8 -11l-28 -14l-27 -2l-26 18l-5 12l-9 9v33zM165 106l3 -31l3 -20l-4 -24l-13 -64l-9 -11l-9 -30l-10 -12l-6 -15l-12 -6l-24 -18l-20 19l18 30l10 25v16l4 18l-8 18l-22 4l-8 26l4 18l-3 15l9 40l39 3l30 5z"/>
<glyph glyph-name="less" horiz-adv-x="313" unicode="&lt;" d="M238 448l-14 -12l-11 -15l-36 -45l-13 -7l4 -29l38 -41l9 -15l23 -31l-3 -45l-14 -11l-17 3l-24 15l-13 13l-12 7l-18 25l-13 6l-10 15l-10 8l-15 8l-11 17l-6 55l5 25l15 14l10 13l21 18l43 41l37 31l18 -5l13 -9z"/>
<glyph glyph-name="equal" horiz-adv-x="330" unicode="=" d="M263 284l4 -30l3 -15l-5 -37l-33 -2l-11 -4h-17l-14 4h-19l-12 -4l-16 3l-32 2l-15 -4l-30 6l-9 52l10 29l30 4l14 -1l16 4h32l12 -3h32l18 2zM264 502l4 -30v-18l-6 -31l-29 -4l-31 2l-15 -4l-29 5h-18l-12 1h-63l-7 31l6 53l31 4l15 -3l14 3h33l16 -3l17 4h29z"/>
<glyph glyph-name="greater" horiz-adv-x="313" unicode="&gt;" d="M235 390v-23l4 -14l-5 -40l-36 -37l-8 -5l-12 -13l-13 -7l-12 -17l-11 -9l-8 -10l-26 -14h-15l-15 10l-3 27l1 16l29 45l22 22l18 25v21l-11 10l-7 10l-11 10l-29 39l-14 12l7 51l10 7h17l27 -16l43 -39l9 -13l14 -7l20 -19z"/>
<glyph glyph-name="question" horiz-adv-x="415" unicode="?" d="M43 565l3 9v21l11 42l17 23l6 15l11 9l15 7l12 9h13l13 8l18 4l16 -1l15 2h30l13 -6l14 4l43 -12l13 -11l16 -2l8 -11l12 -10l14 -31l3 -12l7 -13l3 -17l-2 -12v-98l2 -12l-6 -16l-7 -9v-19l-10 -12l-6 -11l-11 -14l-5 -11l-12 -12l-12 -24l-7 -7l-10 -16l-5 -13l-22 -59 l-5 -29l1 -15l-10 -45l-32 -10l-45 8l-8 30l5 13v46l5 20l1 15l3 12l7 16l1 10l9 16l8 28l10 18l8 10l6 17l10 10l8 12l11 30l7 9l5 50l-4 15l3 30l-11 33l-28 13l-30 3l-28 -11l-8 -7l-9 -18l1 -15l-5 -29l3 -30l-5 -47l-30 -4h-33l-28 6l-6 44v64zM151 71l8 10l6 14l27 14 l25 -2l15 -7l18 -17l9 -15v-26l-7 -16l-10 -13l-21 -11l-29 -2l-17 9l-17 17l-5 15z"/>
<glyph glyph-name="at" horiz-adv-x="575" unicode="@" d="M260 355l4 -15l-2 -18l1 -9l-3 -20l3 -11v-32l2 -14l6 -18l8 -11l24 -8l11 14v27l2 17v120l-3 24l4 16v32l-3 42l-9 11l-26 -5l-6 -4l-6 -16l-3 -29v-31l-4 -38v-24zM42 369l3 10l-2 33l4 11l2 17l-3 33l6 12v35l5 9l2 15l5 15l2 16l9 30l8 12l5 16l8 15l10 6l10 15l13 7 l15 5l13 13l13 1l29 9l42 4l15 5l18 -4h91l42 -16l12 1l36 -29l10 -3l11 -12l8 -13l5 -16l9 -12l5 -10l2 -15l4 -13l6 -36l6 -15l3 -16l-1 -14l6 -11v-36l-3 -12l4 -35v-61l-3 -12l4 -21l-4 -13v-31l-4 -12l-3 -19l-11 -44l-9 -11l-7 -14l-21 -20l-13 -4l-13 -9l-15 -3 l-13 -6l-14 -3l-15 2l-13 -3l-26 4l-23 25l-17 5l-8 -9l-13 -7l-33 -7l-14 7l-21 6l-13 9l-17 43l-6 10l-3 19l2 13l-9 51v64l3 27l-3 18l3 17l-2 23l8 30v17l9 44l13 25l11 13l17 3l12 8h44l8 -9l11 -7l12 -4l18 15l44 -21v-40l2 -13l-2 -26v-51l3 -14l-4 -27l4 -13v-150 l12 -16l17 3l10 7l17 24l7 31l-2 12v62l4 32l-5 30l4 14l-4 12v18l-4 31l2 15l-7 27l-1 16l-8 16l-1 12l-15 28l-19 26l-11 4l-8 13l-14 6l-16 -1l-11 3l-17 8l-15 -3h-29l-14 2l-29 -4l-13 -5l-15 -10l-10 -3l-21 -17l-15 -23l-7 -18l-5 -8l-2 -21l-5 -9l-10 -93v-122 l4 -35l-1 -12l6 -12v-64l9 -30l12 -27l7 -9l8 -16l10 -12l23 -17l42 -12l11 2h79l30 -4l7 -33l-5 -32l-27 -8l-25 5h-102l-43 7l-27 13l-23 15l-12 11l-20 24l-3 11l-9 14l-4 16l-7 15l-1 16l-4 9l-9 35l-4 30v34l-3 13l1 16l-4 15v82z"/>
<glyph glyph-name="A" horiz-adv-x="516" unicode="A" d="M323 200l-3 12l-5 12l-8 30l-7 17v17l-5 9v15l-7 18v10l-10 31l-2 17l-8 26l-6 33l-8 -4l-5 -15v-9l-5 -16l-2 -15l-7 -18l-1 -11l-7 -16l-3 -30l-5 -11l-2 -16l-11 -31l-1 -16l-5 -11l-4 -15v-17l9 -15h46l29 5l17 -5l20 2zM304 698l13 -28l1 -16l10 -25v-15l7 -18 l2 -11l5 -33l11 -28l1 -12l5 -16l1 -13l6 -17v-16l7 -28l7 -14l6 -33l9 -25v-16l7 -12v-18l7 -17l3 -30l10 -28l1 -13l6 -13l4 -19l4 -23l7 -16l1 -16l6 -13l5 -28l5 -34l7 -12l3 -29l-11 -7l-26 -10h-18l-18 5l-24 3l-18 41l-2 18l-18 12l-15 3h-17l-15 -5h-48l-17 6 l-30 -6l-16 1l-17 -11l-4 -15l-12 -42l-29 -5h-17l-14 -4l-31 3l-7 13l3 25v16l6 17l5 26l9 29l6 31l7 27l8 36l6 8v20l10 29v13l7 29l10 28l2 13l5 31l7 14l4 31l5 15l1 12l7 18v16l9 30l9 23v19l11 27v18l8 26l1 16l8 13l8 29l26 -2l14 6l15 -4h40z"/>
<glyph glyph-name="B" horiz-adv-x="490" unicode="B" d="M262 112l14 4l15 5l24 12l13 25l7 28v30l-18 35l-12 12l-15 2l-27 10l-32 -4l-15 6h-14l-21 -14l5 -47l-4 -44l4 -49l16 -14l14 3l18 -5zM278 386l14 10l18 17l11 15l9 23l3 14l-1 14l4 31l-6 30l-9 15l-8 9l-22 15l-16 7h-45l-15 5l-15 -2l-16 -13l-1 -15l3 -17l-3 -44 l3 -25v-31l-4 -14v-33l18 -13l16 2h62zM264 699l12 -4l20 2l15 -2l12 -4l56 -27l9 -14l13 -10l18 -27l12 -28l9 -27v-17l5 -16v-57l-5 -16l-4 -29l-8 -31l-12 -29l-15 -23v-21l6 -15l11 -15l13 -26l10 -30l2 -15v-31l-3 -33l-6 -30l-9 -24l-19 -28l-15 -27l-12 -10l-28 -10 l-12 -13l-14 1l-33 -8l-13 -6l-15 4l-33 -6l-16 3l-15 -2l-16 2l-15 -1l-11 2l-49 -5l-30 11l-6 25v74l3 21l-4 9l4 16v19l-4 12l2 13l-2 18v28l3 15v30l-2 20v27l3 16v61l-2 12v137l2 12l-2 19v26l-2 18l9 62l31 2h76l30 4z"/>
<glyph glyph-name="C" horiz-adv-x="446" unicode="C" d="M50 550l1 15l5 27l8 17l3 14l11 8l5 15l9 8l10 14l25 19l15 7l27 7l29 9h44l16 2l17 -6l29 -10l25 -12l25 -14l9 -14l18 -24l5 -13l9 -30l7 -15l2 -9l3 -45l-4 -22l4 -15l-5 -29l-44 -7l-15 3l-16 -1l-27 4l-7 34l2 15v47l-3 12l-18 27l-30 10h-46l-12 -14l-12 -5l-8 -18 l-9 -42v-82l4 -15v-11l-3 -18l3 -11v-78l-4 -15v-78l3 -28l5 -44l9 -15l11 -11l14 -10l12 -2h35l12 2l13 11l13 7l5 12l4 20v62l8 32h29l11 2h17l13 3l29 -5l4 -34v-74l-6 -14v-19l-5 -14l-6 -10l-7 -18l-9 -7l-7 -17l-12 -7l-11 -13l-15 -4l-26 -17l-14 -2l-15 -6l-30 -4 l-26 3l-30 5l-14 -2l-14 10l-14 4l-27 17l-9 11l-14 9l-10 10l-5 10l-9 12l-4 15l-8 15l-4 18l1 11l-6 14l3 33l-1 10v29l-2 33l3 26l-3 36l2 11l-2 15l3 13l-3 19v15l3 12v27l-3 19v13l3 16l-4 30l3 14v30z"/>
<glyph glyph-name="D" horiz-adv-x="471" unicode="D" d="M233 111l15 2l15 8l12 10l6 18l9 9l7 18l7 8l8 31l7 30l-2 12l2 18l4 15v12l4 17l-3 13l3 44l-5 16l1 16l-4 31l-5 17l1 9l-7 15l-2 18l-6 16l-8 13l-2 14l-9 7l-20 22l-15 10l-11 11l-31 -4l-20 -10v-32l2 -14l-4 -17l2 -14l-2 -13v-17l3 -28v-63l-2 -15l3 -18l-4 -15 v-13l2 -13v-34l2 -10l-1 -15v-35l-3 -9l3 -21l-3 -14l4 -10v-36l15 -10h32zM236 701l16 -5l27 -6l13 -8l13 -3l12 -13l11 -4l14 -10l9 -17l10 -6l7 -17l17 -20l8 -16l4 -17l12 -25l11 -44l9 -31l-1 -14l5 -36l2 -25l-2 -21l4 -26l-3 -15v-31l-5 -31l-3 -32l-3 -9l-6 -30 l-6 -14l-10 -28l-2 -15l-15 -29l-17 -22l-16 -27l-10 -10l-13 -6l-25 -20l-10 -2l-14 -10h-13l-17 -5l-15 1l-29 -3h-18l-14 2l-18 -3l-12 1l-16 -2l-15 2l-30 8l-8 26v32l-2 26l3 18v15l-3 12l4 18l-4 30l1 12v60l3 21l-1 11v19l-2 15l2 14l-2 10v20l3 14l-3 28v28l3 17 l-4 15l3 17v29l-3 28l4 14v30l-2 18v29l-2 31l8 32l31 2l13 2h51l12 -4z"/>
<glyph glyph-name="E" horiz-adv-x="409" unicode="E" d="M345 691l3 -28l1 -9l-2 -19l3 -14l-9 -24l-28 -7h-59l-14 -4h-39l-15 -14v-118l-4 -19l3 -46l13 -18h47l19 2l13 -1l16 5l32 -5l3 -29l-2 -30l2 -17l-4 -29l-31 -3h-31l-33 3l-27 -6l-16 -9v-21l-2 -13l2 -19v-59l-3 -12l16 -19l31 -3l28 6h55l31 -5l6 -48l-2 -12l2 -14 l-8 -25l-26 -8l-17 2l-15 -5l-13 2h-60l-14 -3h-17l-26 6l-17 -6h-11l-45 9l-8 44l2 27l-3 33v28l3 15l-1 15l2 15v31l-3 19l3 26l-4 18l3 11v34l-3 10v19l4 16l-3 27l2 18l-2 31l2 29l-2 15l2 27v64l-3 12v28l4 33l-1 15l5 32l31 3l29 -2l12 2l14 -4l15 5l14 -3h30l32 3 l13 -2l13 3z"/>
<glyph glyph-name="F" horiz-adv-x="399" unicode="F" d="M365 693l3 -31l-2 -26l3 -13l-8 -27l-28 -10l-15 4l-14 1l-28 -5l-16 6l-17 -4l-15 -1l-13 3l-17 -2l-12 -15l-4 -10v-50l2 -12l2 -30l-3 -11l3 -14v-20l-2 -11v-16l15 -13h29l33 -4l28 4l42 -8l8 -41v-17l-4 -38l-46 -10l-17 5l-15 -2l-11 1h-18l-13 -3l-14 4l-15 -17 l-4 -13l4 -19l-2 -11l2 -21v-44l-4 -31l4 -15l-4 -25l4 -35l-9 -39l-27 -7h-30l-13 -1l-26 4l-9 28l4 33l-2 17l-2 30v25l4 31l-1 15v32l-3 12l4 15l-2 33l2 30l-4 14v13l3 15l-3 21v42l2 15l-1 15l3 30l-1 15l-3 13l3 20l-2 12l3 17v12l-3 14l-1 14v30l3 33l4 42l47 11 l12 -5l15 3l17 -3l15 5l16 -2l28 -4l14 2h63l11 4h15z"/>
<glyph glyph-name="G" horiz-adv-x="452" unicode="G" d="M59 551l5 12l4 31l10 27l9 14l19 24l26 19l13 12l27 13l13 3l29 2l46 4l28 -12l14 -3l15 -7l14 -4l11 -8l8 -15l13 -5l15 -30l10 -21l10 -29v-15l3 -16v-35l-7 -28l-28 -7h-11l-29 -2l-27 6l-8 36v31l-10 28l-12 7l-9 14l-15 6l-28 -3l-14 -4l-14 -12l-16 -22l-5 -18 v-152l2 -13v-29l-2 -31l3 -13v-18l-3 -14l2 -30l-2 -19l3 -12l-2 -29l3 -29l7 -31l12 -11l14 -8l13 -3l27 -2l16 5l18 16l14 30v64l-15 20h-33l-3 45l-4 25l10 34h29l31 2l14 3l12 -3l19 4l42 -5l7 -31v-49l-1 -14v-108l-4 -18l-1 -14l-6 -11l-6 -17l-12 -26l-9 -9l-12 -7 l-9 -10l-13 -9l-12 -12l-16 -4l-10 -8l-32 -2l-13 -4l-30 3l-17 -3l-14 9l-15 2l-29 9l-10 12l-23 18l-10 13l-11 10l-9 13l-2 18l-5 16l-6 11l-8 34v31l4 27l-4 14l4 14v28l-4 19l3 13l-1 15v74l2 28l-3 17l2 28l-3 14l4 15v12l-2 15v35z"/>
<glyph glyph-name="H" horiz-adv-x="486" unicode="H" d="M177 691l8 -24v-76l-3 -20v-62l4 -13l-4 -16l2 -12l-2 -15l4 -35l-3 -29l3 -14l12 -17l13 2l16 -4h17l12 3l30 3l15 16l-2 9v19l3 33l-4 13l4 12l-2 17v134l-2 17l4 20l-4 12l9 32l28 4h14l28 -2l26 -5l7 -30v-30l-2 -29l3 -13l-2 -15l2 -16v-49l-2 -27l3 -12v-34l-3 -26 l3 -32v-28l-4 -17l3 -14l-2 -15l2 -33v-72l-3 -31v-45l2 -13l-2 -21l4 -11v-18l-3 -16l3 -13l-8 -31l-41 -3l-16 3l-13 -6l-30 9l-5 47l3 28v34l-4 28v16l4 31l-4 15v30l-11 14h-60l-16 4l-13 -1l-12 -15v-20l-4 -16l4 -13v-61l-3 -28v-61l-4 -35l-29 -2l-16 -3l-11 5 l-16 -5l-27 10l-6 24l-2 16l2 18l-1 11v79l3 27v30l-4 19l4 16l-3 13l3 16v30l-4 30l4 26v31l-3 15v14l3 19l-4 30l1 16v26l3 19v75l-4 25l4 20l-4 11l8 28l29 9l15 -4l12 5h15z"/>
<glyph glyph-name="I" d="M178 693l8 -31v-40l-4 -18l2 -15v-93l2 -29l-3 -14l3 -16l-4 -27l2 -19l2 -27l-2 -16l2 -29v-31l-2 -17v-44l-2 -27l1 -16l3 -32l-4 -13l2 -18v-30l2 -11v-16l-2 -12l-6 -49l-26 -3l-15 -4l-14 1l-13 5l-31 2l-6 32v59l3 15l-4 15v27l4 18l-1 15v30l-3 17l4 14l-4 11v20 l4 15v14l-4 13l4 14l-3 14l3 18l-4 31v41l4 17v14l-4 13v20l4 31l-2 13l1 16v31l-2 26v34l3 14l2 25l28 10l31 -2z" unicode="I"/>
<glyph glyph-name="J" horiz-adv-x="400" unicode="J" d="M335 692l4 -27l-1 -15l3 -18l-2 -29l2 -30l-2 -10v-20l-2 -12l3 -14l-2 -16l2 -32l-2 -24v-33l2 -11v-34l-3 -12l3 -31l-2 -16l3 -31l-4 -14l1 -10v-20l3 -28l-2 -17v-58l-3 -25l-6 -19l-12 -22l-15 -27l-21 -22l-28 -14l-12 -1l-27 -11l-15 2l-28 -5l-17 4l-15 6h-15 l-10 7l-14 3l-13 14l-24 18l-16 25l-4 11l-9 27l-8 29v34l4 8l-4 21l7 25l42 9l16 -3l14 2l26 -4l8 -32v-15l-3 -16l2 -28l6 -15l11 -7l12 -11l29 4l16 5l14 25l4 41l-4 17l2 18v56l2 13l-3 30v123l3 30l-3 14v87l3 28l-4 18l3 29l-3 14l9 41l28 5l13 6l13 -4z"/>
<glyph glyph-name="K" horiz-adv-x="497" unicode="K" d="M439 692l12 -9l-19 -49l-9 -11l-15 -27l-3 -16l-16 -21l-6 -13l-15 -32l-10 -11l-4 -17l-11 -10l-4 -17l-10 -12l-5 -14l-11 -14l-11 -25v-24l3 -18l7 -13l15 -28l3 -12l10 -17l10 -27l9 -13l8 -27l7 -13l13 -26l16 -28l6 -17l11 -26l6 -19l8 -11l10 -27l10 -34l-11 -9 l-28 -6l-15 -1l-13 4l-12 -2l-27 5l-19 31l-5 18l-8 11l-14 26l-4 19l-9 14l-4 12l-7 10l-6 13l-14 32l-14 29l-11 23l-11 -1l-10 -7l-15 -27l-3 -17l-11 -25l3 -16l-4 -11v-33l3 -13v-17l-3 -14l2 -28l-4 -32h-32l-13 -5l-14 -1l-14 5l-31 6v58l-2 11v32l2 30l-4 14l3 18 v61l-3 30l2 12l-2 16l3 18l-1 10l2 33l-3 16l2 25l-3 16l4 15v35l-4 30v13l4 28l-4 17l3 29l-1 15v32l2 13l-2 13l1 15l6 30l25 4h15l17 5l14 1l26 -11l4 -24v-21l3 -12v-77l-3 -28l2 -15l-2 -17v-32l3 -13l-2 -19v-28h8l7 8l7 19l6 7l7 17l9 9l3 14l8 17l9 10l8 13l9 25 l16 29l8 9l7 14l10 29l10 11l12 28l21 32l28 6h31z"/>
<glyph glyph-name="L" horiz-adv-x="363" unicode="L" d="M177 693l8 -30v-16l-3 -31l3 -12l-3 -13v-48l3 -31l-2 -25l3 -34l-2 -16l-2 -28l4 -12v-17l-4 -32v-16l4 -11l-4 -19l3 -27v-118l-2 -33l15 -17l13 -1l14 6l32 -2l12 -3l17 3l14 -5h30v-30l4 -16l-1 -13l-8 -43l-28 -3l-27 -3h-30l-13 4l-14 -3l-15 3l-18 -3l-13 4 l-16 -3l-28 2l-14 -3l-28 9l-9 30v30l3 13l1 14v31l-4 15l4 11l-3 16l3 15l-2 18l-2 31l4 10l-2 17v30l-2 13v60l3 33v74l-2 16l3 28l-4 19l1 16l3 12l-1 13v20l-3 14l4 16l-3 28l6 42l28 9l14 -5l31 6z"/>
<glyph glyph-name="M" horiz-adv-x="638" unicode="M" d="M178 696l11 -23l5 -17l2 -15l11 -24l3 -17l11 -28l8 -31l7 -24l12 -31l4 -16l6 -29l9 -11l6 -34l7 -15l1 -11l5 -15l10 -29l8 -30l9 -26l10 -2l4 18l5 9l2 20l7 14l7 27l7 13l4 18l11 27l5 30l6 11l2 18l6 14l11 27l2 17l12 25l9 27l9 29l5 28l9 16v19l15 19l22 8h18 l13 -6l12 4l30 -5l4 -30v-63l3 -31l-2 -11l2 -14l-3 -15v-50l3 -9v-21l-2 -15l3 -9v-17l-4 -30l3 -18l-2 -28l2 -17v-89l-3 -13v-15l4 -14v-19l-3 -27l2 -19l-3 -11l4 -15l-2 -28v-36l-3 -28l-28 -7h-30l-13 6l-28 2l-4 29v17l-3 11v18l3 14l-1 13v61l-3 12l1 15v18l2 13 l-3 31l4 14l-4 18v14l4 10v49l-4 9l-3 -10l-5 -29l-7 -16l-3 -12l-5 -32l-5 -15l-6 -23v-14l-8 -34l-1 -12l-6 -16v-15l-9 -27l-1 -16l-4 -13l-1 -16l-8 -25l-12 -43l-26 -2l-30 -2l-16 4l-26 2l-10 26l-2 12l-8 28l-3 17v15l-6 13v17l-9 26l-9 29v17l-5 9l-3 29l-10 28 l-4 35l-7 25v18l-8 24l-5 2l2 -33v-98l-3 -15v-34l3 -10l-2 -20l2 -26l-2 -16l3 -16l-4 -16l3 -27v-27l-7 -32l-39 -3l-15 -5l-42 11l-4 30v27l-4 14v32l3 15v73l-3 30l3 13v45l-2 18v28l3 31l-4 28v21l4 9v36l-3 25l3 20l-4 14l2 12v19l2 15l-4 9v34l4 29l-4 14l4 13l3 36 h31l11 3l15 -4h42z"/>
<glyph glyph-name="N" horiz-adv-x="522" unicode="N" d="M181 694l10 -21l13 -28l2 -15l14 -26l3 -11l9 -31l15 -24l2 -12l7 -20l5 -8l9 -32l9 -13l4 -14l8 -25l15 -26l1 -14l11 -27l10 -14l3 -14l3 -1v43l4 17l-4 31l3 18v210l-2 12l5 46l28 3l29 4l15 -6l28 -2l6 -27l-2 -17l4 -16l-3 -16l2 -13v-17l-3 -28l4 -15v-30l-4 -14 v-125l3 -29l-2 -13l3 -18v-40l-4 -29v-35l3 -12l-3 -15l1 -15v-118l3 -16l-9 -32l-26 -4h-48l-24 6l-10 18l-11 29l-8 11l-2 19l-8 13l-5 13l-9 27l-9 10l-3 20l-10 27l-9 13l-3 11l-10 30l-8 11l-5 17l-6 8l-8 34l-8 10l-7 25l-9 15l-3 16l-4 -2v-44l-4 -19v-24l4 -18v-16 l-3 -29l2 -16l-3 -12l2 -16v-34l2 -11l-3 -30l3 -34l-5 -27v-45l-29 -10h-45l-28 8l-6 29l3 14l-3 14l3 16v65l-3 10l1 14v34l2 15v29l-3 13l3 14l-2 19l1 16v76l-3 15l3 28v62l-3 27l4 12l-3 32l3 19l-3 10l2 19l-3 12l4 18l-2 28l5 30l28 8l18 -6l14 6l14 -5z"/>
<glyph glyph-name="O" horiz-adv-x="468" unicode="O" d="M165 150l4 -16l20 -25l12 -2l18 -7h30l30 14l10 8l11 28v29l3 36l-2 24v48l2 30l-4 27v35l4 10l-4 17v43l3 20l-3 10v64l-3 15l-5 11l-18 22l-14 3l-10 7l-46 -5l-12 -10l-15 -17l-7 -11l-6 -15v-32l3 -14l-3 -13l3 -19l-4 -12v-34l3 -12l-3 -18v-60l4 -9l-3 -18l3 -28 l-4 -32v-18l3 -25v-49zM54 559l8 11v18l10 29l17 22l7 15l21 21l16 6l11 11l15 7l30 10h26l34 5l15 -2l28 -8l17 -8l12 -3l14 -12l25 -15l19 -24l6 -14l9 -12l5 -11l4 -15l9 -31v-63l-2 -11l3 -20v-61l-2 -9l2 -30v-76l-2 -17l2 -14l-3 -32v-26l3 -45l-5 -18l1 -14l-8 -31 l-7 -15l-10 -10l-6 -13l-9 -9l-22 -24l-12 -8l-16 -3l-14 -11h-13l-12 -5l-34 -7h-31l-28 3l-13 6l-16 3l-25 19l-11 4l-14 10l-8 12l-18 21l-7 18l-8 13l-2 13l-6 14l-1 12l-6 47l1 16v31l2 28l-2 14l1 13v96l-2 13l3 16v31l-2 9l2 21l-2 13l1 16v60z"/>
<glyph glyph-name="P" horiz-adv-x="463" unicode="P" d="M279 385l8 10l15 5l6 16l11 23v21l4 15v25l-5 31l-11 25l-19 27l-12 3l-28 2l-14 -1l-36 3l-15 -16v-11l3 -16l-3 -13v-20l3 -9l-4 -33l4 -11l-4 -17l3 -18v-30l15 -12l17 -2l15 2l15 -2zM295 695h13l16 -4l15 -8l12 -12l11 -6l13 -13l19 -22l12 -21l12 -32l9 -26l1 -16 l5 -21v-9l-3 -46v-17l-2 -16l-5 -12l-2 -15l-5 -18l-14 -28l-20 -27l-18 -18l-27 -18l-15 -6l-29 -9l-16 2l-29 -5l-17 4l-17 -3l-16 1l-15 -18l2 -29l-3 -11l2 -20l-2 -25l4 -16l-2 -29v-20l-2 -15l4 -11l-3 -19v-30l-6 -24l-41 -9l-12 2l-15 -2l-30 9l-6 42l3 16l-2 17v29 l2 15l-4 13l4 32l-3 11l2 14l-2 15v94l3 30v31l-3 15v14l3 14l-2 16v41l2 16l-4 34v27l3 18l-3 26l3 18l-2 15l3 12l-4 18l4 13l3 34l30 3l33 -3l14 2l15 -2l31 5l15 -1l16 -5l14 2z"/>
<glyph glyph-name="Q" horiz-adv-x="478" unicode="Q" d="M173 149v-10l20 -29l15 -9l16 -4h30l15 10l15 6l11 10l7 17l6 40v75l-4 16l3 17v28l-3 28l4 31l-4 16l4 15l-3 14v35l2 13l-2 14l3 29l-4 46l-14 26l-10 9l-16 1l-10 8h-32l-12 -8l-15 -4l-8 -9l-9 -15l-2 -10l-8 -12v-29l3 -14l-2 -21l2 -10l-4 -14l2 -21l-1 -15l3 -13 l-3 -31l3 -16l-3 -45l3 -10l-4 -16v-49l3 -13l-1 -15l-2 -31zM60 558l4 16l5 10l8 31l17 29l17 23l12 10l14 8l25 11l16 4l16 8h15l14 5l45 -5l29 -8l13 1l16 -8l28 -17l20 -23l19 -26l12 -23l10 -35v-27l4 -31l-4 -26v-16l4 -15v-14l-2 -15v-106l2 -29l-2 -32v-30l2 -29 l-3 -47l-2 -27l-9 -30l-14 -28l5 -26l8 -7l6 -19l23 -25l10 -27l-29 -31l-13 -6l-9 -8l-24 -9l-23 21l-9 11l-18 21l-5 10l-9 9l-26 8h-10l-15 -4l-47 3l-13 4l-17 2l-13 10l-14 1l-22 21l-14 9l-21 19l-4 11l-11 14l-7 32l-10 26v44l-3 28l3 18v29l-3 13l4 18l-2 33l2 13 l-4 16l4 28l-2 14v29l2 30v34l-1 10v64z"/>
<glyph glyph-name="R" horiz-adv-x="481" unicode="R" d="M277 387l13 4l10 14l4 17l7 17l1 12l-2 19v32l2 28l-5 16l-8 23l-12 14l-9 5h-48l-12 2h-19l-14 -12l-2 -18l2 -30l-2 -16l3 -13l-3 -17l2 -9l-2 -18l3 -30l-3 -25l15 -19l18 -2l14 3zM277 698l16 3l17 -7l14 -3l16 -6l10 -8l26 -13l18 -26l11 -31l6 -9l2 -16l5 -19 l-1 -10l5 -22l-1 -14l2 -17l-2 -31l1 -13l-4 -29l-2 -32l-7 -16l-1 -16l-9 -15l-14 -28l-2 -18l12 -9l8 -13v-18l7 -15l2 -11l-2 -26l2 -30l-3 -31l4 -26l-4 -35l4 -27l-1 -15l7 -27l-8 -14l-33 -5l-19 2l-17 -4l-24 4l-13 15l-2 15v75l-4 29v57l3 17v26l-12 29l-43 8l-30 3 l-18 -5l-14 -10v-17l-3 -15l3 -18v-13l-3 -13l3 -17l-2 -28l2 -17l-2 -30l1 -16l-2 -16l-1 -9v-48l-30 -2l-14 -5l-14 4l-13 -2l-30 6l-7 43v109l2 11l-3 30l2 32l-1 16l3 13v91l-3 13v60l3 29l-4 34l1 15v28l2 33l-3 10l3 20l-2 15l3 11l-3 13v19l7 45l43 6l20 -2h29l14 2 l18 -3l11 4l33 -6z"/>
<glyph glyph-name="S" horiz-adv-x="443" unicode="S" d="M281 462l-4 26l-3 29l2 19l-4 11l-5 33l-18 23l-16 2h-37l-11 -13l-10 -16l-4 -13l-6 -30v-42l7 -14l16 -27l10 -5l9 -16l21 -14l40 -26l10 -9l15 -9l11 -9l11 -14l10 -4l11 -15l19 -24l12 -7l15 -27l2 -15l10 -32l4 -11v-31l-3 -12v-30l-7 -35l-14 -25l-4 -15l-18 -23 l-19 -24l-28 -15l-11 -3l-15 -7l-16 -1l-29 -5l-45 5l-28 3l-15 5l-11 9l-14 5l-13 9l-8 11l-10 7l-11 14l-9 8l-12 32l-6 30l-5 10l-2 29v48l4 28l30 9l18 -6h15l18 6l31 -8l4 -27v-50l10 -25v-18l9 -10l23 -24l28 3l12 9l12 6l4 15l12 32l-1 12v50l-4 12l-14 20l-8 18 l-25 15l-25 17l-35 24l-14 7l-22 22l-25 21l-7 13l-11 6l-15 31l-8 9l-4 18l-9 12l-5 32l4 25l-3 17l3 11v18l3 18l12 28l1 14l10 11l7 14l19 19l8 13l16 8l9 9l17 3l26 7l33 6l28 -2l12 2l19 -6h14l12 -6l13 -3l25 -19l14 -7l19 -24l5 -11l5 -19l7 -10l4 -13l10 -29l2 -15 l-3 -16l4 -16v-31l-5 -28l-31 -4l-18 -5l-16 4l-16 -1z"/>
<glyph glyph-name="T" horiz-adv-x="410" unicode="T" d="M371 697l5 -34l-1 -10v-28l-5 -31l-33 -6h-32l-16 4l-12 -1l-17 -18l-3 -14l2 -13v-19l2 -14l-4 -30l3 -13l-3 -14l2 -15l-1 -15l3 -16l-3 -15v-49l3 -13l-4 -15l4 -11l-3 -21v-26l2 -17l-2 -30l3 -27l-4 -18l1 -15l3 -11v-93l-8 -41l-28 -9l-15 -1l-11 4l-15 -2l-28 7 l-7 24l-2 19l2 12l-2 33l2 14l-2 16l4 16l-3 15l3 14v11l-4 35l3 25l-3 19l4 29l-1 16l-3 27l4 19l-2 25l1 15l-3 30l4 30l-3 36l3 26l-3 18l1 15l-2 11v19l-15 13l-14 -1h-31l-45 4l-7 30v32l-2 12l9 25l25 7l19 -2l12 4h29l16 -3l16 4l29 -5l14 6l16 -1l18 -5l11 4h49 l11 -2l32 3z"/>
<glyph glyph-name="U" horiz-adv-x="494" unicode="U" d="M178 695l7 -30l-2 -17v-61l2 -13l-3 -26l4 -15l-3 -18v-17l3 -15l-4 -13v-133l3 -30v-106l-3 -30l5 -45l18 -21l15 -6l13 2l28 -5l12 8h16l9 16l6 7l5 44l-3 28l4 35l-2 31l2 10l-4 15l3 18l-2 12l1 16l-2 16l4 30l-1 12v34l-2 31v101l2 33l-1 10l-2 32l4 12l-4 20l9 24 l25 11h17l12 -4l14 1l31 -8l4 -29v-42l-2 -14l3 -13l-3 -20l2 -14l2 -27v-34l-4 -15v-75l3 -14l-2 -12l3 -17l-1 -15l-3 -11l2 -19l-2 -10v-30l4 -33l-3 -12v-31l3 -16l-4 -28v-35l-2 -31l-5 -13l-10 -12l-4 -16l-9 -11l-25 -19l-25 -16l-30 -9l-28 -12l-14 1h-34l-16 5 l-12 -1l-16 7h-15l-27 14l-13 13l-11 6l-13 13l-15 22l-13 34l-2 26l-5 31l4 12v17l-3 16l2 16l-2 14l2 30l-3 15v77l2 26l-2 32l4 17l-3 14l2 27l-2 30l3 13l-4 20l2 14v31l2 25l-2 16v46l4 32l30 2h26z"/>
<glyph glyph-name="V" horiz-adv-x="477" unicode="V" d="M137 698l7 -28l3 -18l6 -9l4 -32l6 -29l9 -31l7 -29l2 -31l4 -13l10 -30l5 -27l5 -13l-1 -15l5 -20l5 -12l2 -15l4 -13l4 -34l8 -27l3 -18l7 3l4 32l3 13l6 12l3 20l4 26l9 27l5 31l5 16l7 26v20l7 14v16l5 9l5 35l6 11v19l7 30l6 29l5 13l2 16l9 20l46 9l18 -6h26l7 -12 v-23l-4 -17v-14l-7 -30l-7 -17l-2 -14l-4 -11l-1 -16l-5 -31l-6 -26l-10 -29v-14l-11 -33v-14l-6 -17l-1 -15l-3 -13l-5 -27l-10 -32l-3 -28l-7 -15l-5 -26l-5 -33l-6 -12v-13l-7 -15l-1 -14l-6 -34l-6 -25l-2 -18l-7 -13l-11 -38l-29 -9l-14 4l-17 -5l-16 5h-26l-10 25v17 l-6 14l-1 13l-6 29l-11 34l1 15l-6 12v12l-7 34l-6 10l-2 21l-6 29l-9 28l-3 27l-7 12l-5 35l-7 25v18l-3 11l-8 17l-1 11l-8 34v16l-8 9v20l-8 25v19l-6 24l-7 19l-1 12l-9 27l-2 30l10 13h26l38 4z"/>
<glyph glyph-name="W" horiz-adv-x="519" unicode="W" d="M130 692l6 -26l9 -45l-2 -13l4 -15l3 -33l4 -31l-1 -14l2 -16l2 -28l4 -16l1 -15l2 -25l4 -32v-34l7 1v18l6 12v35l4 10v19l4 12l1 16l5 16l-1 16l5 12v18l5 14v11l5 20l-2 16l6 15l1 11v19l4 25l13 30l28 4l29 -3l10 -28l5 -33l-1 -12l4 -17l7 -31l-2 -14l9 -32v-28 l5 -13v-17l6 -14v-13l5 -32l2 -27l5 -33l6 -3v36l5 13v28l7 31l2 32l2 27l2 28l7 36v45l5 14l-3 14l11 44h28l13 3l17 -5h34v-51l-4 -31l-4 -13l-2 -17l-2 -25l-6 -29l2 -15l-2 -19l-5 -16v-28l-4 -13l-2 -18l-2 -28l-6 -29v-35l-3 -11l-3 -31v-17l-4 -30l-6 -26l-2 -33 l-4 -10l2 -17l-1 -15l-5 -17v-17l-3 -15l-2 -29l-3 -31l-11 -27l-22 -5l-17 5l-14 -5l-27 8l-9 25l1 16l-4 30l-4 32l-6 12v17l-3 15v14l-6 15v29l-5 14l-3 20v29l-8 28l-1 15l-2 31l-8 26l-3 3l-5 -27v-17l-3 -19l-6 -29v-14l-4 -32l-3 -13v-14l-7 -30l1 -16l-5 -29l-6 -16 l2 -13l-2 -14l-5 -31l-5 -13l2 -17l-9 -26l-30 -6l-10 3l-16 -1l-28 4l-9 41v31l-4 15l-3 32l-5 27v27l-5 30l-3 35l-5 12v16l-2 32l-7 28v29l-3 13l-3 29l-4 32l-2 28l-6 33v33l-5 25l-5 35l2 9l-6 16v35l-3 10l5 31l30 12l15 -2l11 -4z"/>
<glyph glyph-name="X" horiz-adv-x="466" unicode="X" d="M154 695l12 -24l5 -9l3 -19l6 -16l9 -10l4 -18l11 -29l12 -28l10 -24l10 1l7 11l4 15l7 16l8 12l6 15l9 27l7 13l8 34l10 11l9 20l28 8l28 -3l14 3l32 -9l6 -11l-12 -44l-5 -9l-6 -18l-12 -26l-4 -13l-8 -11l-8 -31l-10 -28l-11 -26l-11 -32l-5 -8l-5 -14l-10 -18l-5 -14 l-2 -13l-6 -15v-25l10 -28l12 -26l7 -29l10 -12l1 -15l10 -12l2 -20l7 -10l6 -16l9 -28l8 -13l3 -12l7 -11l7 -16l2 -14l14 -29l3 -28l-6 -14l-31 -7l-15 3h-13l-40 3l-10 24l-9 11l-2 20l-12 25l-5 18l-10 12l-2 11l-9 17l-8 32l-9 9l-8 3l-5 -15l-8 -14l-10 -26l-13 -29 l-2 -18l-15 -30l-8 -28l-14 -24l-26 -4l-14 2h-17l-43 5l-9 12l11 27l2 16l7 17l3 13l16 25v17l12 26l11 31l7 8l5 18l8 12l6 25l9 16l5 17l6 11l3 14l6 12l8 41l-6 17l-13 24l-7 19l-7 24l-9 15l-7 25l-12 33l-6 8l-5 16l-8 17l-2 12l-10 25l-9 18l-4 15l-11 26l-7 29l7 13 h28l32 -2h41z"/>
<glyph glyph-name="Y" horiz-adv-x="430" unicode="Y" d="M48 682l10 10l29 4l17 6l15 -4h29l12 -29l1 -10l7 -17l6 -26l11 -35l2 -13l8 -14l4 -14v-15l9 -11v-20l11 4l6 14l5 26l9 14v18l8 15v15l6 13l8 31l23 53h27l13 5l21 -6h26l10 -13l-6 -27l-5 -25l-11 -29l-8 -30l-7 -14l-5 -29l-9 -33l-5 -8l-3 -20l-7 -11l-5 -16l-1 -11 l-9 -28l-8 -31l-6 -11l-3 -15l-7 -17l-9 -43l4 -15l-4 -12l1 -16l3 -14l-4 -19l4 -14l-4 -15l1 -15l2 -13v-31l-3 -28l4 -12v-17l-3 -17l3 -12l-5 -30l-32 -7l-11 3l-15 -2l-43 9l-6 23v34l-2 30l4 15l-4 27l4 32v24l-3 20l3 15l-4 25l2 30l-3 34l-6 9l-2 15l-8 15v17 l-10 28l-11 29v14l-7 9l-6 20l-6 28l-5 14l-9 27l-13 42l-1 14l-7 13l-6 17v14l-6 14z"/>
<glyph glyph-name="Z" horiz-adv-x="395" unicode="Z" d="M56 596l-6 30v14l-3 10v17l6 24l48 10l30 -5l29 6l15 -5l18 4l31 -3l16 1l13 3h29l15 -6l19 5l26 -8l9 -44l-4 -15l4 -12v-32l-7 -16l-9 -33l-9 -9l-5 -17l-8 -30l-7 -11l-3 -17l-8 -14l-12 -26l-1 -13l-15 -27l-7 -29l-14 -25l-2 -18l-7 -14l-12 -25l-5 -15l-2 -17 l-6 -12l-12 -28l-10 -29l-8 -13l-3 -15l-6 -16l9 -12l17 2l27 -3h17l15 -2l11 3h16l14 -3l15 6l28 -6l6 -29l3 -33l-5 -42l-31 -2h-17l-31 -4l-12 4l-16 2l-19 -5l-12 4l-31 -4l-17 3h-15l-28 2l-18 -6l-46 11l-2 29l-4 30v25l4 19l12 33l1 14l15 28l1 12l7 11l4 15l14 33 l1 11l9 14l3 14l10 27l13 30l9 28l13 24l4 14l10 29l8 31l20 38l8 29l13 27l-9 16h-90l-12 4l-30 -3z"/>
<glyph glyph-name="bracketleft" horiz-adv-x="350" unicode="[" d="M259 754l4 -26l2 -17l-2 -12l4 -18l-7 -27l-32 -8l-26 2l-18 -12v-17l2 -12l-3 -16l3 -19l-3 -12l2 -19l-3 -13l3 -11v-47l-3 -17v-16l3 -25v-32l-3 -33l2 -13l-1 -14l3 -14v-16l-3 -19v-44l2 -13l-3 -15l2 -32v-29l2 -32l-4 -14l2 -27l14 -17l27 4l13 -5l35 -6v-42 l2 -10v-14l-8 -31l-26 -8l-14 5l-16 -3l-13 4l-30 -2l-13 -4l-19 3l-13 -1l-45 10l-6 24l3 16v45l-3 15l3 34l-3 13l2 31l-2 10l4 36l-2 27l1 15l-2 12l3 20l-2 15l1 13l-3 18l4 15v25l-3 34l2 11v20l-2 27l2 13l-2 15l2 17l-3 30l4 27l-2 21l2 9l-4 17v15l4 33l-3 13v58 l3 17l-4 14l8 34h31l12 3h16l16 -4l17 3l11 -2l16 5l14 -3z"/>
<glyph glyph-name="backslash" horiz-adv-x="247" unicode="\" d="M95 697l8 -29l3 -12l5 -34l6 -29l1 -13l6 -17l-1 -13l2 -13l9 -32l1 -15l2 -23l4 -21l4 -10l3 -18l5 -24l2 -21l6 -26l-1 -16l6 -15l-2 -16l4 -11l4 -31l6 -11l-2 -19l5 -13v-12l4 -15l6 -32v-15l6 -11l3 -34l5 -10v-21l7 -26l-2 -32l-32 -10l-26 4l-11 31l-2 14l-5 26 l-6 28l-3 34l-6 12v19l-2 9l-3 30l-5 14v15l-8 32v13l-5 16l-11 55l-4 36l-4 28l-4 26l-4 27l-5 16v18l-4 14l-3 29l-6 13v19l-4 13l-5 28v13l-4 14v52l32 7z"/>
<glyph glyph-name="bracketright" horiz-adv-x="350" unicode="]" d="M268 757l6 -35l1 -11l-3 -29l4 -32l-3 -13v-35l3 -12l-4 -32l2 -14v-18l2 -30l-4 -30v-14l4 -13v-46l-2 -14l2 -29l-4 -30l2 -31v-73l2 -20l-3 -12l2 -12l-3 -15v-50l4 -10v-32l-2 -33l2 -27v-19l-5 -40l-32 -9l-16 1l-10 3l-16 -5l-16 2l-15 -2l-12 1l-17 5l-15 -5 l-11 4l-29 2l-6 28v27l-2 14l6 30l30 4h14l10 6l17 -6l13 19l2 17l-2 15l2 26l-2 32l-2 12l2 16l-1 13l3 33l-4 17v26l2 33v31l2 16l-2 10v62l-2 31l3 17v26l-3 18l1 11l2 30v33l-3 14l4 33l-15 12l-16 -3l-18 2l-28 8l-7 28l2 26l-2 17l9 29l27 5l15 -3h30l31 -2l15 4 l16 -3h43z"/>
<glyph glyph-name="asciicircum" horiz-adv-x="421" unicode="^" d="M267 692l8 -23l5 -32l8 -26l2 -20l-1 -14l3 -13l6 -30l4 -28l6 -20l4 -24l2 -32l3 -19l4 -11l1 -13l7 -30v-21l5 -13l3 -27v-37l-30 -3l-30 2l-7 26l-8 34l1 13l-6 15v17l-9 26l-4 34l-6 13l-3 28l-5 19v14l-9 28l-5 31l-5 14l-3 -1l-6 -12l-3 -36l-5 -10l-3 -17v-15 l-5 -16l-1 -15l-9 -31l-5 -28l-6 -32l-5 -10v-19l-4 -13l-5 -29l-11 -30h-52l-5 9v43l4 14v20l2 10l6 33l5 14l-1 15l5 15l3 29l6 14v19l8 30v15l3 14l7 12v34l6 11v19l7 28l12 40l26 6l12 -2h48z"/>
<glyph glyph-name="underscore" horiz-adv-x="220" unicode="_" d="M210 -17l4 -35l-6 -50h-73l-31 -4l-16 5l-32 -5l-16 1l-32 10l-5 30v17l5 33l30 3h19l13 2l15 -5l15 3l17 -2l32 3l17 -5l13 6z"/>
<glyph glyph-name="grave" horiz-adv-x="310" unicode="`" d="M181 855l14 -17l4 -15l7 -16l16 -38l-9 -12l-24 -11l-19 6l-29 24l-27 26l-26 34l5 17l52 7l16 -5h20z"/>
<glyph glyph-name="a" horiz-adv-x="426" unicode="a" d="M245 187l-2 18l-1 11l-6 18l-1 15v18l-8 27l1 14l-5 15v18l-8 27l2 17l-6 1l-4 -32l-6 -12l-1 -15l-3 -30l-6 -35l-1 -15l-8 -26v-19l-4 -11l15 -16l12 1h27zM263 696l5 -30l2 -14l5 -10l1 -14l8 -15v-34l4 -15l-1 -9l7 -15l-2 -15l5 -14l1 -16l7 -32l4 -30l4 -10l2 -17 l2 -31l8 -29l5 -26l-1 -15l3 -14l7 -32l6 -27l-2 -20l6 -10l3 -18l-2 -14l7 -12v-17l5 -32l7 -24l-1 -16l4 -28v-37l-34 -3l-29 -5l-30 5l-11 29v18l-17 18h-46l-13 -3l-18 3l-16 -13v-18l-9 -32l-33 -5l-16 4l-12 -6l-35 11l-3 35l7 24v17l6 17l-2 15l2 14l8 27v17l5 11 l4 16l-2 14l8 31v16l4 26l7 29l1 14l9 31v18l4 23l4 33l5 32l4 8v18l4 17l1 15l5 9l2 21l4 26l4 14v12l3 17l5 14l2 18l-1 15l13 27l26 3l11 -4h16l14 4z"/>
<glyph glyph-name="b" horiz-adv-x="465" unicode="b" d="M263 111l14 9l11 8l5 14l9 12l-2 19l4 16l2 27l-9 29l-2 15l-19 28l-12 6l-30 -2h-31l-21 -13l3 -13l-2 -15l3 -17l-3 -14l3 -15v-32l-3 -18l1 -13v-17l15 -16l20 3l12 -1h32zM264 404l15 6l9 11l13 28l3 29v30l-4 21v10l-14 33l-24 14h-28l-33 3l-18 -12v-18l3 -15v-19 l-4 -11l2 -32v-30l2 -33l14 -13l19 -4l14 5zM266 696l13 3l18 -5l14 -7l11 -8l16 -8l12 -9l8 -12l22 -21l14 -26l10 -30l5 -29l7 -32v-33l-2 -14l-4 -26l-5 -15v-14l-7 -11l-5 -17l-14 -20v-26l14 -26l4 -17l9 -16v-11l8 -36v-43l-5 -29l-7 -31v-20l-9 -10l-8 -16l-16 -22 l-7 -17l-15 -6l-22 -16l-18 -8l-28 -8l-44 -3l-16 1l-15 -3l-16 2h-34l-12 -3l-15 4l-17 -4l-32 8l-4 28v45l-2 12v76l3 35v26l-3 19v14l4 25l-3 18v18l3 15v28l-4 15v17l4 10v18l-4 14l1 14v61l1 13v32l2 13v34l-4 16l2 25l7 45l42 8h35l13 -3l17 5l13 -5l35 5z"/>
<glyph glyph-name="c" horiz-adv-x="440" unicode="c" d="M50 550l2 16l5 29l8 13l12 29l9 13l10 9l10 13l13 11l15 8l24 10l31 10l14 1h49l14 -3l30 -11l10 -11l25 -16l10 -15l13 -8l6 -17l16 -25l2 -10l10 -30v-53l-6 -28l-27 -3h-43l-25 3l-7 33l-3 46l-8 11l-21 21l-14 5l-31 -2l-13 -3l-9 -12l-12 -8l-3 -18l-8 -9v-46l3 -14 l-3 -21l3 -29l-3 -13l3 -29l-3 -33l3 -13v-19l-4 -10v-35l2 -27l-2 -15l2 -20l-1 -13l2 -27v-33l8 -30l12 -8l10 -12l43 -5l15 5l24 19l3 18l4 44l8 30l28 9l10 -6l28 4l33 -4l4 -36l-4 -41l-6 -32l-7 -16l-3 -13l-17 -23l-23 -28l-11 -5l-10 -8l-27 -16l-16 -4l-60 -9 l-31 6l-28 11l-13 10l-14 6l-12 14l-13 10l-17 21l-7 16l-8 9l-2 18l-6 16l-2 12l-5 14l3 30v18l-3 15l3 13l-3 15l3 12l-4 29l4 18l-2 15l2 13l-2 13l2 20l-4 27l2 13l2 33l-3 14v27l2 17v60z"/>
<glyph glyph-name="d" horiz-adv-x="541" unicode="d" d="M262 107l15 9h17l12 8l14 3l11 11l8 11l21 26l6 13l9 10l3 16l13 31l1 11l4 14l4 33v33l2 28l-2 14l-4 29l-3 33l-6 15l-2 13l-7 15l-4 16l-10 14l-16 26l-33 27l-8 11l-16 6h-16l-12 7l-46 -3l-18 5l-16 -16v-15l3 -31v-123l-4 -12v-30l2 -16l-1 -14v-135l3 -18l-3 -16 l1 -10v-31l15 -15h16l18 -3h29zM261 696l18 1l26 -2l29 -10l13 -11l14 -4l11 -8l13 -5l13 -13l10 -6l19 -25l19 -19l16 -31l11 -26l7 -9l4 -18l6 -12l5 -16l4 -25l5 -31l6 -14v-19l-2 -12l2 -18v-42l-2 -14v-17l-6 -33l-4 -24l-6 -35l-7 -8l-8 -32l-13 -28l-9 -8l-6 -13 l-18 -27l-10 -9l-25 -25l-11 -4l-9 -7l-26 -14l-28 -16l-30 -6l-14 3l-17 -7h-27l-18 3l-14 -2h-33l-11 3l-20 -5l-13 5l-16 -5l-30 12l-6 39l1 15l-2 18l3 17l-1 11l-2 32l4 29l-2 18l2 13v17l-4 11v15l3 18l-3 28l4 17l-3 10l2 19l-3 28l3 29l-3 30l3 33l-3 17l3 14v40 l-2 31v34l2 26l-3 30l9 50l30 5l30 -6l17 2l13 4l15 -6h29l16 3z"/>
<glyph glyph-name="e" horiz-adv-x="439" unicode="e" d="M371 695l5 -29l3 -18l-2 -8l3 -17l-5 -26l-31 -8l-16 -2l-11 5h-16l-29 -6l-17 2h-43l-11 -2l-15 -10v-76l-4 -16l3 -17v-46l13 -16l16 -3h15l11 4l29 -5l16 5h59l33 -7v-43l3 -15l-1 -15l-7 -29l-43 -6l-15 5l-16 -4l-10 5h-15l-16 -5l-14 -1l-31 5l-15 -3l-12 -16v-27 l-3 -17l4 -19v-11l-3 -33l3 -33l-4 -11l17 -15l13 -2l16 3l13 -4h44l28 3l16 -5l17 6l29 -10l4 -43l-2 -14l3 -14l-9 -29h-26l-33 -5h-44l-14 4l-26 -2l-16 3h-16l-16 -4l-11 1l-17 -3h-15l-13 5l-13 -1l-29 3l-9 33l3 13v14l-4 18l4 10v51l-3 28v74l3 12v33l-4 13l4 14 l-3 31l2 33v30l-3 14l2 31l2 30l-3 16l2 16l-3 13l3 15l1 13v60l-3 19v25l6 33l29 5l15 -3l14 3l31 -4l15 4l13 -4l15 4l32 -3l11 5l15 -4l17 -2l13 4l14 -1l14 3z"/>
<glyph glyph-name="f" horiz-adv-x="369" unicode="f" d="M312 694l8 -28l-3 -14v-18l3 -13l-7 -24l-27 -10l-17 3l-14 -4l-14 1l-16 5l-14 -1l-12 -3l-16 -14v-17l3 -32l-4 -11l3 -14v-20l-3 -17v-46l19 -12l14 -4l25 4h18l11 -6h42l7 -30l-1 -16l2 -13l-1 -12l-7 -26l-26 -8l-16 -3l-12 6l-14 -3l-31 2l-27 -14v-188l-3 -28 l3 -30l-6 -30l-45 -10l-10 6l-16 -6l-26 7l-6 34l-2 25v65l-2 10l3 31l-2 16l2 13l-2 31l2 16l-3 15l3 31l-1 13l2 14l-3 15v46l3 19v57l-2 12v33l-2 28l4 29v66l-4 11l1 16l8 45l29 6l16 -1l26 -3l16 4h15l41 -3l15 5l16 -5l15 4h16z"/>
<glyph glyph-name="g" horiz-adv-x="466" unicode="g" d="M43 547l2 17l8 16v17l6 14l8 10l6 15l22 27l19 19l27 9l16 8l16 2l30 9l16 -2l30 3l31 -5l30 -6l29 -10l11 -11l22 -21l21 -22l8 -14l13 -30l2 -17l2 -12v-43l4 -19l-9 -24l-28 -11l-15 -1l-11 6h-43l-6 31l2 13l-6 47l-6 15l-10 11l-12 7l-14 4l-15 -1l-32 3l-13 -4 l-28 -10l-17 -24l-3 -16l-4 -44l3 -16l-3 -31l4 -14v-49l-4 -30l2 -16l-2 -27v-34l3 -13l-3 -13v-16l4 -15l-2 -33v-44l2 -13l19 -27l13 -8l32 -7l26 -2l15 7l15 2l14 7l13 13l6 26v31l3 12l-4 17l2 11v17l-16 15l-12 -2l-45 4l-5 30v26l8 46l43 7l30 -4l14 4l12 -1l15 -4 h34l29 -5l4 -23l-3 -20v-12l3 -29v-19l-3 -25l4 -16l-5 -14v-76l-10 -28l-16 -29l-19 -26l-24 -17l-26 -13l-27 -9l-45 -13l-33 2l-32 3l-11 6l-32 8l-12 9l-13 4l-26 20l-27 39l-3 12l-13 33l-1 12l-5 15v60l4 28l-2 33l2 15l-4 16l4 27l-4 32l4 15l-4 12l3 33l-2 13l3 10 v20l-4 14l4 15l-3 16l3 15z"/>
<glyph glyph-name="h" horiz-adv-x="456" unicode="h" d="M178 694l5 -27l2 -33l-3 -15l1 -15v-33l3 -15l-3 -26l2 -28l-3 -21l3 -29l-3 -13l2 -17l-2 -30l19 -15l12 -1l13 6l16 -2l14 -4l12 15l3 18l-3 15l3 28l-3 15l4 35l-4 9v18l3 18v43l-1 14l2 18l-2 11v31l6 32l42 6l15 -4l14 4l28 -9l3 -30l4 -17l-3 -15l1 -14l-2 -28 l1 -12v-92l3 -13l-4 -15l3 -21l-2 -10v-63l2 -27l-3 -19v-134l4 -32l-3 -30v-60l3 -28l-9 -29l-43 -8l-14 6h-13l-28 5l-6 41l3 16l-2 31l2 14l-4 10l2 15l-2 17l4 32l-3 16l1 9v20l2 9v15l-18 17l-12 1l-13 -4l-32 4l-14 -13l-1 -15l3 -16l-3 -18l4 -15v-43l-2 -16l2 -29 l-3 -9v-62l-5 -32l-43 -3l-14 1l-42 6l-5 28l2 18l-4 29l4 13l-3 12l3 17v15l-4 31l4 32v76l-3 24v21l3 10l-4 32l2 14l-2 31l4 15l-3 15l2 31l-3 13l4 33l-3 30v27l3 33l-3 16l3 10v33l5 26l29 9h14l27 -4z"/>
<glyph glyph-name="i" d="M177 696l6 -32l3 -28v-35l-2 -9v-31l-2 -19l4 -26l-3 -20v-84l3 -31l-4 -14l3 -35v-29l-1 -11v-19l-2 -11v-21l3 -10v-47l-3 -30l3 -12v-18l-3 -27l4 -35l-3 -10v-17l-6 -27l-25 -9l-16 1l-12 -2l-14 1l-31 6l-7 29l4 27l-2 17v62l-2 15l2 14l-2 13l4 15l-3 16v34l1 10 v65l2 11v15l-3 18v59l3 12l-2 16l2 19l-4 27v32l3 16l-1 12l2 15l-4 18l3 11l-3 16v48l7 30l31 4l10 -3l16 4z" unicode="i"/>
<glyph glyph-name="j" horiz-adv-x="382" unicode="j" d="M316 694l5 -29l1 -13l-3 -15l4 -20l-2 -25l2 -30l-3 -16l3 -14v-31l-4 -28l3 -19l-2 -24l3 -14v-31l-4 -16l2 -27v-17l-2 -30l2 -17v-69l-2 -20v-71l-6 -32l-5 -13l-12 -28l-12 -13l-9 -5l-11 -12l-15 -7l-10 -9l-17 -6l-11 1l-14 -9h-32l-15 3l-25 8l-16 10l-22 14 l-20 27l-16 24l-5 30l-6 14l2 14l-2 28v31l-2 30l8 42l25 3h32l13 2l28 -8l5 -28l2 -24l-2 -33l2 -12v-29l3 -19l13 -10h30l7 10l6 18v58l2 29l-3 35v29l4 16l-3 26l3 15l-4 29l3 19l-2 11l2 19l-3 13l2 11l-2 16l3 13v21l-2 13l3 12v29l-4 31l3 19l-3 25l3 17l-1 12l4 46 l32 6h13l28 -2z"/>
<glyph glyph-name="k" horiz-adv-x="477" unicode="k" d="M179 693l4 -31l3 -30l-2 -16l1 -9l-3 -18l3 -12l-3 -21l4 -9v-31l-4 -17v-30l4 -18l-2 -11l6 -3l10 13l10 26l17 29l3 15l8 8l9 13l7 15l13 30l13 21l12 31l9 15l9 11l5 14l15 22l21 -4l16 6l14 -6h32l10 -16l-12 -32l-13 -22l-14 -29l-12 -27l-8 -9l-5 -18l-14 -20 l-5 -16l-9 -14l-5 -13l-13 -27l-12 -13v-28l8 -11l3 -17l6 -12l2 -18l7 -9l5 -13l5 -35l9 -14l5 -27l7 -10l10 -33l1 -14l7 -12l4 -18l7 -14l14 -43v-9l10 -28l9 -30l5 -32l-7 -8l-28 -8l-17 3h-45l-14 44l-12 23l-1 15l-12 31l-2 13l-6 16l-8 10v18l-7 10l-7 35l-8 12 l-1 15l-7 14l-11 27l-7 5l-8 -18l-11 -21l-14 -26l-9 -43l3 -17l-3 -26l3 -47l-2 -12l2 -12v-20l-5 -39l-30 -9l-31 -2l-39 6l-8 31v17l2 16v44l-3 13v14l4 20v13l-4 12l4 14v35l-3 30l2 15l-2 25v34l1 16l-2 16l3 24v66l-3 14v26l4 14l-4 21l2 27v88l5 48l27 6l18 -5h13 l15 6z"/>
<glyph glyph-name="l" horiz-adv-x="333" unicode="l" d="M179 696l4 -32l3 -16l-4 -14l3 -13v-33l-2 -15l1 -13v-19l-2 -25l4 -15v-16l-3 -17l1 -16v-75l2 -31l-3 -24v-18l3 -32l-1 -10l-3 -34l4 -13l-2 -29v-59l16 -19l11 2l28 -4h28l29 -4l6 -40l2 -32l-6 -25l-28 -5h-18l-28 2l-13 -3l-29 3l-30 -5l-31 3h-39l-6 37v10l-3 16 l3 18l-3 14v16l2 15v25l-3 30v51l4 14l-4 27v34l4 29l-4 31l3 15l-1 13v89l2 33l-2 11l2 29l-2 18l1 15l-2 28l5 28v48l43 6l17 -4h41z"/>
<glyph glyph-name="m" horiz-adv-x="598" unicode="m" d="M175 697l12 -23l3 -19l7 -11l5 -30l10 -28l2 -13l9 -29l3 -17l6 -31l10 -28l5 -30l12 -27v-15l7 -9v-21l6 -14l6 -28l10 -29l2 -11l7 -18l7 3l7 28l2 16l4 12l6 27l12 34l1 13l6 28l8 14l3 13v18l5 9l4 15l7 14l6 29l6 33l7 12l3 14v19l5 12l10 31l16 38l26 -2l24 2 l45 -7l5 -24l2 -31l-4 -33l3 -27v-60l-3 -33l4 -15l-4 -11l4 -16l-2 -19l2 -29l-4 -31l2 -31l-2 -24v-65l1 -13v-17l2 -11l-2 -20l3 -11v-64l-3 -14l3 -11l-4 -16v-17l3 -17l-4 -29l-32 -6h-10l-16 6l-14 -5l-28 8l-6 44l2 14l-2 14l2 22l-2 13v30l2 30l-2 15v34l3 9l-2 19 l1 12v21l-2 9v19l-2 3l-4 -20l-1 -16l-7 -24v-19l-7 -10v-20l-5 -10l-5 -16v-27l-3 -17l-6 -14v-16l-6 -18v-11l-7 -31l-12 -40l-27 -6l-16 1l-29 -2l-27 10l-9 20v17l-9 28l-3 29l-6 14l-3 21l-4 13l-2 15l-3 27l-5 14l-3 17v13l-10 28v18l-4 13l-3 19l-5 -7l4 -9v-16 l-3 -18v-27l3 -19v-27l-4 -20l3 -13l-3 -19l3 -28v-30l-3 -17l3 -15l-6 -40l-29 -10l-11 2h-29l-28 6l-6 31l-2 25l4 31v47l-4 15l3 16v30l-3 30l2 10l-1 15v19l3 28l-4 13v95l3 25l-3 15v18l3 18l1 11v29l-4 20v45l3 11l-3 16l4 15l-3 16l9 47l25 4l29 -4h39z"/>
<glyph glyph-name="n" horiz-adv-x="492" unicode="n" d="M180 696l7 -24l6 -11l3 -17l9 -12v-17l11 -27l10 -27l9 -33l5 -12l1 -11l6 -16l14 -42l10 -27l3 -19l11 -27l2 -15l12 -30l1 -14h4l4 36l-3 13v63l3 24l-3 20l3 13l-4 12l3 15v36l-3 10l2 18l-2 11v36l4 27l-1 12l7 32l25 7l15 2l16 -3l11 3l28 -6l6 -31v-16l3 -31 l-3 -15l2 -11v-36l-2 -15l3 -11v-29l-4 -17v-27l4 -18l-1 -12v-21l-3 -13v-17l3 -29l-3 -11l3 -32l-1 -13l2 -14l-1 -16v-75l-3 -20l4 -28l-2 -11l2 -19l-3 -16l1 -13l-2 -13l4 -16l-5 -15v-29l-31 -5h-14l-17 -5l-12 1l-28 8l-17 38l-7 29l-7 25l-7 12l-3 17l-6 12l-4 19 l-5 13l-3 15l-11 27l-9 26l-7 27l-8 31l-8 14l-5 27l-6 17l-6 11l-3 18l-6 -2l3 -17l-4 -14l3 -13v-46l-3 -29l4 -31l-4 -16l2 -17l-2 -11l4 -17l-2 -12l2 -19l-4 -27v-49l3 -25l-5 -36h-31l-14 -3h-28l-31 5v47l-3 13l2 13v93l-3 26v36l2 10v17l2 16l-3 30v17l2 28l-2 14 l2 28l-3 35l2 15v70l-2 33l3 27l-3 14v32l4 33l-4 15l7 31l30 5l12 -1l18 -5l12 6z"/>
<glyph glyph-name="o" horiz-adv-x="445" unicode="o" d="M170 132l6 -12l12 -14l16 -4l30 -3l12 4l15 9l7 7l8 15v26l-4 20l3 30l-2 12l2 17l-3 28l3 27v34l-2 11v34l3 28l-4 10l2 21l-1 12l3 29l-2 31v32l-5 38l-7 14l-13 10l-12 4h-27l-14 -10l-20 -14l-6 -15v-29l-2 -13l1 -15l-2 -29l3 -21l-1 -9l2 -19l-3 -13l2 -27l-2 -18 l3 -12l-2 -14v-35l2 -11l-3 -33l1 -13l-2 -31l4 -28l-1 -14v-47zM62 563l1 14l7 30l6 13l10 13l6 16l7 10l14 7l9 11l14 10l28 15h15l11 7l16 5l45 -5l17 -5l14 -1l28 -17l23 -17l9 -14l11 -9l5 -11l10 -15l4 -15l10 -24v-47l3 -13v-20l-3 -29l4 -11v-19l-4 -26l4 -19 l-4 -30l3 -13l-3 -14l4 -11v-48l-4 -11l4 -17v-74l-3 -15l2 -33l-7 -26l-11 -26l-15 -29l-8 -10l-23 -19l-12 -13l-41 -12l-33 -11l-27 7h-32l-15 7l-27 12l-22 17l-22 20l-12 25l-15 32l-4 25v34l2 11l-3 21v26l2 32l-3 14l2 10l-2 19v30l3 14l-1 11v65l2 9l-3 18l2 13 l-1 16v18l-2 10v15z"/>
<glyph glyph-name="p" horiz-adv-x="433" unicode="p" d="M256 410l13 2l15 25l8 33l-2 13v45l-2 13l-5 10l-4 19l-9 5l-12 12h-29l-16 4l-12 -2l-18 -13l3 -20l-4 -13v-15l4 -34l-2 -15l2 -14l-4 -17v-31l16 -14h18zM261 697l13 1l12 -6l16 -5l12 -9l38 -23l10 -16l12 -27l10 -14l2 -12l7 -11l4 -19l5 -28l-2 -19l3 -31l-1 -10 l-5 -33l-6 -12l-2 -16l-8 -12l-2 -19l-9 -14l-9 -7l-11 -17l-10 -10l-25 -15l-27 -13l-12 -2h-19l-29 -5h-31l-13 -16l2 -27l-2 -19v-25l2 -31l-4 -33l4 -17l-3 -11v-21l3 -14l-4 -13l2 -18l-3 -46l-29 -5l-16 -1l-13 1h-17l-24 6l-8 31l2 17v28l-4 18l3 27l-3 17l4 11 l-2 29v35l-2 12v32l4 32l-1 13v30l-3 12l3 19v121l-1 11v18l-2 25l3 20v13l-3 17l4 25l-3 18l3 13l-1 16l4 31l30 2l13 5h31l31 -2l13 -3l17 5z"/>
<glyph glyph-name="q" horiz-adv-x="516" unicode="q" d="M171 163l5 -12l2 -11l13 -18l23 -16l13 -6l16 1l26 -4l17 4l14 7l27 15l9 15l9 27l-2 31l4 16l-4 13v51l4 13v60l-3 18l3 15v10l-4 16v34l3 26v65l-9 26l-13 12l-21 24l-13 6h-50l-25 -12l-17 -2l-7 -14l-13 -9l-5 -19l-5 -46l2 -15v-32l-3 -9l4 -22l-4 -12l3 -15l-1 -15 l2 -13l-4 -15v-75l4 -16v-35l-3 -15l3 -15v-32zM62 529l-3 14l5 18l10 29l11 27l7 11l18 25l22 15l24 21l28 12l13 -1l16 6l29 6l30 -4l17 2l15 -4l28 -10l26 -7l22 -21l14 -5l11 -10l17 -23l8 -17l13 -24l9 -26v-16l5 -44l-2 -21l2 -15l-4 -27l3 -34v-42l-2 -19v-90l3 -28 l-4 -16l3 -13l-3 -48l-4 -25l-8 -16l4 -29l10 -9l5 -13l17 -19l13 -30l-33 -26l-18 -19l-29 -13l-22 20l-11 15l-7 16l-25 6l-14 -6l-12 -8l-18 -2l-28 -2l-43 -4l-15 7l-15 1l-15 9l-12 -1l-16 12l-12 3l-22 21l-14 7l-14 23l-11 11l-8 18l-9 27l-7 27l2 15l-4 46l3 27 l-4 19l2 17v28l-1 16v46l2 13v29l-2 30l3 19l-4 11l5 15v47z"/>
<glyph glyph-name="r" horiz-adv-x="471" unicode="r" d="M269 408l12 8l8 12l7 24l8 31v25l-6 19l-4 27l-8 15l-18 19h-43l-26 -2l-17 -14l4 -16v-15l-3 -11l3 -36l-4 -15v-31l4 -15l-2 -11l15 -18l27 3l12 -2zM267 700l17 -7h12l18 -6l22 -17l15 -4l9 -15l12 -9l16 -26l2 -14l8 -17l9 -27v-17l7 -26l-4 -31v-35l-5 -11l-7 -31 l-5 -9l-9 -26l-18 -24l-2 -23l14 -8l8 -11l9 -32l8 -25l-4 -31l4 -30l-2 -13l2 -17l-3 -14l-1 -16l6 -19v-95l-4 -8l-30 -8l-11 1l-15 -3h-14l-22 6l-13 17l-5 35l3 13l-5 29l4 20l-3 29l3 28l-3 31l1 16v28l-16 32l-18 10l-56 4l-18 -15l1 -16l-2 -16v-62l2 -13v-33l-2 -12 l2 -18l-2 -13l4 -15v-34l-7 -42l-27 -9l-15 6l-28 -5l-28 5l-8 31v47l2 27l-3 15v14l4 19l-4 26l3 18l-2 13l3 34l-3 26l2 20l-3 9l4 32l-4 14v107l2 28l-2 29l4 15v20l-4 27l3 19l-2 27l2 13v18l-3 14l8 33l44 5l13 -3l15 2h30l12 -5l17 3l15 -2z"/>
<glyph glyph-name="s" horiz-adv-x="410" unicode="s" d="M258 472l-4 27v47l-5 14v19l-14 24l-14 7h-34l-11 -7l-8 -15l-8 -9l-4 -19v-76l9 -14l4 -13l12 -9l10 -14l11 -6l7 -12l36 -25l11 -13l11 -8l10 -12l13 -11l20 -20l18 -27l10 -11l13 -28l5 -21l10 -31v-30l-2 -26l-6 -31l-3 -31l-13 -30l-13 -23l-13 -12l-9 -13l-14 -2 l-29 -17l-28 -7h-64l-14 7l-12 -3l-15 11l-15 5l-22 14l-18 22l-6 12l-13 34l-9 30l2 17l-4 13l-1 15v41l4 23l28 10h31l13 -5l29 -3l7 -30l-3 -16v-28l4 -16v-20l7 -13l8 -8l17 -7h27l16 6l8 10l5 16l8 10l-3 20l4 24l-2 31l-10 13l-14 28l-9 12l-14 13l-19 23l-24 12 l-10 13l-24 16l-21 23l-10 18l-20 21l-5 14l-10 16l-13 26v16l-7 16v30l3 15l-2 11l5 34l5 16l1 14l8 17l12 25l15 23l11 11l16 4l12 10l12 6l16 2h19l14 7l47 -7h27l31 -15l11 -10l21 -18l8 -13l11 -31l11 -26l2 -32l6 -32l-3 -9v-30l-2 -21l-32 -10l-11 4l-15 -4l-13 2z "/>
<glyph glyph-name="t" horiz-adv-x="380" unicode="t" d="M333 695l6 -30v-29l-7 -44l-30 -3l-14 3l-12 -1l-16 -5l-17 -13l3 -27v-35l-4 -30v-56l3 -19v-57l-3 -13l3 -16l-3 -18l4 -14l-4 -17l2 -14v-27l2 -30l-3 -17l2 -27v-33l-3 -17l3 -11l1 -14l-2 -14v-36l-3 -27l-30 -6h-17l-10 4l-17 -2l-27 2l-8 30l2 14v34l-2 11l4 30 l-2 21l1 12l-3 15l4 27v21l-3 15l3 14l-3 13l2 29l-3 18l2 11l-1 15l2 29v93l-2 30l2 12l-3 16v33l3 14l-3 17l-15 12l-14 -2l-16 5l-12 -5l-32 10l-4 29l2 12l-3 11v19l7 24l46 9l16 -3h29l31 5h31l15 -5l14 3l18 -3h29l31 5z"/>
<glyph glyph-name="u" horiz-adv-x="454" unicode="u" d="M178 693l4 -32l2 -15v-44l-2 -11l4 -17l-3 -14l3 -18v-28l-3 -18l3 -9v-31l-4 -19l4 -28v-31l-3 -18l2 -24l-3 -21l4 -9v-51l-2 -26v-33l2 -28l-4 -32l7 -26l12 -4l10 -6h27l26 12l6 27l-4 16l3 13v29l-3 17l4 11l-4 15v48l2 16l-2 30l2 14v17l2 30l-4 28l3 17v42l-2 19 l2 13v18l-2 26l2 15v19l-3 29v29l4 13l5 31l39 7l17 -5l12 2l33 -3v-47l4 -16v-14l-4 -31v-61l2 -9l-2 -20l4 -30l-3 -12v-34l3 -30l-4 -12v-17l3 -12v-20l-3 -30l3 -27v-32l-3 -16l4 -12l-2 -13l2 -18l-2 -16l2 -11l-2 -18v-33l-4 -8l-5 -21l-13 -24l-20 -20l-8 -13l-16 -6 l-26 -15l-16 -2l-15 -7l-44 -3l-13 6l-15 -1l-14 5l-27 14l-13 13l-14 6l-10 15l-10 6l-14 29l-5 27l-4 32v47l4 12v18l-3 15v57l3 17l-3 17l2 14l-3 30l2 11l-1 16l3 35l-2 14l2 13l-3 17l2 14v27l-3 15l4 36l-4 28l4 17l-1 14v26l-3 20l9 26l25 9l30 -4l16 3z"/>
<glyph glyph-name="v" horiz-adv-x="437" unicode="v" d="M134 693l12 -25l-1 -12l3 -14l7 -14l1 -16l4 -15v-13l7 -30l9 -33l3 -27l5 -30l5 -13l2 -19l5 -13v-11l3 -17l6 -12v-20l7 -26l2 -16l6 -1l5 30l10 33l2 13l4 11l6 34l1 15l5 9l3 34l6 15l-1 13l4 18l6 9l-1 16l8 16v17l4 25l6 34l13 35l28 3l20 6l15 -5h30l8 -13l-2 -26 l-6 -30l-6 -14l-2 -31l-6 -10v-18l-2 -11l-6 -16l-3 -17l1 -10l-3 -21l-6 -12l-2 -11v-17l-5 -17l-1 -11l-5 -19l-5 -10l2 -20l-7 -13l-3 -30l-3 -9l-4 -29l-6 -20l-7 -30l2 -15l-7 -9l1 -15l-3 -19l-8 -10v-35l-7 -10l1 -13l-4 -18l-5 -11l-4 -33l-13 -40l-26 -7l-17 4 l-13 -2l-42 6l-12 27l-1 11l-5 13l-6 33l-2 31l-7 11l1 16l-5 14l-4 29l-8 28v19l-5 10l-5 15v20l-4 8v20l-6 10l-3 16l-6 30v13l-6 15l1 16l-7 14v16l-3 17l-5 11v14l-6 14l-2 14v20l-8 29l-7 29l2 12l-3 15l-6 12v18l-5 17l-2 27l9 9h26l19 2z"/>
<glyph glyph-name="w" horiz-adv-x="609" unicode="w" d="M167 694l7 -30v-26l3 -18l-2 -14l3 -15v-30l4 -17l-2 -18l2 -25l5 -34v-29l4 -33v-15l2 -11v-34l3 -13l3 -2l3 20l9 28v29l6 11l2 20l4 12l-1 16l5 11l1 14l6 17l5 32v11l10 28v14l4 15l5 32l5 12v20l12 25h58l13 -42l7 -27l4 -34l4 -11l1 -15l5 -15l4 -31l5 -27l7 -17 l5 -27l6 -32v-12l7 -28v-17l9 -29l5 -3l-3 21l4 9l3 31l-2 17l2 12v18l6 30v61l4 14l-2 18l3 11v20l5 31l-2 28l12 42l30 9l14 -5l17 3l33 -7l7 -33l-9 -31v-28l-4 -16l2 -12l-3 -29l-5 -34l-3 -29v-18l-3 -12l-5 -28l-2 -33l-4 -30v-12l-5 -31l-2 -30l-3 -30l-4 -27l-4 -36 l-7 -29l1 -16l-4 -24v-21l-6 -29l2 -16l-3 -12l-11 -40l-28 -10h-29l-26 9l-11 42l-6 27l-5 30l-1 16l-6 32l-5 9l-5 16l-2 16l-3 28l-6 19l1 12l-7 14l-5 34l-3 28l-5 14l-7 35h-6l-2 -21l-3 -26l-7 -17v-17l-5 -9v-18l-6 -17l-3 -15l-4 -29l-8 -32l-5 -25v-18l-5 -29 l-7 -18l1 -9l-4 -18l-5 -13l-2 -19l-11 -24l-24 -4h-31l-22 7l-12 28l-4 25l2 18l-3 32l-4 12l1 12l-5 20l1 12l-7 30l2 15l-5 14l2 17l-7 13v33l-4 16l-2 12v28l-7 50l-4 29l2 15l-2 13l-5 13l-2 20l2 11l-7 30v29l-6 15l2 18l-5 13l2 13l-5 21l-1 12v48l33 8l21 -4l13 2z "/>
<glyph glyph-name="x" horiz-adv-x="446" unicode="x" d="M155 696l11 -27l8 -10l8 -28l13 -34l1 -15l9 -10l2 -16l11 -27l9 1l6 11l10 28l2 14l9 15l7 33l7 10l5 17l2 14l15 26h41l48 -5l8 -9l-8 -30l-8 -28l-6 -12l-10 -33l-9 -27l-9 -14l-2 -14l-6 -12l-3 -12l-7 -14l-6 -18l-3 -16l-6 -15l-12 -25l-2 -16l-13 -27v-26l9 -17 l1 -15l14 -24l5 -29l6 -14l9 -28l9 -15l6 -29l8 -19l6 -27l11 -27l4 -17l4 -9l13 -31l4 -26l-7 -12l-42 -10l-13 1l-25 8l-12 23l-5 15l-8 27l-12 28l-11 26l-8 29l-9 24l-9 16l-9 1l-6 -16l-1 -13l-11 -27l-7 -13l-4 -15l-12 -30l-10 -23l-9 -31l-9 -24l-27 -3l-25 -2 l-30 7l-5 12l3 29l9 27l8 11l1 15l6 19l6 11l11 32l1 14l14 26l1 16l8 10l2 20l11 24l10 32l10 24l4 20l-2 27l-8 30l-8 23l-10 29l-8 13l-2 15l-14 29l-1 13l-10 30l-13 27l-2 13l-9 16l-1 14l-12 28l-7 29l7 15l33 4l17 -5l16 5z"/>
<glyph glyph-name="y" horiz-adv-x="460" unicode="y" d="M140 695l12 -24l5 -15l12 -24v-21l6 -8l6 -15l1 -16l12 -28l2 -19l8 -14l1 -10l6 -20l8 -29l6 -14h8l10 34l6 10l7 32l9 30l8 29l8 15v14l13 30l1 14l4 15l9 11l8 29h45l17 -5h29l10 -8l-14 -60l-8 -30l-9 -16v-10l-13 -33l-1 -13l-7 -18l-10 -25l-16 -62l-5 -9l-3 -18 l-8 -11v-19l-7 -13l-7 -29l-8 -16l-2 -16l-4 -9l-10 -49l-3 -41l2 -16v-82l2 -9l-3 -20l3 -26l-8 -33l-28 -3l-13 -5l-16 5l-39 3l-7 32l1 15l-2 15l2 32l-3 10l3 35l-4 16l3 28l-2 14l2 33l-3 32l-6 14l-10 25l-2 19l-12 23l-8 34l-6 10l-2 14l-8 30l-8 15l-5 19l-5 10 l-5 29l-6 13l-3 21l-12 28l-6 29l-12 30l-10 24l-5 34l13 11l27 -3l15 4l18 2z"/>
<glyph glyph-name="z" horiz-adv-x="390" unicode="z" d="M325 696l5 -32v-56l-5 -34l-6 -13l-3 -20l-5 -14l-7 -9l-3 -18l-5 -12l-10 -34l-9 -25l-7 -32l-5 -13l-9 -31l-8 -29l-11 -25l-2 -13l-9 -16l-5 -30l-8 -12l-8 -34l-9 -24l-6 -30l-9 -14l13 -14l14 -1h45l13 -5l15 6l16 -1l29 -5l5 -32l-4 -26v-13l-5 -33l-44 -4l-13 4 l-19 -3l-15 2l-29 -4l-13 3l-20 -3l-13 2l-29 2l-15 -4h-18l-29 7l-7 30v17l2 25l-2 14l5 17v19l4 14l10 26l13 33l7 28l6 13l1 16l13 32v14l13 28l6 30l8 10l8 34l1 13l8 16l2 10l11 33l2 15l13 23l2 20l10 29l2 11l-7 14l-17 2l-26 -2l-32 4l-13 -2l-43 8l-4 23l-4 30 l7 40l30 5h17l58 6l16 -3l18 3l12 -4l17 4h47z"/>
<glyph glyph-name="braceleft" horiz-adv-x="360" unicode="{" d="M277 672l-22 -4l-29 -18l-5 -6l-4 -34l-4 -13l3 -17l-2 -27l2 -13v-32l-3 -12l2 -15v-35l-3 -13l-2 -29l-7 -10l-4 -18l-21 -20l-12 -5l2 -15l17 -10l18 -17l3 -16l6 -15l4 -18l-3 -12l3 -33l-3 -28l3 -11l-2 -14l2 -19l-1 -9l2 -20l1 -14v-40l11 -9l10 -14l15 1l28 -13 v-29l3 -20l-8 -32l-31 -3l-27 7l-29 7l-29 13l-11 15l-11 7l-12 29l-13 23l-3 35v46l-3 31l3 17v31l-2 17l-4 43l-8 13l-11 8l-39 19l-5 40l6 41l28 9l8 12l14 4l6 14l3 25v110l3 13l1 15l-4 16l4 46l4 21l6 9l20 28l20 20l14 5l11 11l14 5l33 6l13 7l34 -5l5 -31v-17z"/>
<glyph glyph-name="bar" horiz-adv-x="320" unicode="|" d="M188 795l6 -31v-30l-1 -16v-17l3 -27l-4 -13v-15l3 -18v-15l-3 -12l3 -19l-2 -32l3 -29l-3 -11l3 -19l-2 -12l2 -15v-31l-4 -34l3 -11v-44l-2 -15l2 -18l-1 -16l2 -26l-2 -21l2 -25l-4 -31l2 -16l-1 -16l3 -11l-3 -20v-28l2 -17l-2 -14l1 -15l2 -31l-4 -11l2 -33v-33 l-6 -45l-29 -4l-29 5l-6 30v34l-2 12l3 19l-3 14l4 12v47l-4 14l4 16l-3 16v11l3 32l-3 33l3 15l-4 13l3 32l-3 14l4 13l-2 17l2 12l-3 21l2 27l-3 27l4 21l-4 26v20l4 9l-2 15v20l-2 15l4 28l-4 12v30l4 18l-4 18l2 10l2 32l-4 17v13l4 29l-3 20l1 14l-2 14l10 33h29z"/>
<glyph glyph-name="braceright" horiz-adv-x="360" unicode="}" d="M82 756h28l17 -3h16l12 -8l32 -12l11 -7l9 -13l23 -21l10 -28l8 -32v-61l3 -11l-3 -17v-35l3 -25v-44l10 -29l12 -10l38 -16l5 -40l-7 -45l-24 -7l-27 -17l-8 -30l-2 -32v-62l3 -32l-4 -12l2 -33l-2 -15l-5 -27l-10 -13l-4 -19l-21 -23l-12 -9l-14 -5l-27 -13l-14 -2 l-29 -3h-32l-6 30l4 16v36l27 5l17 6l10 9l9 15l3 39v62l-2 13l4 12l-4 31l4 27v20l7 30l7 11l5 14l13 10l12 6l3 15l-15 3l-10 14l-6 13l-8 8l-6 26v17l-5 13v45l2 19l-2 15l3 11l-4 20l4 9l-4 35l4 13l-3 30l-23 17l-14 3l-25 15l-5 46z"/>
<glyph glyph-name="asciitilde" horiz-adv-x="386" unicode="~" d="M53 365l6 15l10 14l21 25l10 7l44 8l11 -6l14 -12l10 -4l13 -10l14 -5l24 -13l33 3l12 6l34 10l17 -24l4 -15l-15 -24l-9 -7l-23 -19l-13 -5l-14 -11l-26 3l-28 15l-13 11l-12 7l-9 8l-14 4l-34 3l-45 -23l-13 4l-7 17z"/>
<glyph glyph-name="uni00A0" horiz-adv-x="0" unicode=""/>
<glyph glyph-name="exclamdown" d="M78 661l4 13l18 21l42 5l16 -6l19 -21l4 -13l3 -32l-15 -22l-23 -14h-33l-11 2l-9 14l-9 8l-19 13zM71 8l-6 30l4 27l-1 16l2 17l-1 14l2 13l-3 16v11l4 19l1 15l2 24v32l-3 14l3 32v61l4 11v14l3 36l-3 26l4 18v24l7 46l48 8l29 -5l12 -46l-2 -15v-47l3 -10v-19l2 -11 l-3 -35l6 -24l1 -15v-65l2 -11l-4 -15l4 -12l-2 -20l2 -15l-1 -13l2 -13v-29l4 -17l-3 -12l5 -30v-21l-7 -27l-28 -7l-18 2h-25z" unicode=""/>
<glyph glyph-name="cent" horiz-adv-x="450" unicode="" d="M176 166l5 -10l6 -18l11 -8l16 4l2 15l-4 20l3 13l-3 16v27l4 36l-3 10v95l2 12v35l-3 29l2 12l2 32l-4 31l3 13v29l-15 13l-10 -12l-10 -17l-5 -16l-2 -30l4 -16v-11l-4 -15v-19l3 -11l1 -16v-29l-3 -17l3 -30l-4 -32l2 -9v-35l-2 -10v-19l3 -31v-31zM241 724l1 -33 l19 -16l27 -5l27 -19l20 -15l11 -15l18 -20l7 -16l5 -28l7 -15v-41l-6 -26l-30 -8l-13 -1l-45 6l-6 29l-3 33l-3 12l-8 17l-12 4l-15 -3v-63l4 -19v-29l-3 -15l3 -29l-4 -32l1 -10v-20l3 -10l-4 -18v-44l3 -17l-2 -30v-34l3 -9l-4 -21l3 -12l-3 -13l16 -9l12 7l9 18l1 15 l5 26l3 30l30 5l13 -2l18 4l30 -5l4 -28l-3 -49l-3 -9l-6 -33l-9 -9l-15 -26l-9 -9l-25 -20l-10 -5l-30 -12l-16 -3l-12 -23l-8 -25l-21 -2v28l-17 23l-14 1l-25 9l-28 15l-19 23l-6 13l-9 8l-7 19l-11 27l-4 29v28l-3 15l3 27l-2 20l3 12v48l-3 29l3 15l-4 16l3 12v33 l-3 17l4 12l-4 17l1 14v46l5 18l1 11l5 17l5 8l13 29l22 19l8 12l12 9l12 6l30 14l12 -1l14 20l4 27z"/>
<glyph glyph-name="sterling" horiz-adv-x="475" unicode="" d="M300 467l-5 31l-2 17v30l-2 28l-9 12l-8 15l-25 11l-29 -3l-13 -4l-11 -14l-10 -27l2 -32l11 -41l12 -32l3 -27l7 -10l3 -33l9 -24l2 -30l17 -17h16l27 4l15 -1l35 -6v-39l-2 -33h-43l-18 -6l-27 2l-12 -15l-4 -27v-29l-5 -11l16 -17l12 -8l14 -5l13 -9l27 -10l16 -3 l12 -4h28l24 -4l14 -6l6 -28l-8 -38l-5 -10l-20 -21l-14 -5l-30 3l-14 5l-11 1l-14 4l-29 13l-13 2l-15 6l-13 2l-28 8l-29 4l-31 -8l-13 -11l-26 -7l-14 4l-8 10l-3 27l2 11l-2 14l4 19l14 20l5 11l11 9l5 19l11 26v15l6 14l1 14l-17 17l-32 4l-9 29l6 42l33 3l14 18l-5 13 l-2 26l-7 17l-3 15l-4 9l-5 33l-6 15l-9 24l-13 42v18l-3 12l2 14l2 33l5 13l8 8l5 17l22 24l21 19l10 6l16 1l14 11l12 -2l15 3l14 7l34 -6l30 -2l30 -5l25 -20l9 -4l15 -12l4 -14l17 -29l4 -11l6 -34l4 -30l-4 -33l3 -14l-4 -31l-33 -5l-13 3h-46z"/>
<glyph glyph-name="currency" horiz-adv-x="484" unicode="" d="M164 338l-2 -15l2 -18l5 -10l16 -29l12 -4l13 -1l17 -8h30l25 10l24 17l6 11l5 17l3 29v25l-3 20l-2 26l-8 12l-23 22l-13 5h-44l-13 -4l-29 -11l-16 -25l-3 -10v-16l-4 -19zM75 380l5 30l5 31l6 12l5 16l10 14v20l-18 44l21 18l13 8l26 6l21 -21l10 -15l22 -13l10 2 l43 -3l18 4l11 -3l26 14l5 9l24 30l29 -18l26 -21l-18 -37v-29l8 -9l8 -13l4 -18l5 -12l7 -27l-2 -15l5 -46l-6 -31l-4 -33l-8 -28l-15 -27l-2 -25l17 -41l-25 -20l-30 -13l-24 23l-9 20l-19 12l-16 -3l-12 1h-27l-14 -3l-15 4l-21 -14l-11 -11l-22 -30l-27 11l-10 7l-18 19 l17 43l-2 24l-15 24l-7 16l-1 10l-7 20l2 12l-4 18v57z"/>
<glyph glyph-name="yen" horiz-adv-x="410" unicode="" d="M136 699l12 -24l2 -21l10 -9v-20l9 -27l11 -25l14 -64l8 -11l9 2l2 12l11 30v15l13 28v14l6 15l9 26l3 19l17 38l28 3l61 -5l12 -9l-6 -29l-7 -15l-3 -16l-6 -27l-8 -17l-9 -26l-8 -34l-5 -10l-4 -16l-6 -30l-12 -32l-1 -15l-4 -13l-8 -14l-3 -17l-6 -11l-8 -33l14 -9 l33 -10l5 -38l-6 -32h-29l-11 -3l-17 -14l2 -17l12 -19h16l24 -8l9 -27l-9 -27l-27 -11l-13 1l-13 -14l-1 -13l3 -26l-4 -18l4 -14l-5 -27l-33 -8l-13 3l-11 -3l-14 -1l-30 11l-8 38l2 20l-2 25l3 12l-12 17l-15 -3l-29 9l-3 26l2 33l31 7l14 -1l9 16v18l-13 17l-12 -5 l-25 12l-9 23v16l8 30l30 2l11 16l-1 13l-12 28v16l-6 14l-5 18l-11 24l-2 17l-7 14l-2 16l-11 30l-5 26l-10 34l-7 9v18l-9 26l-12 46l9 15h30l16 -3z"/>
<glyph glyph-name="brokenbar" horiz-adv-x="320" unicode="" d="M191 794l5 -30l-2 -14l2 -16l-4 -29l2 -28v-20l-2 -26v-33l4 -27l-4 -33l3 -11l-3 -30v-19l3 -11l-3 -16l3 -19l-6 -27l-31 -4l-29 6l-5 24l2 31l-2 31v34l2 27l-4 13l4 16l-2 16l1 15l-3 14v28l4 32v17l-3 17v27l5 42l30 10zM187 297l8 -33l-3 -33l1 -13v-44l2 -18 l-2 -24l3 -18l-4 -12v-15l4 -36l-4 -30l4 -9v-30l-2 -16l2 -14v-20l-7 -24l-29 -11l-28 11l-9 25v18l3 28l-4 16l3 15v41l-3 35l4 12l-4 19v12l4 15v14l-2 28l2 31v34l3 44l30 7z"/>
<glyph glyph-name="section" horiz-adv-x="476" unicode="" d="M263 289l15 10l12 1l9 15l8 8l8 17l-12 23l-30 12l-11 10l-14 7l-12 12l-28 4l-11 -4l-24 -17l-13 -24l11 -25l15 -10l12 -3l29 -20l10 -10zM318 567l-18 24l-8 12l-15 5l-10 9l-43 8l-12 -9l-29 -11l-8 -11l-10 -7l-2 -13l2 -33l29 -22l38 -19l16 -14l12 -8l40 -25 l11 -4l12 -11l16 -8l12 -13l11 -8l9 -12l11 -7l12 -14l3 -12l3 -35l-6 -28l-6 -16l-10 -15l-17 -19v-21l11 -16l11 -9l8 -14l6 -18l4 -44l-2 -13l-6 -19l-7 -14l-14 -27l-8 -10l-12 -7l-11 -12l-13 -7l-29 -14l-17 -3l-16 1l-13 -5l-30 -2l-31 6l-25 12l-31 10l-12 8l-19 22 l-16 23l-11 40l7 9l30 5l46 -4l13 -21l11 -11l26 -12l10 -8h34l12 8l17 4l9 15l21 24l-9 31l-22 19l-28 17l-16 6l-12 11l-15 8l-12 4l-12 14l-11 7l-16 4l-14 15l-12 7l-21 15l-13 16l-22 25l-3 12v47l4 15l10 13l6 15l21 25l-3 16l-11 15l-7 13l-17 29l-5 10v34l2 12 l11 32l16 26l19 19l25 21l29 9l30 7h45l18 3l27 -11l29 -10l24 -14l22 -24l14 -19l7 -19l4 -22l-8 -8l-30 -5h-40z"/>
<glyph glyph-name="dieresis" horiz-adv-x="410" unicode="" d="M227 820l6 10l6 12l26 17l40 -4l23 -22l7 -13l-7 -44l-11 -11l-12 -8l-9 -3l-30 -2l-26 13l-16 26zM76 819l6 14l8 12l23 16l29 -4l15 -6l10 -10l10 -7l5 -13l3 -33l-9 -13l-31 -27l-30 2l-24 13l-17 26z"/>
<glyph glyph-name="copyright" horiz-adv-x="563" unicode="" d="M185 471l-1 12l7 18l7 8l6 17l24 18l11 4l29 10l27 -4l15 2l23 -16l26 -14l8 -12l3 -17l6 -11l4 -18l-1 -16l-8 -25l-26 -5l-22 10l-9 19l2 17l-9 16l-13 9h-30l-10 -10l-6 -17l-3 -41v-17l2 -26l-3 -18l3 -18l-4 -14l4 -12l-3 -18l3 -30l-1 -14l6 -45l14 -5h29l14 6 l6 14v19l5 20l25 4l26 -4l8 -40l-6 -25l-7 -16l-9 -9l-19 -24l-14 -1l-17 -8l-12 -4h-30l-25 9l-13 9l-11 3l-11 15l-14 22l-10 27v35l3 44v45l-4 12l1 16v17l3 14l-4 19l3 15zM135 213l4 -16l1 -12l5 -16l13 -29l9 -13l5 -11l26 -18l8 -13l14 -6l15 -1l29 -10h46l27 8l12 9 l24 22l14 9l14 19l7 18l13 25l3 14v19l1 10v28l4 31l-4 15l2 33l-2 9l4 18v13l-3 18l3 15l-4 13l3 14v46l-7 27l-2 16l-6 12l-11 30l-9 11l-17 24l-23 19l-28 10l-16 3l-13 6l-32 -4l-14 1l-29 -15l-10 -1l-25 -18l-10 -11l-16 -28l-7 -9l-8 -16l-1 -13l-9 -29l1 -16l-4 -33 v-31l4 -56l-3 -20l1 -14l-2 -26l4 -36l-1 -11v-33zM76 484l-2 15l5 33l11 29l11 28l13 24l21 22l11 7l8 11l12 9l26 10l30 16l15 -2l13 2l46 6l13 -2l31 -5l15 -8l10 -1l29 -13l25 -24l19 -20l17 -19l5 -17l9 -13l5 -16l5 -8l3 -29l5 -33v-103l2 -16l-3 -29l3 -14l-2 -27 l2 -31l-3 -17v-43l-2 -31l-6 -14v-17l-11 -30l-11 -10l-6 -12l-11 -11l-6 -12l-15 -16l-11 -4l-13 -14l-25 -15l-16 -5h-14l-13 -3l-14 -8h-17l-29 5l-17 -4l-27 7l-29 8l-16 10l-12 4l-14 9l-11 13l-9 7l-18 26l-19 28l-10 27l-6 29v15l-6 16v46l4 12l-2 20l2 11v28l-4 29 l2 17l-2 18v56z"/>
<glyph glyph-name="ordfeminine" horiz-adv-x="325" unicode="" d="M180 341l-1 12l-1 8l-4 13l-1 10v13l-5 19l1 10l-4 10v13l-6 19l2 11l-4 1l-3 -22l-4 -9l-1 -10l-2 -21l-4 -25l-1 -10l-6 -18v-14l-2 -7l10 -12l8 1h19zM193 697l4 -21l1 -10l3 -7l1 -9l6 -11v-24l3 -10l-1 -7l5 -10l-2 -11l4 -9l1 -12l4 -22l3 -21l3 -7l1 -12l2 -22 l5 -20l4 -18l-1 -11l2 -9l5 -23l4 -19l-1 -14l4 -7l2 -12l-1 -10l5 -8v-12l3 -23l5 -17v-11l2 -19v-26l-23 -2l-21 -4l-21 4l-7 20v13l-12 12h-33l-9 -2l-12 2l-11 -9v-13l-7 -22l-23 -3l-11 2l-8 -4l-25 8l-2 24l5 17v12l4 12l-1 10l1 10l6 19v12l3 8l3 11l-1 10l5 21v12 l3 18l5 20l1 10l6 22v12l3 16l2 23l4 23l3 5v13l3 12v10l4 7l1 14l3 19l3 9v9l2 12l3 10l2 12l-1 11l9 19l18 2l8 -3h11l10 3z"/>
<glyph glyph-name="guillemotleft" horiz-adv-x="423" unicode="" d="M46 394l17 13l10 9l8 13l15 9l7 8l22 27l14 4l9 12l26 19h18l10 -12l6 -28l-2 -21l-22 -23l-8 -13l-20 -21l-21 -27l3 -20l26 -38l12 -9l10 -11l8 -16l13 -16l2 -14l-7 -30l-10 -12l-16 3l-28 15l-9 15l-10 8l-26 17l-8 14l-11 12l-13 5l-25 27v81zM216 392l13 19l12 11 l14 4l7 15l12 5l11 11l21 26l38 28l15 -4l16 -10l3 -27v-19l-16 -21l-9 -7l-7 -14l-11 -8l-12 -13l-15 -25l-3 -18l10 -12l22 -27l16 -19l9 -18l17 -12l-2 -18l-6 -27l-8 -11l-18 -4l-38 27l-12 16l-10 7l-9 10l-12 9l-10 16l-23 15l-14 17l-4 26l2 16l-2 17z"/>
<glyph glyph-name="logicalnot" horiz-adv-x="410" unicode="" d="M343 394l5 -29l3 -18l-3 -30v-28l-3 -48l-44 -8h-16l-41 10l-6 27v23l-14 19l-16 -6l-13 3h-16l-13 -3l-15 3l-11 -2l-17 5l-16 -6l-43 9l-5 29v17l6 32l31 6l15 -3h28l16 3l15 -2h29l15 4l13 1l28 -2l30 -2h28z"/>
<glyph glyph-name="uni00AD" horiz-adv-x="300" unicode="" d="M251 394l5 -29l-4 -17l-4 -37h-27l-31 -3h-93l-15 5h-30l-8 32v17l7 30l30 5l12 4h32l17 -5l15 4l15 -4l15 5h18l15 -4z"/>
<glyph glyph-name="registered" horiz-adv-x="563" unicode="" d="M303 385l8 15l7 14l-5 48l-8 16l-33 4l-21 -17l1 -9v-62l17 -9h34zM304 542l17 -10l11 -4l23 -21l6 -16l6 -10l6 -32l3 -34l-2 -18l-12 -28l-8 -13l3 -20l7 -16l2 -14l5 -51l-4 -12l3 -22l-2 -23l4 -18l-9 -10l-24 -4h-19l-8 28l-4 31l2 33l-4 50l-9 8l-29 4l-15 -16 l-3 -12v-18l4 -12l-4 -33l2 -12l-6 -47l-23 -8l-25 4l-5 31v33l-2 11l4 28l-4 29l2 15v35l2 15v26l-4 12l3 20l-1 12l-2 33l3 10v34l4 23l33 10l14 -3l14 2h45zM134 215l2 -16l9 -29l11 -26l9 -13l20 -22l9 -16l12 -6l30 -9l14 -7l47 -5l12 2l27 14l26 10l13 9l11 11l15 28 l8 10l11 29l2 11l3 34l3 44l-2 13v29l3 18l-3 11l3 28l-4 31l4 15l-4 28l3 27v19l-6 16v12l-8 15l-3 12l-7 16l-9 13l-12 9l-10 14l-10 10l-12 6l-11 9l-14 4l-29 8l-30 -4h-14l-19 -4l-22 -11l-27 -18l-10 -13l-14 -26l-8 -12l-5 -13l-10 -31v-16l-5 -40l3 -17l-3 -32 l3 -15v-42l-4 -18v-46l4 -12l-2 -13v-33zM76 484v19l4 29l4 11l17 45l8 11l16 21l19 26l22 17l26 9l30 15l12 4h15l46 4l30 -10l30 -4l12 -8l15 -7l13 -3l8 -8l24 -20l9 -14l19 -20l8 -14l3 -13l12 -29l3 -16l5 -11v-63l3 -13l-2 -13v-35l2 -26l-4 -15l3 -12v-153l-6 -11 v-17l-6 -17l-3 -15l-9 -14l-16 -26l-9 -7l-6 -16l-11 -12l-16 -10l-8 -3l-14 -10l-16 -8l-26 -12l-18 -2l-14 -4l-45 5l-17 -5l-12 4l-30 7l-13 6l-16 12l-10 4l-15 10l-10 10l-22 24l-7 11l-16 23l-12 26l-9 34l-1 16l1 16v43l-3 11l2 30l-3 19l1 13v30l3 15v16l-4 28l3 29 l-2 17z"/>
<glyph glyph-name="macron" horiz-adv-x="330" unicode="" d="M265 825l6 -29l-7 -31l-32 -5l-12 -4l-15 3l-31 3l-15 -5l-18 4l-14 1l-17 -3l-17 4h-32v34l4 28l32 6l13 -5l29 6l16 -5l16 2l31 -3l19 4z"/>
<glyph glyph-name="degree" horiz-adv-x="397" unicode="" d="M152 571v-10l6 -17l10 -6l16 -3l29 -2l11 3l15 8l8 30l-3 25v17l-8 14l-8 7l-18 5h-26l-14 -5l-12 -8l-9 -26zM84 603l4 12l2 31l9 12l6 18l10 10l12 7l10 11l31 5l12 5l33 -3l32 -8l14 2l13 -9l19 -20l7 -17l12 -27v-17l2 -9l-3 -33l2 -16l-8 -27l-2 -17l-21 -26 l-24 -10l-14 -10l-15 -4l-13 4h-32l-15 -3l-12 7l-32 12l-8 8l-17 26l-5 14l-9 28l3 13z"/>
<glyph glyph-name="plusminus" horiz-adv-x="420" unicode="" d="M311 192l5 -29l-4 -17l-4 -37h-27l-31 -3h-93l-15 5h-30l-8 32v17l7 30l30 5l12 4h32l17 -5l15 4l15 -4l15 5h18l15 -4zM250 585l5 -32l1 -14l-4 -12v-18l3 -13l-3 -10l14 -20l32 5l43 -8l5 -31l-9 -46l-39 -10l-14 5l-16 1l-13 -19v-28l-3 -26l2 -13l-3 -29l-50 -9 l-31 9l-8 40l3 32l-3 10v14l-13 13l-12 3l-16 -2l-41 10l-7 29l5 49l30 7l29 -5l14 1l12 18v10l3 14l-3 15v28l6 30l31 2h50z"/>
<glyph glyph-name="twosuperior" horiz-adv-x="341" unicode="" d="M60 649l4 12v6l4 14l7 17l21 25l9 6l8 9l10 2l8 5l11 3l23 5h22l9 -1l31 -9l18 -11l9 -9l8 -6l7 -9l10 -20l2 -7l5 -11l2 -23v-54l-12 -41l-5 -6l-4 -12l-9 -16l-8 -11l-4 -7l-7 -7l-5 -14l-12 -15l-9 -20l-9 -5l-3 -10l-7 -10l-9 -22l-7 -5l-2 -11l-6 -10l-7 -23l-5 -7 l8 -12h12l21 3l32 -2l10 2l13 -2l11 1l20 -5l4 -17v-33l-6 -19l-21 -5l-9 1l-11 -2l-20 3h-65l-9 -3l-12 3h-33l-9 -2l-23 7v33l4 31l3 7l4 22l5 10l2 11l10 20l6 19l12 16l3 11l7 8l4 12l13 18l3 9l13 14l7 13l6 5l3 12l8 8l3 9l13 17l1 12l7 8l4 31l-4 46l-5 8l-17 11h-24 l-7 -7l-8 -3l-8 -23l-3 -21l2 -10l-1 -11l2 -14l-4 -19l-22 -2h-10l-7 -3h-13l-18 8l-5 17v57z"/>
<glyph glyph-name="threesuperior" horiz-adv-x="341" unicode="" d="M60 650l2 9l5 8l1 14l12 15l5 12l11 12l19 16l9 2l21 11l19 3h20l13 -2l9 -5h10l11 -4l26 -21l14 -13l5 -7l6 -13l2 -10l5 -9l5 -19l-2 -22v-48l-3 -9v-14l-6 -9l-2 -7l-8 -10l-5 -11v-12l6 -9l5 -11l7 -10l7 -26v-32l-1 -21l2 -10l-2 -10l1 -10l-3 -20v-12l-5 -21 l-8 -16l-9 -9l-6 -9l-8 -5l-9 -10l-14 -11l-20 -5l-11 -5l-10 3h-22l-11 -2l-9 2l-22 9l-15 13l-8 5l-21 25l-8 15l-10 31v35l1 10v20l3 21l19 5h11l10 -2l9 1l21 -4l4 -53v-32l3 -11l22 -18l29 2l14 16l5 12v52l1 8l-1 10l1 12l-2 21l-2 7l-6 10l-9 8l-9 4l-20 3l-19 6 l-4 30l5 21l18 6l20 1l8 8l7 4l9 8l3 11v48l-3 33l-16 14l-8 5h-18l-11 -1l-5 -12l-12 -16v-35l-5 -30l-18 -6l-21 1l-30 5l-5 19v14l3 11z"/>
<glyph glyph-name="acute" horiz-adv-x="310" unicode="" d="M134 860h65l13 -13l2 -13l-20 -27l-20 -19l-8 -10l-28 -25l-17 -3l-25 3l-8 18l12 28l2 9l11 15z"/>
<glyph glyph-name="mu" horiz-adv-x="454" unicode="" d="M177 695l8 -29l-2 -29l2 -21l-3 -13l3 -15v-58l-2 -14v-18l3 -13v-15l-4 -15l3 -31l-2 -20l2 -12l-3 -32l3 -16l-2 -25v-35l3 -9v-18l-4 -33v-30l3 -25v-33l9 -33l14 -2h44l10 8l7 26v19l-3 15l4 17l-2 13v31l-2 11v35l4 9l-4 17l4 19l-3 11v17l2 12l-3 19l4 15v89l-4 33 v26l4 34l-4 27l4 18l-2 15l2 30l5 25l26 5l29 3l12 -3l30 -2l4 -29v-34l4 -12l-2 -16l-2 -27l4 -17v-88l-4 -15l2 -17l-2 -19l3 -14l-3 -14l2 -14v-29l-2 -18l4 -15l-3 -16l3 -12l-4 -18l4 -12l-4 -16l4 -32l-4 -10l4 -34l-3 -17l3 -13v-30l-7 -11l-2 -19l-7 -11l-27 -39 l-13 -7l-10 -12l-16 -5l-28 -13l-15 3l-12 -2l-44 -3l-17 -11l4 -13l-4 -13l3 -16l-7 -31l-27 -6h-31l-13 5h-25l-9 32v62l2 30l-3 27v32l2 12l-1 16v32l2 29l-2 29v29l3 17l-3 15l1 9l-2 18l2 12v18l2 32l-4 24l4 33l-3 42v36l3 9l-4 15l3 15l-3 16l3 17l-1 11v19l-2 13 l4 19l-2 10v30l7 32l43 4l13 3z"/>
<glyph glyph-name="paragraph" horiz-adv-x="499" unicode="" d="M40 509v20l4 15l4 25l8 18l10 26l9 13l17 28l21 20l29 12l13 9l30 4h28l14 3l31 -3l26 -3h19l14 5l14 -1l12 2l18 -4l15 4l14 -5l30 -6l5 -30l-3 -11v-18l2 -27v-103l-2 -15l3 -21l-4 -14l2 -31l-2 -14l4 -28l-4 -13l4 -17l-3 -16l2 -12l-2 -17l3 -12l-3 -17l2 -15v-30 l-3 -16l4 -17l-1 -14l-2 -31l3 -12l-2 -14l-2 -33l1 -11l3 -35l-1 -11l-7 -28l-31 -7l-29 4l-2 26l-4 21l4 12l-4 33l3 27l-1 14l2 27v35l-3 25l3 30l-3 16l3 16l-4 13l2 20l-2 15l3 30v73l-2 16l3 15l-2 12v27l2 30l-3 32l3 32l-3 14l-15 11l-10 4h-18l-12 -16l2 -17 l-4 -14l3 -16v-61l-3 -9l4 -17v-14l-3 -17l2 -28l-2 -18l3 -24v-31l-4 -19l4 -15l-4 -10l4 -16l-4 -14l3 -34l-3 -15l3 -25v-21l-3 -15l3 -26l-3 -16l2 -31l-2 -15l3 -13l1 -15l-5 -13v-29l-34 -7l-27 8l-7 28l-1 15l4 31v27l-4 15l4 19v32l-4 13v30l4 17l-3 11l3 18l-2 15 l-15 15h-43l-13 10l-18 2l-12 9l-15 8l-8 10l-20 17l-19 31l-9 25l-12 31l2 16l-4 11z"/>
<glyph glyph-name="periodcentered" horiz-adv-x="230" unicode="" d="M59 369l8 16l8 8l26 17l41 -5l11 -14l10 -7l4 -16v-26l-7 -16l-8 -11l-11 -7l-12 -4l-31 -5l-11 11l-10 5l-18 23v31z"/>
<glyph glyph-name="cedilla" horiz-adv-x="286" unicode="" d="M159 -6l-1 -9l-3 -17l13 -14l12 -8l24 -14l19 -21l3 -14v-31l-4 -14l-10 -7l-25 -15l-27 -10l-33 3l-12 -1l-13 8l-18 5l-24 17l12 27l31 -6h15l18 -5l16 3v27l-5 17l-14 2l-39 18l-7 5l5 27l7 31l6 15h57z"/>
<glyph glyph-name="onesuperior" horiz-adv-x="233" unicode="" d="M177 734l3 -18l-2 -13l2 -10v-20l1 -11l-2 -9v-45l2 -10l-2 -10l1 -20l-2 -22l3 -12l-3 -17l2 -14l-2 -10l2 -9v-52l1 -20l-2 -21v-35l2 -19l-1 -9v-43l-5 -31l-29 -6l-10 1l-9 -2l-21 6l-4 21v94l2 10l-3 15l3 31l-2 18l2 13l-1 10v12l-2 10l2 11l-2 21v19l3 10v24l-2 8 l1 12l-2 19l3 11l-10 12h-8l-22 4l-3 33l4 22l20 8h10l15 17l10 21h25l12 1z"/>
<glyph glyph-name="ordmasculine" horiz-adv-x="342" unicode="" d="M130 306l4 -8l9 -10l11 -3l21 -2l8 3l11 6l5 5l5 11v18l-3 14l2 21l-1 8l1 12l-2 20l2 19v24l-1 7v24l2 20l-3 7l2 14l-1 9l2 20l-1 22v22l-4 27l-5 10l-9 7l-8 2h-19l-10 -7l-14 -9l-4 -11v-20l-1 -9v-11l-1 -20l2 -15l-1 -6l2 -13l-2 -10l1 -18l-1 -13l2 -8l-2 -10v-25 l2 -7l-2 -24v-9l-1 -21l3 -20l-1 -10v-33zM54 608l1 10l5 21l4 9l7 9l4 11l5 7l10 5l6 8l10 7l20 10h10l8 5l11 4l32 -4l12 -3l9 -1l20 -12l16 -12l6 -10l8 -6l4 -8l7 -10l2 -11l7 -16v-33l2 -9v-14l-2 -21l3 -7v-14l-3 -18l3 -13l-3 -21l2 -9l-2 -10l3 -8v-33l-3 -8l3 -12 v-52l-2 -10l1 -23l-4 -19l-8 -18l-11 -20l-5 -7l-16 -13l-9 -9l-28 -9l-24 -8l-18 5h-23l-10 5l-19 9l-16 12l-15 14l-8 17l-11 22l-3 18v24l2 7l-2 15v18l1 23l-2 10l1 7l-1 13v21l2 10l-1 7v46l2 6l-2 13l1 9l-1 11v13l-1 7v10z"/>
<glyph glyph-name="guillemotright" horiz-adv-x="423" unicode="" d="M375 316l-12 -15l-12 -14l-10 -6l-11 -11l-11 -15l-15 -9l-8 -11l-11 -11l-37 -28l-16 7l-14 10l-3 23l2 19l10 16l12 12l16 26l23 19l8 16v25l-10 9l-20 21l-7 15l-11 6l-8 15l-13 13v43l9 10l10 6l14 4l23 -18l34 -36l12 -8l9 -11l12 -7l9 -14l10 -7l16 -19v-39l4 -17z M208 315l-19 -17l-18 -21l-15 -7l-8 -12l-24 -18l-23 -25l-26 -19l-15 7l-12 10l-5 23l3 16l21 32l20 26l9 7l9 15l11 10v27l-20 17l-8 15l-20 21l-22 28v46l20 10l15 2l35 -26l8 -13l25 -22l19 -18l25 -18l15 -18v-78z"/>
<glyph glyph-name="onequarter" horiz-adv-x="691" unicode="" d="M505 153v106l1 10v21h-3l-7 -16l-10 -23v-10l-6 -9l-7 -21l-15 -39l-2 -9l-6 -7l6 -12l10 -2l20 4l10 -4zM195 694l3 -18l-2 -13l2 -10v-20l1 -11l-2 -9v-45l2 -10l-2 -10l1 -20l-2 -22l3 -12l-3 -17l2 -14l-2 -10l2 -9v-52l1 -20l-2 -21v-35l2 -19l-1 -9v-43l-5 -31 l-29 -6l-10 1l-9 -2l-21 6l-4 21v94l2 10l-3 15l3 31l-2 18l2 13l-1 10v12l-2 10l2 11l-2 21v19l3 10v24l-2 8l1 12l-2 19l3 11l-10 12h-8l-22 4l-3 33l4 22l20 8h10l15 17l10 21h25l12 1zM402 692v-29l2 -18l-8 -47l-4 -13l-3 -25l-7 -20v-28l-7 -15l1 -12l-4 -17l-3 -28 l-7 -27v-16l-3 -18l-8 -26l-1 -16l-3 -11v-19l-7 -15v-30l-8 -28v-15l-6 -16l-4 -25v-19l-5 -12l-8 -46l1 -15l-6 -11l-5 -48l-9 -22l-25 -4l-32 8l-4 27l9 46l2 27l6 18l7 61l6 13v11l6 16v28l6 19l3 25v19l5 10l7 32l-2 13l5 17l8 46l-1 12l5 12l2 17l8 60l6 16l6 58l7 12 l-1 13l4 30l10 29l27 4zM578 488l5 -23l1 -23l-1 -6v-34l1 -7l-2 -13l2 -10l-1 -9l1 -11l-2 -22v-32l2 -9v-33l-2 -8l1 -9l-1 -11l2 -19v-24l-2 -18l2 -10l9 -11l19 -3l5 -37l-6 -23l-19 -4l-8 -7l-2 -12l2 -13v-21l-6 -21l-40 -8l-8 3l-21 2l-2 22v45l-9 10l-12 4l-9 -4 l-12 3l-11 -3l-10 2l-10 -1l-21 2l-10 -2l-22 4l-5 22l2 15v25l4 9l2 10l7 11l8 32l6 6l16 49l5 9l2 14l11 17l1 11l9 19l2 10l6 11l6 18l9 20l1 11l5 7l3 12l7 18l6 9l5 20l8 19h71z"/>
<glyph glyph-name="onehalf" horiz-adv-x="729" unicode="" d="M195 694l3 -18l-2 -13l2 -10v-20l1 -11l-2 -9v-45l2 -10l-2 -10l1 -20l-2 -22l3 -12l-3 -17l2 -14l-2 -10l2 -9v-52l1 -20l-2 -21v-35l2 -19l-1 -9v-43l-5 -31l-29 -6l-10 1l-9 -2l-21 6l-4 21v94l2 10l-3 15l3 31l-2 18l2 13l-1 10v12l-2 10l2 11l-2 21v19l3 10v24l-2 8 l1 12l-2 19l3 11l-10 12h-8l-22 4l-3 33l4 22l20 8h10l15 17l10 21h25l12 1zM402 692v-29l2 -18l-8 -47l-4 -13l-3 -25l-7 -20v-28l-7 -15l1 -12l-4 -17l-3 -28l-7 -27v-16l-3 -18l-8 -26l-1 -16l-3 -11v-19l-7 -15v-30l-8 -28v-15l-6 -16l-4 -25v-19l-5 -12l-8 -46l1 -15 l-6 -11l-5 -48l-9 -22l-25 -4l-32 8l-4 27l9 46l2 27l6 18l7 61l6 13v11l6 16v28l6 19l3 25v19l5 10l7 32l-2 13l5 17l8 46l-1 12l5 12l2 17l8 60l6 16l6 58l7 12l-1 13l4 30l10 29l27 4zM430 395l4 12v6l4 14l7 17l21 25l9 6l8 9l10 2l8 5l11 3l23 5h22l9 -1l31 -9l18 -11 l9 -9l8 -6l7 -9l10 -20l2 -7l5 -11l2 -23v-54l-12 -41l-5 -6l-4 -12l-9 -16l-8 -11l-4 -7l-7 -7l-5 -14l-12 -15l-9 -20l-9 -5l-3 -10l-7 -10l-9 -22l-7 -5l-2 -11l-6 -10l-7 -23l-5 -7l8 -12h12l21 3l32 -2l10 2l13 -2l11 1l20 -5l4 -17v-33l-6 -19l-21 -5l-9 1l-11 -2 l-20 3h-65l-9 -3l-12 3h-33l-9 -2l-23 7v33l4 31l3 7l4 22l5 10l2 11l10 20l6 19l12 16l3 11l7 8l4 12l13 18l3 9l13 14l7 13l6 5l3 12l8 8l3 9l13 17l1 12l7 8l4 31l-4 46l-5 8l-17 11h-24l-7 -7l-8 -3l-8 -23l-3 -21l2 -10l-1 -11l2 -14l-4 -19l-22 -2h-10l-7 -3h-13 l-18 8l-5 17v57z"/>
<glyph glyph-name="threequarters" horiz-adv-x="784" unicode="" d="M598 153v106l1 10v21h-3l-7 -16l-10 -23v-10l-6 -9l-7 -21l-15 -39l-2 -9l-6 -7l6 -12l10 -2l20 4l10 -4zM484 692v-29l2 -18l-8 -47l-4 -13l-3 -25l-7 -20v-28l-7 -15l1 -12l-4 -17l-3 -28l-7 -27v-16l-3 -18l-8 -26l-1 -16l-3 -11v-19l-7 -15v-30l-8 -28v-15l-6 -16 l-4 -25v-19l-5 -12l-8 -46l1 -15l-6 -11l-5 -48l-9 -22l-25 -4l-32 8l-4 27l9 46l2 27l6 18l7 61l6 13v11l6 16v28l6 19l3 25v19l5 10l7 32l-2 13l5 17l8 46l-1 12l5 12l2 17l8 60l6 16l6 58l7 12l-1 13l4 30l10 29l27 4zM671 488l5 -23l1 -23l-1 -6v-34l1 -7l-2 -13l2 -10 l-1 -9l1 -11l-2 -22v-32l2 -9v-33l-2 -8l1 -9l-1 -11l2 -19v-24l-2 -18l2 -10l9 -11l19 -3l5 -37l-6 -23l-19 -4l-8 -7l-2 -12l2 -13v-21l-6 -21l-40 -8l-8 3l-21 2l-2 22v45l-9 10l-12 4l-9 -4l-12 3l-11 -3l-10 2l-10 -1l-21 2l-10 -2l-22 4l-5 22l2 15v25l4 9l2 10l7 11 l8 32l6 6l16 49l5 9l2 14l11 17l1 11l9 19l2 10l6 11l6 18l9 20l1 11l5 7l3 12l7 18l6 9l5 20l8 19h71zM78 610l2 9l5 8l1 14l12 15l5 12l11 12l19 16l9 2l21 11l19 3h20l13 -2l9 -5h10l11 -4l26 -21l14 -13l5 -7l6 -13l2 -10l5 -9l5 -19l-2 -22v-48l-3 -9v-14l-6 -9l-2 -7 l-8 -10l-5 -11v-12l6 -9l5 -11l7 -10l7 -26v-32l-1 -21l2 -10l-2 -10l1 -10l-3 -20v-12l-5 -21l-8 -16l-9 -9l-6 -9l-8 -5l-9 -10l-14 -11l-20 -5l-11 -5l-10 3h-22l-11 -2l-9 2l-22 9l-15 13l-8 5l-21 25l-8 15l-10 31v35l1 10v20l3 21l19 5h11l10 -2l9 1l21 -4l4 -53v-32 l3 -11l22 -18l29 2l14 16l5 12v52l1 8l-1 10l1 12l-2 21l-2 7l-6 10l-9 8l-9 4l-20 3l-19 6l-4 30l5 21l18 6l20 1l8 8l7 4l9 8l3 11v48l-3 33l-16 14l-8 5h-18l-11 -1l-5 -12l-12 -16v-35l-5 -30l-18 -6l-21 1l-30 5l-5 19v14l3 11z"/>
<glyph glyph-name="questiondown" horiz-adv-x="418" unicode="" d="M264 640l-6 -9l-19 -23l-44 -8l-22 16l-16 27v31l25 33l46 3l11 -6l12 -10l15 -22zM371 148v-17l-4 -13l-3 -27l-7 -17l-13 -27l-10 -7l-12 -14l-9 -6l-17 -5l-11 -7l-16 -5l-14 2l-29 -8l-31 6l-18 -3l-14 3l-14 -1l-14 7l-12 3l-13 10l-15 7l-20 18l-10 12l-4 17l-7 12 l-7 32l1 10l-2 21v30l4 43v34l10 24l10 13l16 24l5 13l8 13l10 7l17 28l4 14l10 9l10 30l11 30v18l4 13l2 28l8 31l28 11l16 -2l35 -10l4 -25l-3 -20v-15l-4 -31l-3 -13l-3 -28l-8 -18v-12l-15 -27l-4 -15l-8 -12l-6 -15l-11 -16l-4 -14l-12 -8l-12 -25l-3 -16l-5 -16v-82 l8 -25l12 -11l16 -5l31 -2h17l20 17l8 17v63l3 13l3 47l33 6l12 -2l44 -8l9 -41l-3 -20z"/>
<glyph glyph-name="Agrave" horiz-adv-x="516" unicode="" d="M284 855l14 -17l4 -15l7 -16l16 -38l-9 -12l-24 -11l-19 6l-29 24l-27 26l-26 34l5 17l52 7l16 -5h20zM323 200l-3 12l-5 12l-8 30l-7 17v17l-5 9v15l-7 18v10l-10 31l-2 17l-8 26l-6 33l-8 -4l-5 -15v-9l-5 -16l-2 -15l-7 -18l-1 -11l-7 -16l-3 -30l-5 -11l-2 -16 l-11 -31l-1 -16l-5 -11l-4 -15v-17l9 -15h46l29 5l17 -5l20 2zM304 698l13 -28l1 -16l10 -25v-15l7 -18l2 -11l5 -33l11 -28l1 -12l5 -16l1 -13l6 -17v-16l7 -28l7 -14l6 -33l9 -25v-16l7 -12v-18l7 -17l3 -30l10 -28l1 -13l6 -13l4 -19l4 -23l7 -16l1 -16l6 -13l5 -28 l5 -34l7 -12l3 -29l-11 -7l-26 -10h-18l-18 5l-24 3l-18 41l-2 18l-18 12l-15 3h-17l-15 -5h-48l-17 6l-30 -6l-16 1l-17 -11l-4 -15l-12 -42l-29 -5h-17l-14 -4l-31 3l-7 13l3 25v16l6 17l5 26l9 29l6 31l7 27l8 36l6 8v20l10 29v13l7 29l10 28l2 13l5 31l7 14l4 31l5 15 l1 12l7 18v16l9 30l9 23v19l11 27v18l8 26l1 16l8 13l8 29l26 -2l14 6l15 -4h40z"/>
<glyph glyph-name="Aacute" horiz-adv-x="516" unicode="" d="M237 860h65l13 -13l2 -13l-20 -27l-20 -19l-8 -10l-28 -25l-17 -3l-25 3l-8 18l12 28l2 9l11 15zM323 200l-3 12l-5 12l-8 30l-7 17v17l-5 9v15l-7 18v10l-10 31l-2 17l-8 26l-6 33l-8 -4l-5 -15v-9l-5 -16l-2 -15l-7 -18l-1 -11l-7 -16l-3 -30l-5 -11l-2 -16l-11 -31 l-1 -16l-5 -11l-4 -15v-17l9 -15h46l29 5l17 -5l20 2zM304 698l13 -28l1 -16l10 -25v-15l7 -18l2 -11l5 -33l11 -28l1 -12l5 -16l1 -13l6 -17v-16l7 -28l7 -14l6 -33l9 -25v-16l7 -12v-18l7 -17l3 -30l10 -28l1 -13l6 -13l4 -19l4 -23l7 -16l1 -16l6 -13l5 -28l5 -34l7 -12 l3 -29l-11 -7l-26 -10h-18l-18 5l-24 3l-18 41l-2 18l-18 12l-15 3h-17l-15 -5h-48l-17 6l-30 -6l-16 1l-17 -11l-4 -15l-12 -42l-29 -5h-17l-14 -4l-31 3l-7 13l3 25v16l6 17l5 26l9 29l6 31l7 27l8 36l6 8v20l10 29v13l7 29l10 28l2 13l5 31l7 14l4 31l5 15l1 12l7 18v16 l9 30l9 23v19l11 27v18l8 26l1 16l8 13l8 29l26 -2l14 6l15 -4h40z"/>
<glyph glyph-name="Acircumflex" horiz-adv-x="516" unicode="" d="M295 858l15 -19l7 -11l18 -25l12 -25v-12l-12 -16l-33 13l-24 22l-12 7h-25l-10 -11l-14 -8l-8 -7l-22 -13l-19 3l-5 5v20l15 21l7 13l17 27l15 16h23l13 2l17 -4zM323 200l-3 12l-5 12l-8 30l-7 17v17l-5 9v15l-7 18v10l-10 31l-2 17l-8 26l-6 33l-8 -4l-5 -15v-9 l-5 -16l-2 -15l-7 -18l-1 -11l-7 -16l-3 -30l-5 -11l-2 -16l-11 -31l-1 -16l-5 -11l-4 -15v-17l9 -15h46l29 5l17 -5l20 2zM304 698l13 -28l1 -16l10 -25v-15l7 -18l2 -11l5 -33l11 -28l1 -12l5 -16l1 -13l6 -17v-16l7 -28l7 -14l6 -33l9 -25v-16l7 -12v-18l7 -17l3 -30 l10 -28l1 -13l6 -13l4 -19l4 -23l7 -16l1 -16l6 -13l5 -28l5 -34l7 -12l3 -29l-11 -7l-26 -10h-18l-18 5l-24 3l-18 41l-2 18l-18 12l-15 3h-17l-15 -5h-48l-17 6l-30 -6l-16 1l-17 -11l-4 -15l-12 -42l-29 -5h-17l-14 -4l-31 3l-7 13l3 25v16l6 17l5 26l9 29l6 31l7 27 l8 36l6 8v20l10 29v13l7 29l10 28l2 13l5 31l7 14l4 31l5 15l1 12l7 18v16l9 30l9 23v19l11 27v18l8 26l1 16l8 13l8 29l26 -2l14 6l15 -4h40z"/>
<glyph glyph-name="Atilde" horiz-adv-x="516" unicode="" d="M117 802l15 18l7 17l14 9l24 9h31l13 -4h17l14 -9l12 -2l15 -9l16 -5l34 3l15 5h31l17 -16v-19l-15 -18l-26 -13l-25 -17h-30l-14 8l-15 5l-26 13l-24 9h-26l-13 -6l-45 -5l-11 15zM323 200l-3 12l-5 12l-8 30l-7 17v17l-5 9v15l-7 18v10l-10 31l-2 17l-8 26l-6 33l-8 -4 l-5 -15v-9l-5 -16l-2 -15l-7 -18l-1 -11l-7 -16l-3 -30l-5 -11l-2 -16l-11 -31l-1 -16l-5 -11l-4 -15v-17l9 -15h46l29 5l17 -5l20 2zM304 698l13 -28l1 -16l10 -25v-15l7 -18l2 -11l5 -33l11 -28l1 -12l5 -16l1 -13l6 -17v-16l7 -28l7 -14l6 -33l9 -25v-16l7 -12v-18l7 -17 l3 -30l10 -28l1 -13l6 -13l4 -19l4 -23l7 -16l1 -16l6 -13l5 -28l5 -34l7 -12l3 -29l-11 -7l-26 -10h-18l-18 5l-24 3l-18 41l-2 18l-18 12l-15 3h-17l-15 -5h-48l-17 6l-30 -6l-16 1l-17 -11l-4 -15l-12 -42l-29 -5h-17l-14 -4l-31 3l-7 13l3 25v16l6 17l5 26l9 29l6 31 l7 27l8 36l6 8v20l10 29v13l7 29l10 28l2 13l5 31l7 14l4 31l5 15l1 12l7 18v16l9 30l9 23v19l11 27v18l8 26l1 16l8 13l8 29l26 -2l14 6l15 -4h40z"/>
<glyph glyph-name="Adieresis" horiz-adv-x="516" unicode="" d="M281 820l6 10l6 12l26 17l40 -4l23 -22l7 -13l-7 -44l-11 -11l-12 -8l-9 -3l-30 -2l-26 13l-16 26zM130 819l6 14l8 12l23 16l29 -4l15 -6l10 -10l10 -7l5 -13l3 -33l-9 -13l-31 -27l-30 2l-24 13l-17 26zM323 200l-3 12l-5 12l-8 30l-7 17v17l-5 9v15l-7 18v10l-10 31 l-2 17l-8 26l-6 33l-8 -4l-5 -15v-9l-5 -16l-2 -15l-7 -18l-1 -11l-7 -16l-3 -30l-5 -11l-2 -16l-11 -31l-1 -16l-5 -11l-4 -15v-17l9 -15h46l29 5l17 -5l20 2zM304 698l13 -28l1 -16l10 -25v-15l7 -18l2 -11l5 -33l11 -28l1 -12l5 -16l1 -13l6 -17v-16l7 -28l7 -14l6 -33 l9 -25v-16l7 -12v-18l7 -17l3 -30l10 -28l1 -13l6 -13l4 -19l4 -23l7 -16l1 -16l6 -13l5 -28l5 -34l7 -12l3 -29l-11 -7l-26 -10h-18l-18 5l-24 3l-18 41l-2 18l-18 12l-15 3h-17l-15 -5h-48l-17 6l-30 -6l-16 1l-17 -11l-4 -15l-12 -42l-29 -5h-17l-14 -4l-31 3l-7 13l3 25 v16l6 17l5 26l9 29l6 31l7 27l8 36l6 8v20l10 29v13l7 29l10 28l2 13l5 31l7 14l4 31l5 15l1 12l7 18v16l9 30l9 23v19l11 27v18l8 26l1 16l8 13l8 29l26 -2l14 6l15 -4h40z"/>
<glyph glyph-name="Aring" horiz-adv-x="516" unicode="" d="M230 790l10 -20l33 5l11 13v32l-11 19h-31l-12 -15v-34zM191 817l1 21l5 8l5 14l14 10l10 12l14 -2h47l24 -18l13 -30l4 -46l-2 -9l-9 -17l-18 -24l-24 -10l-45 3l-14 7l-13 13l-8 12l-4 12v44zM323 200l-3 12l-5 12l-8 30l-7 17v17l-5 9v15l-7 18v10l-10 31l-2 17l-8 26 l-6 33l-8 -4l-5 -15v-9l-5 -16l-2 -15l-7 -18l-1 -11l-7 -16l-3 -30l-5 -11l-2 -16l-11 -31l-1 -16l-5 -11l-4 -15v-17l9 -15h46l29 5l17 -5l20 2zM304 698l13 -28l1 -16l10 -25v-15l7 -18l2 -11l5 -33l11 -28l1 -12l5 -16l1 -13l6 -17v-16l7 -28l7 -14l6 -33l9 -25v-16 l7 -12v-18l7 -17l3 -30l10 -28l1 -13l6 -13l4 -19l4 -23l7 -16l1 -16l6 -13l5 -28l5 -34l7 -12l3 -29l-11 -7l-26 -10h-18l-18 5l-24 3l-18 41l-2 18l-18 12l-15 3h-17l-15 -5h-48l-17 6l-30 -6l-16 1l-17 -11l-4 -15l-12 -42l-29 -5h-17l-14 -4l-31 3l-7 13l3 25v16l6 17 l5 26l9 29l6 31l7 27l8 36l6 8v20l10 29v13l7 29l10 28l2 13l5 31l7 14l4 31l5 15l1 12l7 18v16l9 30l9 23v19l11 27v18l8 26l1 16l8 13l8 29l26 -2l14 6l15 -4h40z"/>
<glyph glyph-name="AE" horiz-adv-x="685" unicode="" d="M344 449l-5 -11l-8 -15l-3 -19l-5 -14l-9 -13l-6 -14l-9 -25l-14 -27l-4 -14l-7 -15l-4 -14l-13 -28l-11 -31l-7 -11l8 -13h29l32 -5l15 1l15 5l12 15l2 28v85l-4 13l4 36l-4 9l3 29v35l-2 12zM621 691l3 -29l2 -14v-22l-5 -29l-29 -8l-30 2l-15 -5l-16 2l-26 4l-15 -5 h-16l-13 -11v-20l-2 -13v-49l2 -24v-34l-2 -14l3 -31l13 -16l33 2l12 -1l20 -5l11 5h16l31 -7l8 -54l-3 -16l-2 -28l-32 -5h-17l-12 -3l-18 4l-30 -4h-15l-16 -15v-64l-3 -28v-28l19 -21h14l11 5l28 -6h19l14 2l12 -2l16 3l29 -7l6 -30l-1 -13v-27l-6 -24l-31 -12l-12 5 l-17 -3l-13 4l-29 -6l-14 4l-28 -3l-32 4l-29 -4l-14 2l-13 -3l-33 12l-5 25v26l-13 18h-15l-28 -4l-18 5l-12 1l-32 -2l-11 2l-19 -4l-19 -14l-2 -14l-9 -7l-15 -40h-27l-11 -3l-14 3l-17 -3l-28 4l-8 18l7 26l11 27l12 29l10 17l3 11l13 29l3 16l16 23l9 30l9 18l2 8 l10 15l2 16l15 27l2 13l10 14l5 18l7 8l2 14l9 20l7 11l8 30l8 14l3 10l13 30l9 14l2 16l10 11l7 31l8 14l4 15l7 13l9 9l6 17l3 16l9 10l2 18l12 20l28 3l14 -2h33l14 -2l13 6l17 -3h31l12 -2l16 5l14 -4l33 -2l15 5z"/>
<glyph glyph-name="Ccedilla" horiz-adv-x="446" unicode="" d="M51 546v19l1 12l8 16l2 11l9 17l13 26l20 22l23 18l12 7l16 5l12 7l16 -2l17 5l41 5l17 -5l30 -8h14l26 -19l12 -5l11 -9l21 -22l17 -24l8 -30l7 -29v-63l3 -17l-9 -25l-28 -6l-12 -6l-17 2l-13 -1l-29 5l-4 33v64l-13 26l-11 14l-28 13l-29 -4l-16 -4l-24 -17l-9 -12 l-4 -20l-3 -47v-26l3 -16l-4 -18v-40l4 -15l-4 -18v-43l4 -34l-3 -28l3 -29l-4 -32l4 -47l6 -14l4 -17l11 -11l14 -10h46l31 13l11 9l9 29v50l7 44l27 5l16 -4l13 1h44l6 -46v-53l-7 -11v-34l-6 -15l-16 -21l-16 -27l-11 -9l-12 -14l-15 -3l-14 -13l-16 -4l-28 -6l-18 -16 l-2 -20l11 -19l27 -5l14 -9l15 -25l3 -15v-28l-3 -12l-19 -21l-15 -9l-30 -5l-45 4l-12 8l-15 3l-21 19l7 23l32 -2l35 -6l13 8l4 24l-22 18l-13 3l-28 12l-5 12l10 41l-10 21l-15 4l-29 12l-24 15l-25 25l-16 22l-4 18l-5 11l-3 18l-6 12v66l-3 10l-1 14l4 15v30l-4 33 l4 15l-4 25l4 34l-2 9v36l2 13l-4 26v28l3 21l-3 15z"/>
<glyph glyph-name="Egrave" horiz-adv-x="409" unicode="" d="M228 855l14 -17l4 -15l7 -16l16 -38l-9 -12l-24 -11l-19 6l-29 24l-27 26l-26 34l5 17l52 7l16 -5h20zM345 691l3 -28l1 -9l-2 -19l3 -14l-9 -24l-28 -7h-59l-14 -4h-39l-15 -14v-118l-4 -19l3 -46l13 -18h47l19 2l13 -1l16 5l32 -5l3 -29l-2 -30l2 -17l-4 -29l-31 -3 h-31l-33 3l-27 -6l-16 -9v-21l-2 -13l2 -19v-59l-3 -12l16 -19l31 -3l28 6h55l31 -5l6 -48l-2 -12l2 -14l-8 -25l-26 -8l-17 2l-15 -5l-13 2h-60l-14 -3h-17l-26 6l-17 -6h-11l-45 9l-8 44l2 27l-3 33v28l3 15l-1 15l2 15v31l-3 19l3 26l-4 18l3 11v34l-3 10v19l4 16l-3 27 l2 18l-2 31l2 29l-2 15l2 27v64l-3 12v28l4 33l-1 15l5 32l31 3l29 -2l12 2l14 -4l15 5l14 -3h30l32 3l13 -2l13 3z"/>
<glyph glyph-name="Eacute" horiz-adv-x="409" unicode="" d="M181 860h65l13 -13l2 -13l-20 -27l-20 -19l-8 -10l-28 -25l-17 -3l-25 3l-8 18l12 28l2 9l11 15zM345 691l3 -28l1 -9l-2 -19l3 -14l-9 -24l-28 -7h-59l-14 -4h-39l-15 -14v-118l-4 -19l3 -46l13 -18h47l19 2l13 -1l16 5l32 -5l3 -29l-2 -30l2 -17l-4 -29l-31 -3h-31 l-33 3l-27 -6l-16 -9v-21l-2 -13l2 -19v-59l-3 -12l16 -19l31 -3l28 6h55l31 -5l6 -48l-2 -12l2 -14l-8 -25l-26 -8l-17 2l-15 -5l-13 2h-60l-14 -3h-17l-26 6l-17 -6h-11l-45 9l-8 44l2 27l-3 33v28l3 15l-1 15l2 15v31l-3 19l3 26l-4 18l3 11v34l-3 10v19l4 16l-3 27l2 18 l-2 31l2 29l-2 15l2 27v64l-3 12v28l4 33l-1 15l5 32l31 3l29 -2l12 2l14 -4l15 5l14 -3h30l32 3l13 -2l13 3z"/>
<glyph glyph-name="Ecircumflex" horiz-adv-x="409" unicode="" d="M239 858l15 -19l7 -11l18 -25l12 -25v-12l-12 -16l-33 13l-24 22l-12 7h-25l-10 -11l-14 -8l-8 -7l-22 -13l-19 3l-5 5v20l15 21l7 13l17 27l15 16h23l13 2l17 -4zM345 691l3 -28l1 -9l-2 -19l3 -14l-9 -24l-28 -7h-59l-14 -4h-39l-15 -14v-118l-4 -19l3 -46l13 -18h47 l19 2l13 -1l16 5l32 -5l3 -29l-2 -30l2 -17l-4 -29l-31 -3h-31l-33 3l-27 -6l-16 -9v-21l-2 -13l2 -19v-59l-3 -12l16 -19l31 -3l28 6h55l31 -5l6 -48l-2 -12l2 -14l-8 -25l-26 -8l-17 2l-15 -5l-13 2h-60l-14 -3h-17l-26 6l-17 -6h-11l-45 9l-8 44l2 27l-3 33v28l3 15 l-1 15l2 15v31l-3 19l3 26l-4 18l3 11v34l-3 10v19l4 16l-3 27l2 18l-2 31l2 29l-2 15l2 27v64l-3 12v28l4 33l-1 15l5 32l31 3l29 -2l12 2l14 -4l15 5l14 -3h30l32 3l13 -2l13 3z"/>
<glyph glyph-name="Edieresis" horiz-adv-x="409" unicode="" d="M225 820l6 10l6 12l26 17l40 -4l23 -22l7 -13l-7 -44l-11 -11l-12 -8l-9 -3l-30 -2l-26 13l-16 26zM74 819l6 14l8 12l23 16l29 -4l15 -6l10 -10l10 -7l5 -13l3 -33l-9 -13l-31 -27l-30 2l-24 13l-17 26zM345 691l3 -28l1 -9l-2 -19l3 -14l-9 -24l-28 -7h-59l-14 -4h-39 l-15 -14v-118l-4 -19l3 -46l13 -18h47l19 2l13 -1l16 5l32 -5l3 -29l-2 -30l2 -17l-4 -29l-31 -3h-31l-33 3l-27 -6l-16 -9v-21l-2 -13l2 -19v-59l-3 -12l16 -19l31 -3l28 6h55l31 -5l6 -48l-2 -12l2 -14l-8 -25l-26 -8l-17 2l-15 -5l-13 2h-60l-14 -3h-17l-26 6l-17 -6h-11 l-45 9l-8 44l2 27l-3 33v28l3 15l-1 15l2 15v31l-3 19l3 26l-4 18l3 11v34l-3 10v19l4 16l-3 27l2 18l-2 31l2 29l-2 15l2 27v64l-3 12v28l4 33l-1 15l5 32l31 3l29 -2l12 2l14 -4l15 5l14 -3h30l32 3l13 -2l13 3z"/>
<glyph glyph-name="Igrave" d="M156 855l14 -17l4 -15l7 -16l16 -38l-9 -12l-24 -11l-19 6l-29 24l-27 26l-26 34l5 17l52 7l16 -5h20zM178 693l8 -31v-40l-4 -18l2 -15v-93l2 -29l-3 -14l3 -16l-4 -27l2 -19l2 -27l-2 -16l2 -29v-31l-2 -17v-44l-2 -27l1 -16l3 -32l-4 -13l2 -18v-30l2 -11v-16l-2 -12 l-6 -49l-26 -3l-15 -4l-14 1l-13 5l-31 2l-6 32v59l3 15l-4 15v27l4 18l-1 15v30l-3 17l4 14l-4 11v20l4 15v14l-4 13l4 14l-3 14l3 18l-4 31v41l4 17v14l-4 13v20l4 31l-2 13l1 16v31l-2 26v34l3 14l2 25l28 10l31 -2z" unicode=""/>
<glyph glyph-name="Iacute" d="M109 860h65l13 -13l2 -13l-20 -27l-20 -19l-8 -10l-28 -25l-17 -3l-25 3l-8 18l12 28l2 9l11 15zM178 693l8 -31v-40l-4 -18l2 -15v-93l2 -29l-3 -14l3 -16l-4 -27l2 -19l2 -27l-2 -16l2 -29v-31l-2 -17v-44l-2 -27l1 -16l3 -32l-4 -13l2 -18v-30l2 -11v-16l-2 -12 l-6 -49l-26 -3l-15 -4l-14 1l-13 5l-31 2l-6 32v59l3 15l-4 15v27l4 18l-1 15v30l-3 17l4 14l-4 11v20l4 15v14l-4 13l4 14l-3 14l3 18l-4 31v41l4 17v14l-4 13v20l4 31l-2 13l1 16v31l-2 26v34l3 14l2 25l28 10l31 -2z" unicode=""/>
<glyph glyph-name="Icircumflex" d="M167 858l15 -19l7 -11l18 -25l12 -25v-12l-12 -16l-33 13l-24 22l-12 7h-25l-10 -11l-14 -8l-8 -7l-22 -13l-19 3l-5 5v20l15 21l7 13l17 27l15 16h23l13 2l17 -4zM178 693l8 -31v-40l-4 -18l2 -15v-93l2 -29l-3 -14l3 -16l-4 -27l2 -19l2 -27l-2 -16l2 -29v-31l-2 -17 v-44l-2 -27l1 -16l3 -32l-4 -13l2 -18v-30l2 -11v-16l-2 -12l-6 -49l-26 -3l-15 -4l-14 1l-13 5l-31 2l-6 32v59l3 15l-4 15v27l4 18l-1 15v30l-3 17l4 14l-4 11v20l4 15v14l-4 13l4 14l-3 14l3 18l-4 31v41l4 17v14l-4 13v20l4 31l-2 13l1 16v31l-2 26v34l3 14l2 25l28 10 l31 -2z" unicode=""/>
<glyph glyph-name="Idieresis" d="M153 820l6 10l6 12l26 17l40 -4l23 -22l7 -13l-7 -44l-11 -11l-12 -8l-9 -3l-30 -2l-26 13l-16 26zM2 819l6 14l8 12l23 16l29 -4l15 -6l10 -10l10 -7l5 -13l3 -33l-9 -13l-31 -27l-30 2l-24 13l-17 26zM178 693l8 -31v-40l-4 -18l2 -15v-93l2 -29l-3 -14l3 -16l-4 -27 l2 -19l2 -27l-2 -16l2 -29v-31l-2 -17v-44l-2 -27l1 -16l3 -32l-4 -13l2 -18v-30l2 -11v-16l-2 -12l-6 -49l-26 -3l-15 -4l-14 1l-13 5l-31 2l-6 32v59l3 15l-4 15v27l4 18l-1 15v30l-3 17l4 14l-4 11v20l4 15v14l-4 13l4 14l-3 14l3 18l-4 31v41l4 17v14l-4 13v20l4 31 l-2 13l1 16v31l-2 26v34l3 14l2 25l28 10l31 -2z" unicode=""/>
<glyph glyph-name="Eth" horiz-adv-x="471" unicode="" d="M230 351l3 -33l-5 -29l-28 -4l-14 -15v-17l-3 -14v-40l3 -18l-3 -12v-14l3 -13l-4 -16l19 -14h32l28 11l23 22l12 31l13 27l7 30l4 29v16l3 15v103l-2 31l-7 27l-4 26l-6 19l-6 12l-3 16l-6 13l-9 9l-18 25l-28 15l-32 -2l-20 -9l4 -32l-2 -16l1 -12v-18l-3 -11l2 -31 l-1 -15l3 -13l-4 -16l3 -15v-31l14 -13zM82 693l28 7l17 2l13 -1l17 -5l31 3l17 -2l32 3l12 -2l31 -10l26 -10l11 -11l14 -8l19 -23l20 -19l8 -17l12 -24l10 -13l4 -19l8 -25l11 -31v-12l7 -33l-1 -13l6 -17l-2 -17l4 -34l-2 -28l-2 -30l2 -16l-3 -27l-4 -12l-2 -19l-5 -16 l-1 -10l-5 -28l-9 -16l-8 -27l-12 -29l-11 -15l-14 -21l-22 -24l-11 -5l-11 -14l-14 -7l-26 -10h-12l-17 -8l-13 -2h-79l-13 -2l-16 4l-46 7l-9 28l4 14l-3 17l2 30l-3 27l4 15l-4 11l4 19v75l-4 27l-12 13l-32 7l-7 28l10 32l29 2l15 16l-2 13l2 15l-2 17l2 14l-1 15l-2 31 l4 13l-4 19l4 15l-3 27l3 13v28l-4 19l3 15l-3 12l4 14l-3 17z"/>
<glyph glyph-name="Ntilde" horiz-adv-x="522" unicode="" d="M124 802l15 18l7 17l14 9l24 9h31l13 -4h17l14 -9l12 -2l15 -9l16 -5l34 3l15 5h31l17 -16v-19l-15 -18l-26 -13l-25 -17h-30l-14 8l-15 5l-26 13l-24 9h-26l-13 -6l-45 -5l-11 15zM181 694l10 -21l13 -28l2 -15l14 -26l3 -11l9 -31l15 -24l2 -12l7 -20l5 -8l9 -32l9 -13 l4 -14l8 -25l15 -26l1 -14l11 -27l10 -14l3 -14l3 -1v43l4 17l-4 31l3 18v210l-2 12l5 46l28 3l29 4l15 -6l28 -2l6 -27l-2 -17l4 -16l-3 -16l2 -13v-17l-3 -28l4 -15v-30l-4 -14v-125l3 -29l-2 -13l3 -18v-40l-4 -29v-35l3 -12l-3 -15l1 -15v-118l3 -16l-9 -32l-26 -4h-48 l-24 6l-10 18l-11 29l-8 11l-2 19l-8 13l-5 13l-9 27l-9 10l-3 20l-10 27l-9 13l-3 11l-10 30l-8 11l-5 17l-6 8l-8 34l-8 10l-7 25l-9 15l-3 16l-4 -2v-44l-4 -19v-24l4 -18v-16l-3 -29l2 -16l-3 -12l2 -16v-34l2 -11l-3 -30l3 -34l-5 -27v-45l-29 -10h-45l-28 8l-6 29 l3 14l-3 14l3 16v65l-3 10l1 14v34l2 15v29l-3 13l3 14l-2 19l1 16v76l-3 15l3 28v62l-3 27l4 12l-3 32l3 19l-3 10l2 19l-3 12l4 18l-2 28l5 30l28 8l18 -6l14 6l14 -5z"/>
<glyph glyph-name="Ograve" horiz-adv-x="468" unicode="" d="M259 855l14 -17l4 -15l7 -16l16 -38l-9 -12l-24 -11l-19 6l-29 24l-27 26l-26 34l5 17l52 7l16 -5h20zM165 150l4 -16l20 -25l12 -2l18 -7h30l30 14l10 8l11 28v29l3 36l-2 24v48l2 30l-4 27v35l4 10l-4 17v43l3 20l-3 10v64l-3 15l-5 11l-18 22l-14 3l-10 7l-46 -5 l-12 -10l-15 -17l-7 -11l-6 -15v-32l3 -14l-3 -13l3 -19l-4 -12v-34l3 -12l-3 -18v-60l4 -9l-3 -18l3 -28l-4 -32v-18l3 -25v-49zM54 559l8 11v18l10 29l17 22l7 15l21 21l16 6l11 11l15 7l30 10h26l34 5l15 -2l28 -8l17 -8l12 -3l14 -12l25 -15l19 -24l6 -14l9 -12l5 -11 l4 -15l9 -31v-63l-2 -11l3 -20v-61l-2 -9l2 -30v-76l-2 -17l2 -14l-3 -32v-26l3 -45l-5 -18l1 -14l-8 -31l-7 -15l-10 -10l-6 -13l-9 -9l-22 -24l-12 -8l-16 -3l-14 -11h-13l-12 -5l-34 -7h-31l-28 3l-13 6l-16 3l-25 19l-11 4l-14 10l-8 12l-18 21l-7 18l-8 13l-2 13l-6 14 l-1 12l-6 47l1 16v31l2 28l-2 14l1 13v96l-2 13l3 16v31l-2 9l2 21l-2 13l1 16v60z"/>
<glyph glyph-name="Oacute" horiz-adv-x="468" unicode="" d="M212 860h65l13 -13l2 -13l-20 -27l-20 -19l-8 -10l-28 -25l-17 -3l-25 3l-8 18l12 28l2 9l11 15zM165 150l4 -16l20 -25l12 -2l18 -7h30l30 14l10 8l11 28v29l3 36l-2 24v48l2 30l-4 27v35l4 10l-4 17v43l3 20l-3 10v64l-3 15l-5 11l-18 22l-14 3l-10 7l-46 -5l-12 -10 l-15 -17l-7 -11l-6 -15v-32l3 -14l-3 -13l3 -19l-4 -12v-34l3 -12l-3 -18v-60l4 -9l-3 -18l3 -28l-4 -32v-18l3 -25v-49zM54 559l8 11v18l10 29l17 22l7 15l21 21l16 6l11 11l15 7l30 10h26l34 5l15 -2l28 -8l17 -8l12 -3l14 -12l25 -15l19 -24l6 -14l9 -12l5 -11l4 -15 l9 -31v-63l-2 -11l3 -20v-61l-2 -9l2 -30v-76l-2 -17l2 -14l-3 -32v-26l3 -45l-5 -18l1 -14l-8 -31l-7 -15l-10 -10l-6 -13l-9 -9l-22 -24l-12 -8l-16 -3l-14 -11h-13l-12 -5l-34 -7h-31l-28 3l-13 6l-16 3l-25 19l-11 4l-14 10l-8 12l-18 21l-7 18l-8 13l-2 13l-6 14l-1 12 l-6 47l1 16v31l2 28l-2 14l1 13v96l-2 13l3 16v31l-2 9l2 21l-2 13l1 16v60z"/>
<glyph glyph-name="Ocircumflex" horiz-adv-x="468" unicode="" d="M270 858l15 -19l7 -11l18 -25l12 -25v-12l-12 -16l-33 13l-24 22l-12 7h-25l-10 -11l-14 -8l-8 -7l-22 -13l-19 3l-5 5v20l15 21l7 13l17 27l15 16h23l13 2l17 -4zM165 150l4 -16l20 -25l12 -2l18 -7h30l30 14l10 8l11 28v29l3 36l-2 24v48l2 30l-4 27v35l4 10l-4 17v43 l3 20l-3 10v64l-3 15l-5 11l-18 22l-14 3l-10 7l-46 -5l-12 -10l-15 -17l-7 -11l-6 -15v-32l3 -14l-3 -13l3 -19l-4 -12v-34l3 -12l-3 -18v-60l4 -9l-3 -18l3 -28l-4 -32v-18l3 -25v-49zM54 559l8 11v18l10 29l17 22l7 15l21 21l16 6l11 11l15 7l30 10h26l34 5l15 -2l28 -8 l17 -8l12 -3l14 -12l25 -15l19 -24l6 -14l9 -12l5 -11l4 -15l9 -31v-63l-2 -11l3 -20v-61l-2 -9l2 -30v-76l-2 -17l2 -14l-3 -32v-26l3 -45l-5 -18l1 -14l-8 -31l-7 -15l-10 -10l-6 -13l-9 -9l-22 -24l-12 -8l-16 -3l-14 -11h-13l-12 -5l-34 -7h-31l-28 3l-13 6l-16 3 l-25 19l-11 4l-14 10l-8 12l-18 21l-7 18l-8 13l-2 13l-6 14l-1 12l-6 47l1 16v31l2 28l-2 14l1 13v96l-2 13l3 16v31l-2 9l2 21l-2 13l1 16v60z"/>
<glyph glyph-name="Otilde" horiz-adv-x="468" unicode="" d="M92 802l15 18l7 17l14 9l24 9h31l13 -4h17l14 -9l12 -2l15 -9l16 -5l34 3l15 5h31l17 -16v-19l-15 -18l-26 -13l-25 -17h-30l-14 8l-15 5l-26 13l-24 9h-26l-13 -6l-45 -5l-11 15zM165 150l4 -16l20 -25l12 -2l18 -7h30l30 14l10 8l11 28v29l3 36l-2 24v48l2 30l-4 27v35 l4 10l-4 17v43l3 20l-3 10v64l-3 15l-5 11l-18 22l-14 3l-10 7l-46 -5l-12 -10l-15 -17l-7 -11l-6 -15v-32l3 -14l-3 -13l3 -19l-4 -12v-34l3 -12l-3 -18v-60l4 -9l-3 -18l3 -28l-4 -32v-18l3 -25v-49zM54 559l8 11v18l10 29l17 22l7 15l21 21l16 6l11 11l15 7l30 10h26 l34 5l15 -2l28 -8l17 -8l12 -3l14 -12l25 -15l19 -24l6 -14l9 -12l5 -11l4 -15l9 -31v-63l-2 -11l3 -20v-61l-2 -9l2 -30v-76l-2 -17l2 -14l-3 -32v-26l3 -45l-5 -18l1 -14l-8 -31l-7 -15l-10 -10l-6 -13l-9 -9l-22 -24l-12 -8l-16 -3l-14 -11h-13l-12 -5l-34 -7h-31l-28 3 l-13 6l-16 3l-25 19l-11 4l-14 10l-8 12l-18 21l-7 18l-8 13l-2 13l-6 14l-1 12l-6 47l1 16v31l2 28l-2 14l1 13v96l-2 13l3 16v31l-2 9l2 21l-2 13l1 16v60z"/>
<glyph glyph-name="Odieresis" horiz-adv-x="468" unicode="" d="M256 820l6 10l6 12l26 17l40 -4l23 -22l7 -13l-7 -44l-11 -11l-12 -8l-9 -3l-30 -2l-26 13l-16 26zM105 819l6 14l8 12l23 16l29 -4l15 -6l10 -10l10 -7l5 -13l3 -33l-9 -13l-31 -27l-30 2l-24 13l-17 26zM165 150l4 -16l20 -25l12 -2l18 -7h30l30 14l10 8l11 28v29l3 36 l-2 24v48l2 30l-4 27v35l4 10l-4 17v43l3 20l-3 10v64l-3 15l-5 11l-18 22l-14 3l-10 7l-46 -5l-12 -10l-15 -17l-7 -11l-6 -15v-32l3 -14l-3 -13l3 -19l-4 -12v-34l3 -12l-3 -18v-60l4 -9l-3 -18l3 -28l-4 -32v-18l3 -25v-49zM54 559l8 11v18l10 29l17 22l7 15l21 21l16 6 l11 11l15 7l30 10h26l34 5l15 -2l28 -8l17 -8l12 -3l14 -12l25 -15l19 -24l6 -14l9 -12l5 -11l4 -15l9 -31v-63l-2 -11l3 -20v-61l-2 -9l2 -30v-76l-2 -17l2 -14l-3 -32v-26l3 -45l-5 -18l1 -14l-8 -31l-7 -15l-10 -10l-6 -13l-9 -9l-22 -24l-12 -8l-16 -3l-14 -11h-13 l-12 -5l-34 -7h-31l-28 3l-13 6l-16 3l-25 19l-11 4l-14 10l-8 12l-18 21l-7 18l-8 13l-2 13l-6 14l-1 12l-6 47l1 16v31l2 28l-2 14l1 13v96l-2 13l3 16v31l-2 9l2 21l-2 13l1 16v60z"/>
<glyph glyph-name="multiply" horiz-adv-x="446" unicode="" d="M135 495l29 -16l10 -9l6 -11l31 -32h24l20 19l7 10l21 24l22 15l28 -17l10 -16l20 -20l-16 -25l-12 -13l-8 -6l-11 -15l-8 -5l-10 -12v-22l6 -7l24 -24l8 -6l27 -37l-16 -24l-13 -13l-25 -19l-28 17l-9 9l-7 12l-12 7l-11 11l-8 11l-21 -4l-12 -8l-19 -16l-18 -23 l-26 -15l-27 15l-31 38l18 24l31 29l7 13l14 12l-2 19l-12 10l-10 13l-18 19l-28 32l22 24l10 17z"/>
<glyph glyph-name="Oslash" horiz-adv-x="468" unicode="" d="M248 96l17 7l10 12l12 7l9 16l3 16v29l3 13v42l-3 16l3 13l-2 31v31l3 15l-4 30l-6 3l-19 -26l-9 -8l-18 -25l-10 -11l-7 -12l-9 -8l-20 -24l-7 -13l-19 -23l-11 -30l1 -15v-33l3 -9l12 -20l10 -9l11 -4l18 -11h29zM301 493v15l-3 49l-5 13l-10 13l-9 4l-15 10h-41 l-15 -2l-12 -5l-10 -12l-5 -12l-11 -23l-3 -31l2 -27l-2 -31l2 -19l-1 -10l2 -13v-20l-3 -31l1 -9v-33l11 -4l9 11l7 16l18 22l12 8l6 15l13 11l8 11l18 19l11 16l14 16zM53 543l4 11v18l10 28l12 26l19 30l12 7l9 14l14 10l53 22l18 -3l12 6l31 -3l18 2l12 -1l16 -5l27 -12 l15 -9l25 -20l9 -9l9 -16l11 -7l5 -18l8 -15l3 -10l8 -35l-3 -12l4 -43l-3 -16l1 -16l-2 -15l4 -31l-4 -30l1 -11v-49l2 -13v-32l-2 -27l3 -14l-3 -17v-78l-3 -12l-3 -27l-10 -30l-11 -18l-8 -9l-18 -20l-23 -21l-14 -6l-13 -9l-16 -1l-12 -8l-16 2l-17 -4h-31l-12 5l-15 -1 l-16 8h-14l-14 7l-26 18l-9 10l-21 24l-7 11l-10 11l-2 17l-13 26l-5 31v25l3 19l-1 15l2 11l-4 33l3 13v17l-3 16l1 16l3 11l-2 30v62l-2 14l3 30v17l-2 14v46z"/>
<glyph glyph-name="Ugrave" horiz-adv-x="494" unicode="" d="M273 855l14 -17l4 -15l7 -16l16 -38l-9 -12l-24 -11l-19 6l-29 24l-27 26l-26 34l5 17l52 7l16 -5h20zM178 695l7 -30l-2 -17v-61l2 -13l-3 -26l4 -15l-3 -18v-17l3 -15l-4 -13v-133l3 -30v-106l-3 -30l5 -45l18 -21l15 -6l13 2l28 -5l12 8h16l9 16l6 7l5 44l-3 28l4 35 l-2 31l2 10l-4 15l3 18l-2 12l1 16l-2 16l4 30l-1 12v34l-2 31v101l2 33l-1 10l-2 32l4 12l-4 20l9 24l25 11h17l12 -4l14 1l31 -8l4 -29v-42l-2 -14l3 -13l-3 -20l2 -14l2 -27v-34l-4 -15v-75l3 -14l-2 -12l3 -17l-1 -15l-3 -11l2 -19l-2 -10v-30l4 -33l-3 -12v-31l3 -16 l-4 -28v-35l-2 -31l-5 -13l-10 -12l-4 -16l-9 -11l-25 -19l-25 -16l-30 -9l-28 -12l-14 1h-34l-16 5l-12 -1l-16 7h-15l-27 14l-13 13l-11 6l-13 13l-15 22l-13 34l-2 26l-5 31l4 12v17l-3 16l2 16l-2 14l2 30l-3 15v77l2 26l-2 32l4 17l-3 14l2 27l-2 30l3 13l-4 20l2 14 v31l2 25l-2 16v46l4 32l30 2h26z"/>
<glyph glyph-name="Uacute" horiz-adv-x="494" unicode="" d="M226 860h65l13 -13l2 -13l-20 -27l-20 -19l-8 -10l-28 -25l-17 -3l-25 3l-8 18l12 28l2 9l11 15zM178 695l7 -30l-2 -17v-61l2 -13l-3 -26l4 -15l-3 -18v-17l3 -15l-4 -13v-133l3 -30v-106l-3 -30l5 -45l18 -21l15 -6l13 2l28 -5l12 8h16l9 16l6 7l5 44l-3 28l4 35l-2 31 l2 10l-4 15l3 18l-2 12l1 16l-2 16l4 30l-1 12v34l-2 31v101l2 33l-1 10l-2 32l4 12l-4 20l9 24l25 11h17l12 -4l14 1l31 -8l4 -29v-42l-2 -14l3 -13l-3 -20l2 -14l2 -27v-34l-4 -15v-75l3 -14l-2 -12l3 -17l-1 -15l-3 -11l2 -19l-2 -10v-30l4 -33l-3 -12v-31l3 -16l-4 -28 v-35l-2 -31l-5 -13l-10 -12l-4 -16l-9 -11l-25 -19l-25 -16l-30 -9l-28 -12l-14 1h-34l-16 5l-12 -1l-16 7h-15l-27 14l-13 13l-11 6l-13 13l-15 22l-13 34l-2 26l-5 31l4 12v17l-3 16l2 16l-2 14l2 30l-3 15v77l2 26l-2 32l4 17l-3 14l2 27l-2 30l3 13l-4 20l2 14v31l2 25 l-2 16v46l4 32l30 2h26z"/>
<glyph glyph-name="Ucircumflex" horiz-adv-x="494" unicode="" d="M284 858l15 -19l7 -11l18 -25l12 -25v-12l-12 -16l-33 13l-24 22l-12 7h-25l-10 -11l-14 -8l-8 -7l-22 -13l-19 3l-5 5v20l15 21l7 13l17 27l15 16h23l13 2l17 -4zM178 695l7 -30l-2 -17v-61l2 -13l-3 -26l4 -15l-3 -18v-17l3 -15l-4 -13v-133l3 -30v-106l-3 -30l5 -45 l18 -21l15 -6l13 2l28 -5l12 8h16l9 16l6 7l5 44l-3 28l4 35l-2 31l2 10l-4 15l3 18l-2 12l1 16l-2 16l4 30l-1 12v34l-2 31v101l2 33l-1 10l-2 32l4 12l-4 20l9 24l25 11h17l12 -4l14 1l31 -8l4 -29v-42l-2 -14l3 -13l-3 -20l2 -14l2 -27v-34l-4 -15v-75l3 -14l-2 -12 l3 -17l-1 -15l-3 -11l2 -19l-2 -10v-30l4 -33l-3 -12v-31l3 -16l-4 -28v-35l-2 -31l-5 -13l-10 -12l-4 -16l-9 -11l-25 -19l-25 -16l-30 -9l-28 -12l-14 1h-34l-16 5l-12 -1l-16 7h-15l-27 14l-13 13l-11 6l-13 13l-15 22l-13 34l-2 26l-5 31l4 12v17l-3 16l2 16l-2 14l2 30 l-3 15v77l2 26l-2 32l4 17l-3 14l2 27l-2 30l3 13l-4 20l2 14v31l2 25l-2 16v46l4 32l30 2h26z"/>
<glyph glyph-name="Udieresis" horiz-adv-x="494" unicode="" d="M270 820l6 10l6 12l26 17l40 -4l23 -22l7 -13l-7 -44l-11 -11l-12 -8l-9 -3l-30 -2l-26 13l-16 26zM119 819l6 14l8 12l23 16l29 -4l15 -6l10 -10l10 -7l5 -13l3 -33l-9 -13l-31 -27l-30 2l-24 13l-17 26zM178 695l7 -30l-2 -17v-61l2 -13l-3 -26l4 -15l-3 -18v-17l3 -15 l-4 -13v-133l3 -30v-106l-3 -30l5 -45l18 -21l15 -6l13 2l28 -5l12 8h16l9 16l6 7l5 44l-3 28l4 35l-2 31l2 10l-4 15l3 18l-2 12l1 16l-2 16l4 30l-1 12v34l-2 31v101l2 33l-1 10l-2 32l4 12l-4 20l9 24l25 11h17l12 -4l14 1l31 -8l4 -29v-42l-2 -14l3 -13l-3 -20l2 -14 l2 -27v-34l-4 -15v-75l3 -14l-2 -12l3 -17l-1 -15l-3 -11l2 -19l-2 -10v-30l4 -33l-3 -12v-31l3 -16l-4 -28v-35l-2 -31l-5 -13l-10 -12l-4 -16l-9 -11l-25 -19l-25 -16l-30 -9l-28 -12l-14 1h-34l-16 5l-12 -1l-16 7h-15l-27 14l-13 13l-11 6l-13 13l-15 22l-13 34l-2 26 l-5 31l4 12v17l-3 16l2 16l-2 14l2 30l-3 15v77l2 26l-2 32l4 17l-3 14l2 27l-2 30l3 13l-4 20l2 14v31l2 25l-2 16v46l4 32l30 2h26z"/>
<glyph glyph-name="Yacute" horiz-adv-x="430" unicode="" d="M194 860h65l13 -13l2 -13l-20 -27l-20 -19l-8 -10l-28 -25l-17 -3l-25 3l-8 18l12 28l2 9l11 15zM48 682l10 10l29 4l17 6l15 -4h29l12 -29l1 -10l7 -17l6 -26l11 -35l2 -13l8 -14l4 -14v-15l9 -11v-20l11 4l6 14l5 26l9 14v18l8 15v15l6 13l8 31l23 53h27l13 5l21 -6h26 l10 -13l-6 -27l-5 -25l-11 -29l-8 -30l-7 -14l-5 -29l-9 -33l-5 -8l-3 -20l-7 -11l-5 -16l-1 -11l-9 -28l-8 -31l-6 -11l-3 -15l-7 -17l-9 -43l4 -15l-4 -12l1 -16l3 -14l-4 -19l4 -14l-4 -15l1 -15l2 -13v-31l-3 -28l4 -12v-17l-3 -17l3 -12l-5 -30l-32 -7l-11 3l-15 -2 l-43 9l-6 23v34l-2 30l4 15l-4 27l4 32v24l-3 20l3 15l-4 25l2 30l-3 34l-6 9l-2 15l-8 15v17l-10 28l-11 29v14l-7 9l-6 20l-6 28l-5 14l-9 27l-13 42l-1 14l-7 13l-6 17v14l-6 14z"/>
<glyph glyph-name="Thorn" horiz-adv-x="452" unicode="" d="M296 367l2 17l-8 31v15l-3 12l-9 13l-21 22l-27 11l-15 2l-17 5l-15 -18v-33l3 -12l-4 -18v-58l4 -17l-3 -10v-32l3 -28l-2 -15v-30l14 -18l15 1l19 7l15 3l21 13l12 14l6 16l3 14l3 31l4 30v32zM179 691l6 -27l-3 -13l4 -18v-15l13 -12l13 -5l19 -2l11 2h18l14 -2l13 -7 l17 -2l13 -8l25 -16l8 -8l12 -7l9 -13l4 -13l10 -10l3 -17l6 -11l2 -18l5 -11l2 -16l-2 -15l2 -15l5 -32l-4 -15l2 -28l-2 -16l1 -14v-34l-5 -29l-8 -28l-6 -10v-17l-9 -16l-15 -25l-24 -13l-23 -19l-13 -3l-14 -7l-16 1l-30 -6l-11 -5l-17 -2l-17 3l-15 -18l2 -10v-20 l2 -14l-7 -33l-28 -4l-17 2l-10 -4l-14 1l-31 6l-7 45l4 33l-4 15l4 25l-4 31l3 20v42l-2 16l2 16l-3 14l1 11v36l1 9v45l-2 18l1 15v32l3 14l-2 13l2 16l-3 14l3 13l-2 30l2 16l-4 15l4 20l-1 12l-2 27v36l7 42l30 2l27 2z"/>
<glyph glyph-name="germandbls" horiz-adv-x="465" unicode="" d="M265 702l13 -8h18l29 -13l12 -8l24 -17l9 -13l6 -14l12 -10l9 -33l9 -15l5 -10v-34l4 -12l-4 -31v-42l-5 -16l-10 -31l-2 -13l-9 -8l-8 -16v-23l16 -30l4 -13l8 -14l2 -13l6 -18l-2 -16v-62l2 -13l-7 -12l-5 -32l-8 -15l-10 -27l-9 -13l-11 -8l-12 -15l-12 -8l-12 -4 l-15 -12l-13 -1l-14 -5l-31 3l-3 40l-4 15l5 44l26 13l12 13l11 25l-1 16l5 15l-4 45l-9 24l-4 17l-10 13l-22 13l-7 42l1 15l-2 15l6 27l23 13l9 10l13 33l5 26v43l-4 18l-13 30l-12 11l-9 4l-66 5l-15 -18l-3 -18l4 -25v-48l-1 -12v-62l-3 -15l2 -12v-34l-2 -16l4 -25 l-4 -15v-19l4 -13l-1 -13v-34l-2 -12v-62l2 -30l-2 -13v-34l3 -30l-3 -16l3 -9l-3 -16v-18l-3 -28l-28 -5l-14 1l-17 -2l-41 8l-8 29l4 10l-4 15l3 21l-3 30l3 25l-2 19l3 25l-2 21l2 14v44l-3 32l2 11l-3 32l4 15l-3 14v32l3 14l-2 15l2 15l-3 16v16l2 27l-2 12v51l3 30v24 l-4 32l2 28v31l7 47l29 4l33 -2l30 6l13 -4h19l12 3l16 -3z"/>
<glyph glyph-name="agrave" horiz-adv-x="426" unicode="" d="M245 187l-2 18l-1 11l-6 18l-1 15v18l-8 27l1 14l-5 15v18l-8 27l2 17l-6 1l-4 -32l-6 -12l-1 -15l-3 -30l-6 -35l-1 -15l-8 -26v-19l-4 -11l15 -16l12 1h27zM239 855l14 -17l4 -15l7 -16l16 -38l-9 -12l-24 -11l-19 6l-29 24l-27 26l-26 34l5 17l52 7l16 -5h20zM263 696 l5 -30l2 -14l5 -10l1 -14l8 -15v-34l4 -15l-1 -9l7 -15l-2 -15l5 -14l1 -16l7 -32l4 -30l4 -10l2 -17l2 -31l8 -29l5 -26l-1 -15l3 -14l7 -32l6 -27l-2 -20l6 -10l3 -18l-2 -14l7 -12v-17l5 -32l7 -24l-1 -16l4 -28v-37l-34 -3l-29 -5l-30 5l-11 29v18l-17 18h-46l-13 -3 l-18 3l-16 -13v-18l-9 -32l-33 -5l-16 4l-12 -6l-35 11l-3 35l7 24v17l6 17l-2 15l2 14l8 27v17l5 11l4 16l-2 14l8 31v16l4 26l7 29l1 14l9 31v18l4 23l4 33l5 32l4 8v18l4 17l1 15l5 9l2 21l4 26l4 14v12l3 17l5 14l2 18l-1 15l13 27l26 3l11 -4h16l14 4z"/>
<glyph glyph-name="aacute" horiz-adv-x="426" unicode="" d="M245 187l-2 18l-1 11l-6 18l-1 15v18l-8 27l1 14l-5 15v18l-8 27l2 17l-6 1l-4 -32l-6 -12l-1 -15l-3 -30l-6 -35l-1 -15l-8 -26v-19l-4 -11l15 -16l12 1h27zM192 860h65l13 -13l2 -13l-20 -27l-20 -19l-8 -10l-28 -25l-17 -3l-25 3l-8 18l12 28l2 9l11 15zM263 696 l5 -30l2 -14l5 -10l1 -14l8 -15v-34l4 -15l-1 -9l7 -15l-2 -15l5 -14l1 -16l7 -32l4 -30l4 -10l2 -17l2 -31l8 -29l5 -26l-1 -15l3 -14l7 -32l6 -27l-2 -20l6 -10l3 -18l-2 -14l7 -12v-17l5 -32l7 -24l-1 -16l4 -28v-37l-34 -3l-29 -5l-30 5l-11 29v18l-17 18h-46l-13 -3 l-18 3l-16 -13v-18l-9 -32l-33 -5l-16 4l-12 -6l-35 11l-3 35l7 24v17l6 17l-2 15l2 14l8 27v17l5 11l4 16l-2 14l8 31v16l4 26l7 29l1 14l9 31v18l4 23l4 33l5 32l4 8v18l4 17l1 15l5 9l2 21l4 26l4 14v12l3 17l5 14l2 18l-1 15l13 27l26 3l11 -4h16l14 4z"/>
<glyph glyph-name="acircumflex" horiz-adv-x="426" unicode="" d="M245 187l-2 18l-1 11l-6 18l-1 15v18l-8 27l1 14l-5 15v18l-8 27l2 17l-6 1l-4 -32l-6 -12l-1 -15l-3 -30l-6 -35l-1 -15l-8 -26v-19l-4 -11l15 -16l12 1h27zM250 858l15 -19l7 -11l18 -25l12 -25v-12l-12 -16l-33 13l-24 22l-12 7h-25l-10 -11l-14 -8l-8 -7l-22 -13 l-19 3l-5 5v20l15 21l7 13l17 27l15 16h23l13 2l17 -4zM263 696l5 -30l2 -14l5 -10l1 -14l8 -15v-34l4 -15l-1 -9l7 -15l-2 -15l5 -14l1 -16l7 -32l4 -30l4 -10l2 -17l2 -31l8 -29l5 -26l-1 -15l3 -14l7 -32l6 -27l-2 -20l6 -10l3 -18l-2 -14l7 -12v-17l5 -32l7 -24l-1 -16 l4 -28v-37l-34 -3l-29 -5l-30 5l-11 29v18l-17 18h-46l-13 -3l-18 3l-16 -13v-18l-9 -32l-33 -5l-16 4l-12 -6l-35 11l-3 35l7 24v17l6 17l-2 15l2 14l8 27v17l5 11l4 16l-2 14l8 31v16l4 26l7 29l1 14l9 31v18l4 23l4 33l5 32l4 8v18l4 17l1 15l5 9l2 21l4 26l4 14v12l3 17 l5 14l2 18l-1 15l13 27l26 3l11 -4h16l14 4z"/>
<glyph glyph-name="atilde" horiz-adv-x="426" unicode="" d="M245 187l-2 18l-1 11l-6 18l-1 15v18l-8 27l1 14l-5 15v18l-8 27l2 17l-6 1l-4 -32l-6 -12l-1 -15l-3 -30l-6 -35l-1 -15l-8 -26v-19l-4 -11l15 -16l12 1h27zM72 802l15 18l7 17l14 9l24 9h31l13 -4h17l14 -9l12 -2l15 -9l16 -5l34 3l15 5h31l17 -16v-19l-15 -18l-26 -13 l-25 -17h-30l-14 8l-15 5l-26 13l-24 9h-26l-13 -6l-45 -5l-11 15zM263 696l5 -30l2 -14l5 -10l1 -14l8 -15v-34l4 -15l-1 -9l7 -15l-2 -15l5 -14l1 -16l7 -32l4 -30l4 -10l2 -17l2 -31l8 -29l5 -26l-1 -15l3 -14l7 -32l6 -27l-2 -20l6 -10l3 -18l-2 -14l7 -12v-17l5 -32 l7 -24l-1 -16l4 -28v-37l-34 -3l-29 -5l-30 5l-11 29v18l-17 18h-46l-13 -3l-18 3l-16 -13v-18l-9 -32l-33 -5l-16 4l-12 -6l-35 11l-3 35l7 24v17l6 17l-2 15l2 14l8 27v17l5 11l4 16l-2 14l8 31v16l4 26l7 29l1 14l9 31v18l4 23l4 33l5 32l4 8v18l4 17l1 15l5 9l2 21l4 26 l4 14v12l3 17l5 14l2 18l-1 15l13 27l26 3l11 -4h16l14 4z"/>
<glyph glyph-name="adieresis" horiz-adv-x="426" unicode="" d="M245 187l-2 18l-1 11l-6 18l-1 15v18l-8 27l1 14l-5 15v18l-8 27l2 17l-6 1l-4 -32l-6 -12l-1 -15l-3 -30l-6 -35l-1 -15l-8 -26v-19l-4 -11l15 -16l12 1h27zM236 820l6 10l6 12l26 17l40 -4l23 -22l7 -13l-7 -44l-11 -11l-12 -8l-9 -3l-30 -2l-26 13l-16 26zM85 819 l6 14l8 12l23 16l29 -4l15 -6l10 -10l10 -7l5 -13l3 -33l-9 -13l-31 -27l-30 2l-24 13l-17 26zM263 696l5 -30l2 -14l5 -10l1 -14l8 -15v-34l4 -15l-1 -9l7 -15l-2 -15l5 -14l1 -16l7 -32l4 -30l4 -10l2 -17l2 -31l8 -29l5 -26l-1 -15l3 -14l7 -32l6 -27l-2 -20l6 -10l3 -18 l-2 -14l7 -12v-17l5 -32l7 -24l-1 -16l4 -28v-37l-34 -3l-29 -5l-30 5l-11 29v18l-17 18h-46l-13 -3l-18 3l-16 -13v-18l-9 -32l-33 -5l-16 4l-12 -6l-35 11l-3 35l7 24v17l6 17l-2 15l2 14l8 27v17l5 11l4 16l-2 14l8 31v16l4 26l7 29l1 14l9 31v18l4 23l4 33l5 32l4 8v18 l4 17l1 15l5 9l2 21l4 26l4 14v12l3 17l5 14l2 18l-1 15l13 27l26 3l11 -4h16l14 4z"/>
<glyph glyph-name="aring" horiz-adv-x="426" unicode="" d="M185 790l10 -20l33 5l11 13v32l-11 19h-31l-12 -15v-34zM245 187l-2 18l-1 11l-6 18l-1 15v18l-8 27l1 14l-5 15v18l-8 27l2 17l-6 1l-4 -32l-6 -12l-1 -15l-3 -30l-6 -35l-1 -15l-8 -26v-19l-4 -11l15 -16l12 1h27zM146 817l1 21l5 8l5 14l14 10l10 12l14 -2h47l24 -18 l13 -30l4 -46l-2 -9l-9 -17l-18 -24l-24 -10l-45 3l-14 7l-13 13l-8 12l-4 12v44zM263 696l5 -30l2 -14l5 -10l1 -14l8 -15v-34l4 -15l-1 -9l7 -15l-2 -15l5 -14l1 -16l7 -32l4 -30l4 -10l2 -17l2 -31l8 -29l5 -26l-1 -15l3 -14l7 -32l6 -27l-2 -20l6 -10l3 -18l-2 -14 l7 -12v-17l5 -32l7 -24l-1 -16l4 -28v-37l-34 -3l-29 -5l-30 5l-11 29v18l-17 18h-46l-13 -3l-18 3l-16 -13v-18l-9 -32l-33 -5l-16 4l-12 -6l-35 11l-3 35l7 24v17l6 17l-2 15l2 14l8 27v17l5 11l4 16l-2 14l8 31v16l4 26l7 29l1 14l9 31v18l4 23l4 33l5 32l4 8v18l4 17 l1 15l5 9l2 21l4 26l4 14v12l3 17l5 14l2 18l-1 15l13 27l26 3l11 -4h16l14 4z"/>
<glyph glyph-name="ae" horiz-adv-x="705" unicode="" d="M336 455l-6 -19l-13 -23l-12 -28l-4 -19l-6 -9l-4 -17l-7 -14l-13 -27l-2 -13l-13 -27l-4 -17l-10 -12l-2 -17l-9 -12l-2 -13l9 -13l12 -4l16 -1l14 3l30 -2l18 3l14 12v17l-2 13l1 16l-2 15l2 17l-1 12l2 32l-3 13l-1 15l1 14v30l3 11l-4 16l2 16l2 28zM637 695l9 -29 l-4 -27l1 -15l-4 -29l-27 -3l-15 -6l-16 4h-29l-14 -4l-14 5l-14 -4l-17 3l-15 -2l-13 4l-17 -21v-15l4 -15v-12l-3 -20l3 -27l-4 -33l1 -11v-20l16 -16l14 2h30l26 -3l33 6l29 -6l15 3l26 -8l6 -27l-2 -25l4 -19l-6 -22l-31 -12l-13 6l-16 -6l-15 2l-28 4l-27 -4l-15 1 l-14 -3h-18l-15 -15l3 -15l-3 -15l4 -32v-28l-2 -32l-2 -26l17 -20l13 -2l15 1l13 5h19l28 -3l11 2l17 -5l29 4l28 -8l7 -26l-2 -14l3 -16v-10l-7 -30l-27 -7l-19 2l-12 -4l-15 5l-14 -5l-14 5l-17 -6l-16 5l-14 -3l-14 3h-12l-18 -5l-30 5l-11 -5l-14 3h-17l-27 3l-9 47 l-12 16l-15 4l-30 -3l-17 2l-13 -2h-27l-31 -3l-20 -13l-8 -10l-3 -13l-11 -23l-28 -5l-15 3l-16 -2l-29 5l-9 13l6 28l15 26l5 18l6 10l3 16l13 24l11 30l11 32l9 14l4 13l13 27l3 11l8 13l2 15l8 15l5 15l12 27l3 13l13 28l4 15l10 18l5 13l9 27l6 10l5 18l14 29l3 13 l14 25l4 19l5 12l13 27l13 25l3 13l18 43h57l29 -2h31l13 2h61l13 -3h28l17 3l15 -1z"/>
<glyph glyph-name="ccedilla" horiz-adv-x="440" unicode="" d="M50 550l1 16l2 11l14 33l11 24l11 11l17 26l12 12l17 7l10 7l17 6l26 9h50l30 -9l25 -6l14 -10l14 -5l34 -36l4 -11l9 -16l13 -23l2 -20l7 -25v-38l-7 -28l-29 -6l-11 2l-28 -4l-30 9l-8 30l3 34l-3 10l-9 14l-5 12l-11 10l-18 4l-27 3l-16 -6l-13 -12l-7 -14l-8 -9 l-3 -17v-151l-3 -29v-32l4 -15l-4 -11l2 -21l-2 -14l4 -13l-2 -16v-88l6 -14l2 -19l12 -7l11 -10l14 -3l29 -2l30 14l8 10l6 14l4 15v29l6 35l27 4l12 -4h28l31 -5l3 -28v-48l-4 -16l-6 -11v-17l-10 -10l-6 -17l-9 -11l-18 -25l-13 -6l-24 -19l-11 -3l-31 -12l-17 -17v-19 l11 -15l12 -7l14 -1l11 -12l18 -19l2 -13v-30l-12 -28l-10 -9l-13 -2l-31 -12l-30 3l-30 11l-12 1l-23 20l9 26l49 -8l29 2l4 32l-22 12l-11 10l-26 5l-9 13l4 24l7 17l-9 22l-14 8l-27 7l-26 19l-10 11l-10 16l-9 10l-5 15l-9 8l-5 18v17l-5 25v32l-2 29l2 17l-3 11v29 l2 13l-3 21l3 10l-2 30l1 14l-2 33l4 16v15l-4 8l4 15v21l-4 11l1 14l2 29v33z"/>
<glyph glyph-name="egrave" horiz-adv-x="439" unicode="" d="M243 855l14 -17l4 -15l7 -16l16 -38l-9 -12l-24 -11l-19 6l-29 24l-27 26l-26 34l5 17l52 7l16 -5h20zM371 695l5 -29l3 -18l-2 -8l3 -17l-5 -26l-31 -8l-16 -2l-11 5h-16l-29 -6l-17 2h-43l-11 -2l-15 -10v-76l-4 -16l3 -17v-46l13 -16l16 -3h15l11 4l29 -5l16 5h59 l33 -7v-43l3 -15l-1 -15l-7 -29l-43 -6l-15 5l-16 -4l-10 5h-15l-16 -5l-14 -1l-31 5l-15 -3l-12 -16v-27l-3 -17l4 -19v-11l-3 -33l3 -33l-4 -11l17 -15l13 -2l16 3l13 -4h44l28 3l16 -5l17 6l29 -10l4 -43l-2 -14l3 -14l-9 -29h-26l-33 -5h-44l-14 4l-26 -2l-16 3h-16 l-16 -4l-11 1l-17 -3h-15l-13 5l-13 -1l-29 3l-9 33l3 13v14l-4 18l4 10v51l-3 28v74l3 12v33l-4 13l4 14l-3 31l2 33v30l-3 14l2 31l2 30l-3 16l2 16l-3 13l3 15l1 13v60l-3 19v25l6 33l29 5l15 -3l14 3l31 -4l15 4l13 -4l15 4l32 -3l11 5l15 -4l17 -2l13 4l14 -1l14 3z "/>
<glyph glyph-name="eacute" horiz-adv-x="439" unicode="" d="M196 860h65l13 -13l2 -13l-20 -27l-20 -19l-8 -10l-28 -25l-17 -3l-25 3l-8 18l12 28l2 9l11 15zM371 695l5 -29l3 -18l-2 -8l3 -17l-5 -26l-31 -8l-16 -2l-11 5h-16l-29 -6l-17 2h-43l-11 -2l-15 -10v-76l-4 -16l3 -17v-46l13 -16l16 -3h15l11 4l29 -5l16 5h59l33 -7 v-43l3 -15l-1 -15l-7 -29l-43 -6l-15 5l-16 -4l-10 5h-15l-16 -5l-14 -1l-31 5l-15 -3l-12 -16v-27l-3 -17l4 -19v-11l-3 -33l3 -33l-4 -11l17 -15l13 -2l16 3l13 -4h44l28 3l16 -5l17 6l29 -10l4 -43l-2 -14l3 -14l-9 -29h-26l-33 -5h-44l-14 4l-26 -2l-16 3h-16l-16 -4 l-11 1l-17 -3h-15l-13 5l-13 -1l-29 3l-9 33l3 13v14l-4 18l4 10v51l-3 28v74l3 12v33l-4 13l4 14l-3 31l2 33v30l-3 14l2 31l2 30l-3 16l2 16l-3 13l3 15l1 13v60l-3 19v25l6 33l29 5l15 -3l14 3l31 -4l15 4l13 -4l15 4l32 -3l11 5l15 -4l17 -2l13 4l14 -1l14 3z"/>
<glyph glyph-name="ecircumflex" horiz-adv-x="439" unicode="" d="M254 858l15 -19l7 -11l18 -25l12 -25v-12l-12 -16l-33 13l-24 22l-12 7h-25l-10 -11l-14 -8l-8 -7l-22 -13l-19 3l-5 5v20l15 21l7 13l17 27l15 16h23l13 2l17 -4zM371 695l5 -29l3 -18l-2 -8l3 -17l-5 -26l-31 -8l-16 -2l-11 5h-16l-29 -6l-17 2h-43l-11 -2l-15 -10v-76 l-4 -16l3 -17v-46l13 -16l16 -3h15l11 4l29 -5l16 5h59l33 -7v-43l3 -15l-1 -15l-7 -29l-43 -6l-15 5l-16 -4l-10 5h-15l-16 -5l-14 -1l-31 5l-15 -3l-12 -16v-27l-3 -17l4 -19v-11l-3 -33l3 -33l-4 -11l17 -15l13 -2l16 3l13 -4h44l28 3l16 -5l17 6l29 -10l4 -43l-2 -14 l3 -14l-9 -29h-26l-33 -5h-44l-14 4l-26 -2l-16 3h-16l-16 -4l-11 1l-17 -3h-15l-13 5l-13 -1l-29 3l-9 33l3 13v14l-4 18l4 10v51l-3 28v74l3 12v33l-4 13l4 14l-3 31l2 33v30l-3 14l2 31l2 30l-3 16l2 16l-3 13l3 15l1 13v60l-3 19v25l6 33l29 5l15 -3l14 3l31 -4l15 4 l13 -4l15 4l32 -3l11 5l15 -4l17 -2l13 4l14 -1l14 3z"/>
<glyph glyph-name="edieresis" horiz-adv-x="439" unicode="" d="M240 820l6 10l6 12l26 17l40 -4l23 -22l7 -13l-7 -44l-11 -11l-12 -8l-9 -3l-30 -2l-26 13l-16 26zM89 819l6 14l8 12l23 16l29 -4l15 -6l10 -10l10 -7l5 -13l3 -33l-9 -13l-31 -27l-30 2l-24 13l-17 26zM371 695l5 -29l3 -18l-2 -8l3 -17l-5 -26l-31 -8l-16 -2l-11 5 h-16l-29 -6l-17 2h-43l-11 -2l-15 -10v-76l-4 -16l3 -17v-46l13 -16l16 -3h15l11 4l29 -5l16 5h59l33 -7v-43l3 -15l-1 -15l-7 -29l-43 -6l-15 5l-16 -4l-10 5h-15l-16 -5l-14 -1l-31 5l-15 -3l-12 -16v-27l-3 -17l4 -19v-11l-3 -33l3 -33l-4 -11l17 -15l13 -2l16 3l13 -4 h44l28 3l16 -5l17 6l29 -10l4 -43l-2 -14l3 -14l-9 -29h-26l-33 -5h-44l-14 4l-26 -2l-16 3h-16l-16 -4l-11 1l-17 -3h-15l-13 5l-13 -1l-29 3l-9 33l3 13v14l-4 18l4 10v51l-3 28v74l3 12v33l-4 13l4 14l-3 31l2 33v30l-3 14l2 31l2 30l-3 16l2 16l-3 13l3 15l1 13v60 l-3 19v25l6 33l29 5l15 -3l14 3l31 -4l15 4l13 -4l15 4l32 -3l11 5l15 -4l17 -2l13 4l14 -1l14 3z"/>
<glyph glyph-name="igrave" d="M126 855l14 -17l4 -15l7 -16l16 -38l-9 -12l-24 -11l-19 6l-29 24l-27 26l-26 34l5 17l52 7l16 -5h20zM177 696l6 -32l3 -28v-35l-2 -9v-31l-2 -19l4 -26l-3 -20v-84l3 -31l-4 -14l3 -35v-29l-1 -11v-19l-2 -11v-21l3 -10v-47l-3 -30l3 -12v-18l-3 -27l4 -35l-3 -10v-17 l-6 -27l-25 -9l-16 1l-12 -2l-14 1l-31 6l-7 29l4 27l-2 17v62l-2 15l2 14l-2 13l4 15l-3 16v34l1 10v65l2 11v15l-3 18v59l3 12l-2 16l2 19l-4 27v32l3 16l-1 12l2 15l-4 18l3 11l-3 16v48l7 30l31 4l10 -3l16 4z" unicode=""/>
<glyph glyph-name="iacute" d="M139 860h65l13 -13l2 -13l-20 -27l-20 -19l-8 -10l-28 -25l-17 -3l-25 3l-8 18l12 28l2 9l11 15zM177 696l6 -32l3 -28v-35l-2 -9v-31l-2 -19l4 -26l-3 -20v-84l3 -31l-4 -14l3 -35v-29l-1 -11v-19l-2 -11v-21l3 -10v-47l-3 -30l3 -12v-18l-3 -27l4 -35l-3 -10v-17 l-6 -27l-25 -9l-16 1l-12 -2l-14 1l-31 6l-7 29l4 27l-2 17v62l-2 15l2 14l-2 13l4 15l-3 16v34l1 10v65l2 11v15l-3 18v59l3 12l-2 16l2 19l-4 27v32l3 16l-1 12l2 15l-4 18l3 11l-3 16v48l7 30l31 4l10 -3l16 4z" unicode=""/>
<glyph glyph-name="icircumflex" d="M167 858l15 -19l7 -11l18 -25l12 -25v-12l-12 -16l-33 13l-24 22l-12 7h-25l-10 -11l-14 -8l-8 -7l-22 -13l-19 3l-5 5v20l15 21l7 13l17 27l15 16h23l13 2l17 -4zM177 696l6 -32l3 -28v-35l-2 -9v-31l-2 -19l4 -26l-3 -20v-84l3 -31l-4 -14l3 -35v-29l-1 -11v-19l-2 -11 v-21l3 -10v-47l-3 -30l3 -12v-18l-3 -27l4 -35l-3 -10v-17l-6 -27l-25 -9l-16 1l-12 -2l-14 1l-31 6l-7 29l4 27l-2 17v62l-2 15l2 14l-2 13l4 15l-3 16v34l1 10v65l2 11v15l-3 18v59l3 12l-2 16l2 19l-4 27v32l3 16l-1 12l2 15l-4 18l3 11l-3 16v48l7 30l31 4l10 -3l16 4z " unicode=""/>
<glyph glyph-name="idieresis" d="M153 820l6 10l6 12l26 17l40 -4l23 -22l7 -13l-7 -44l-11 -11l-12 -8l-9 -3l-30 -2l-26 13l-16 26zM2 819l6 14l8 12l23 16l29 -4l15 -6l10 -10l10 -7l5 -13l3 -33l-9 -13l-31 -27l-30 2l-24 13l-17 26zM177 696l6 -32l3 -28v-35l-2 -9v-31l-2 -19l4 -26l-3 -20v-84 l3 -31l-4 -14l3 -35v-29l-1 -11v-19l-2 -11v-21l3 -10v-47l-3 -30l3 -12v-18l-3 -27l4 -35l-3 -10v-17l-6 -27l-25 -9l-16 1l-12 -2l-14 1l-31 6l-7 29l4 27l-2 17v62l-2 15l2 14l-2 13l4 15l-3 16v34l1 10v65l2 11v15l-3 18v59l3 12l-2 16l2 19l-4 27v32l3 16l-1 12l2 15 l-4 18l3 11l-3 16v48l7 30l31 4l10 -3l16 4z" unicode=""/>
<glyph glyph-name="eth" horiz-adv-x="592" unicode="" d="M280 362l5 -30l-7 -24l-30 -12l-12 -8v-63l-3 -31l3 -9v-14l-3 -30v-15l19 -20l13 4h63l31 12l13 10l10 3l8 12l13 13l6 15l8 9l7 14l10 32l8 14v14l6 13l4 33l-3 12l4 20v30l-4 12v34l-3 16l-4 10l-2 15l-8 15l-1 12l-9 15l-4 15l-9 12l-18 27l-21 17l-15 6l-11 8l-30 8 h-63l-16 -13l-2 -12l4 -29v-31l-3 -16l2 -30l-2 -13l3 -14l-3 -14v-34l15 -13zM314 702l13 -4l13 -2l15 -7l18 2l14 -6l12 -10l14 -3l13 -9l9 -11l14 -8l18 -16l18 -27l19 -21l13 -24l7 -19l10 -25l9 -28l11 -47l2 -25l6 -18l-3 -16l2 -15v-26l-3 -30l1 -16l-5 -17v-27 l-7 -16l-1 -16l-8 -31l-13 -23l-9 -29l-8 -12l-11 -12l-7 -12l-18 -23l-24 -21l-8 -11l-14 -5l-27 -18l-27 -9l-31 -9h-30l-26 2l-18 -3l-14 3h-30l-14 -4l-17 4l-16 -6l-44 8l-6 43v18l-2 11l2 31l-2 17l3 16l-4 28l4 11v59l-4 35l3 14l-16 9l-32 10l-4 25l8 35h28l14 19 l2 28l-3 31l2 31v113l-2 15l3 34l-3 29l9 27l28 3h45l19 5l27 -2l18 2l15 -5z"/>
<glyph glyph-name="ntilde" horiz-adv-x="492" unicode="" d="M105 802l15 18l7 17l14 9l24 9h31l13 -4h17l14 -9l12 -2l15 -9l16 -5l34 3l15 5h31l17 -16v-19l-15 -18l-26 -13l-25 -17h-30l-14 8l-15 5l-26 13l-24 9h-26l-13 -6l-45 -5l-11 15zM180 696l7 -24l6 -11l3 -17l9 -12v-17l11 -27l10 -27l9 -33l5 -12l1 -11l6 -16l14 -42 l10 -27l3 -19l11 -27l2 -15l12 -30l1 -14h4l4 36l-3 13v63l3 24l-3 20l3 13l-4 12l3 15v36l-3 10l2 18l-2 11v36l4 27l-1 12l7 32l25 7l15 2l16 -3l11 3l28 -6l6 -31v-16l3 -31l-3 -15l2 -11v-36l-2 -15l3 -11v-29l-4 -17v-27l4 -18l-1 -12v-21l-3 -13v-17l3 -29l-3 -11 l3 -32l-1 -13l2 -14l-1 -16v-75l-3 -20l4 -28l-2 -11l2 -19l-3 -16l1 -13l-2 -13l4 -16l-5 -15v-29l-31 -5h-14l-17 -5l-12 1l-28 8l-17 38l-7 29l-7 25l-7 12l-3 17l-6 12l-4 19l-5 13l-3 15l-11 27l-9 26l-7 27l-8 31l-8 14l-5 27l-6 17l-6 11l-3 18l-6 -2l3 -17l-4 -14 l3 -13v-46l-3 -29l4 -31l-4 -16l2 -17l-2 -11l4 -17l-2 -12l2 -19l-4 -27v-49l3 -25l-5 -36h-31l-14 -3h-28l-31 5v47l-3 13l2 13v93l-3 26v36l2 10v17l2 16l-3 30v17l2 28l-2 14l2 28l-3 35l2 15v70l-2 33l3 27l-3 14v32l4 33l-4 15l7 31l30 5l12 -1l18 -5l12 6z"/>
<glyph glyph-name="ograve" horiz-adv-x="445" unicode="" d="M248 855l14 -17l4 -15l7 -16l16 -38l-9 -12l-24 -11l-19 6l-29 24l-27 26l-26 34l5 17l52 7l16 -5h20zM170 132l6 -12l12 -14l16 -4l30 -3l12 4l15 9l7 7l8 15v26l-4 20l3 30l-2 12l2 17l-3 28l3 27v34l-2 11v34l3 28l-4 10l2 21l-1 12l3 29l-2 31v32l-5 38l-7 14l-13 10 l-12 4h-27l-14 -10l-20 -14l-6 -15v-29l-2 -13l1 -15l-2 -29l3 -21l-1 -9l2 -19l-3 -13l2 -27l-2 -18l3 -12l-2 -14v-35l2 -11l-3 -33l1 -13l-2 -31l4 -28l-1 -14v-47zM62 563l1 14l7 30l6 13l10 13l6 16l7 10l14 7l9 11l14 10l28 15h15l11 7l16 5l45 -5l17 -5l14 -1l28 -17 l23 -17l9 -14l11 -9l5 -11l10 -15l4 -15l10 -24v-47l3 -13v-20l-3 -29l4 -11v-19l-4 -26l4 -19l-4 -30l3 -13l-3 -14l4 -11v-48l-4 -11l4 -17v-74l-3 -15l2 -33l-7 -26l-11 -26l-15 -29l-8 -10l-23 -19l-12 -13l-41 -12l-33 -11l-27 7h-32l-15 7l-27 12l-22 17l-22 20 l-12 25l-15 32l-4 25v34l2 11l-3 21v26l2 32l-3 14l2 10l-2 19v30l3 14l-1 11v65l2 9l-3 18l2 13l-1 16v18l-2 10v15z"/>
<glyph glyph-name="oacute" horiz-adv-x="445" unicode="" d="M201 860h65l13 -13l2 -13l-20 -27l-20 -19l-8 -10l-28 -25l-17 -3l-25 3l-8 18l12 28l2 9l11 15zM170 132l6 -12l12 -14l16 -4l30 -3l12 4l15 9l7 7l8 15v26l-4 20l3 30l-2 12l2 17l-3 28l3 27v34l-2 11v34l3 28l-4 10l2 21l-1 12l3 29l-2 31v32l-5 38l-7 14l-13 10 l-12 4h-27l-14 -10l-20 -14l-6 -15v-29l-2 -13l1 -15l-2 -29l3 -21l-1 -9l2 -19l-3 -13l2 -27l-2 -18l3 -12l-2 -14v-35l2 -11l-3 -33l1 -13l-2 -31l4 -28l-1 -14v-47zM62 563l1 14l7 30l6 13l10 13l6 16l7 10l14 7l9 11l14 10l28 15h15l11 7l16 5l45 -5l17 -5l14 -1l28 -17 l23 -17l9 -14l11 -9l5 -11l10 -15l4 -15l10 -24v-47l3 -13v-20l-3 -29l4 -11v-19l-4 -26l4 -19l-4 -30l3 -13l-3 -14l4 -11v-48l-4 -11l4 -17v-74l-3 -15l2 -33l-7 -26l-11 -26l-15 -29l-8 -10l-23 -19l-12 -13l-41 -12l-33 -11l-27 7h-32l-15 7l-27 12l-22 17l-22 20 l-12 25l-15 32l-4 25v34l2 11l-3 21v26l2 32l-3 14l2 10l-2 19v30l3 14l-1 11v65l2 9l-3 18l2 13l-1 16v18l-2 10v15z"/>
<glyph glyph-name="ocircumflex" horiz-adv-x="445" unicode="" d="M259 858l15 -19l7 -11l18 -25l12 -25v-12l-12 -16l-33 13l-24 22l-12 7h-25l-10 -11l-14 -8l-8 -7l-22 -13l-19 3l-5 5v20l15 21l7 13l17 27l15 16h23l13 2l17 -4zM170 132l6 -12l12 -14l16 -4l30 -3l12 4l15 9l7 7l8 15v26l-4 20l3 30l-2 12l2 17l-3 28l3 27v34l-2 11 v34l3 28l-4 10l2 21l-1 12l3 29l-2 31v32l-5 38l-7 14l-13 10l-12 4h-27l-14 -10l-20 -14l-6 -15v-29l-2 -13l1 -15l-2 -29l3 -21l-1 -9l2 -19l-3 -13l2 -27l-2 -18l3 -12l-2 -14v-35l2 -11l-3 -33l1 -13l-2 -31l4 -28l-1 -14v-47zM62 563l1 14l7 30l6 13l10 13l6 16l7 10 l14 7l9 11l14 10l28 15h15l11 7l16 5l45 -5l17 -5l14 -1l28 -17l23 -17l9 -14l11 -9l5 -11l10 -15l4 -15l10 -24v-47l3 -13v-20l-3 -29l4 -11v-19l-4 -26l4 -19l-4 -30l3 -13l-3 -14l4 -11v-48l-4 -11l4 -17v-74l-3 -15l2 -33l-7 -26l-11 -26l-15 -29l-8 -10l-23 -19 l-12 -13l-41 -12l-33 -11l-27 7h-32l-15 7l-27 12l-22 17l-22 20l-12 25l-15 32l-4 25v34l2 11l-3 21v26l2 32l-3 14l2 10l-2 19v30l3 14l-1 11v65l2 9l-3 18l2 13l-1 16v18l-2 10v15z"/>
<glyph glyph-name="otilde" horiz-adv-x="445" unicode="" d="M81 802l15 18l7 17l14 9l24 9h31l13 -4h17l14 -9l12 -2l15 -9l16 -5l34 3l15 5h31l17 -16v-19l-15 -18l-26 -13l-25 -17h-30l-14 8l-15 5l-26 13l-24 9h-26l-13 -6l-45 -5l-11 15zM170 132l6 -12l12 -14l16 -4l30 -3l12 4l15 9l7 7l8 15v26l-4 20l3 30l-2 12l2 17l-3 28 l3 27v34l-2 11v34l3 28l-4 10l2 21l-1 12l3 29l-2 31v32l-5 38l-7 14l-13 10l-12 4h-27l-14 -10l-20 -14l-6 -15v-29l-2 -13l1 -15l-2 -29l3 -21l-1 -9l2 -19l-3 -13l2 -27l-2 -18l3 -12l-2 -14v-35l2 -11l-3 -33l1 -13l-2 -31l4 -28l-1 -14v-47zM62 563l1 14l7 30l6 13 l10 13l6 16l7 10l14 7l9 11l14 10l28 15h15l11 7l16 5l45 -5l17 -5l14 -1l28 -17l23 -17l9 -14l11 -9l5 -11l10 -15l4 -15l10 -24v-47l3 -13v-20l-3 -29l4 -11v-19l-4 -26l4 -19l-4 -30l3 -13l-3 -14l4 -11v-48l-4 -11l4 -17v-74l-3 -15l2 -33l-7 -26l-11 -26l-15 -29 l-8 -10l-23 -19l-12 -13l-41 -12l-33 -11l-27 7h-32l-15 7l-27 12l-22 17l-22 20l-12 25l-15 32l-4 25v34l2 11l-3 21v26l2 32l-3 14l2 10l-2 19v30l3 14l-1 11v65l2 9l-3 18l2 13l-1 16v18l-2 10v15z"/>
<glyph glyph-name="odieresis" horiz-adv-x="445" unicode="" d="M245 820l6 10l6 12l26 17l40 -4l23 -22l7 -13l-7 -44l-11 -11l-12 -8l-9 -3l-30 -2l-26 13l-16 26zM94 819l6 14l8 12l23 16l29 -4l15 -6l10 -10l10 -7l5 -13l3 -33l-9 -13l-31 -27l-30 2l-24 13l-17 26zM170 132l6 -12l12 -14l16 -4l30 -3l12 4l15 9l7 7l8 15v26l-4 20 l3 30l-2 12l2 17l-3 28l3 27v34l-2 11v34l3 28l-4 10l2 21l-1 12l3 29l-2 31v32l-5 38l-7 14l-13 10l-12 4h-27l-14 -10l-20 -14l-6 -15v-29l-2 -13l1 -15l-2 -29l3 -21l-1 -9l2 -19l-3 -13l2 -27l-2 -18l3 -12l-2 -14v-35l2 -11l-3 -33l1 -13l-2 -31l4 -28l-1 -14v-47z M62 563l1 14l7 30l6 13l10 13l6 16l7 10l14 7l9 11l14 10l28 15h15l11 7l16 5l45 -5l17 -5l14 -1l28 -17l23 -17l9 -14l11 -9l5 -11l10 -15l4 -15l10 -24v-47l3 -13v-20l-3 -29l4 -11v-19l-4 -26l4 -19l-4 -30l3 -13l-3 -14l4 -11v-48l-4 -11l4 -17v-74l-3 -15l2 -33l-7 -26 l-11 -26l-15 -29l-8 -10l-23 -19l-12 -13l-41 -12l-33 -11l-27 7h-32l-15 7l-27 12l-22 17l-22 20l-12 25l-15 32l-4 25v34l2 11l-3 21v26l2 32l-3 14l2 10l-2 19v30l3 14l-1 11v65l2 9l-3 18l2 13l-1 16v18l-2 10v15z"/>
<glyph glyph-name="divide" horiz-adv-x="300" unicode="" d="M99 534l8 16l8 8l26 17l41 -5l11 -14l10 -7l4 -16v-26l-7 -16l-8 -11l-11 -7l-12 -4l-31 -5l-11 11l-10 5l-18 23v31zM99 209l8 16l8 8l26 17l41 -5l11 -14l10 -7l4 -16v-26l-7 -16l-8 -11l-11 -7l-12 -4l-31 -5l-11 11l-10 5l-18 23v31zM251 394l5 -29l-4 -17l-4 -37 h-27l-31 -3h-93l-15 5h-30l-8 32v17l7 30l30 5l12 4h32l17 -5l15 4l15 -4l15 5h18l15 -4z"/>
<glyph glyph-name="oslash" horiz-adv-x="445" unicode="" d="M234 99l12 3l11 5l11 13l4 15l3 41l-3 30v47l4 13v58l-2 12l-7 2l-14 -6l-9 -13l-8 -16l-9 -7l-18 -23l-22 -29l-6 -11l-10 -28l-4 -28l6 -44l7 -17l12 -7l12 -12zM276 459v12l-4 16v47l2 27l-15 26l-11 7l-14 4h-36l-24 -24l-2 -14l-5 -40l2 -14v-19l-2 -14l4 -13v-29 l-2 -13l2 -18l-4 -16v-25l4 -31l6 -8l13 14l20 26l17 24l17 25l11 7l8 12zM59 566l2 10l3 19l12 26l8 12l6 15l9 10l13 9l9 13l27 12l14 12l16 1l13 4l15 -1l29 3l19 -4l14 1l11 -9l17 -6l24 -12l10 -13l10 -7l21 -29l6 -14l13 -26v-17l6 -13l-2 -32l2 -26l-2 -18l-2 -24 l3 -21v-87l-3 -14l4 -27l-3 -20v-28l2 -13l-3 -15l3 -14l-3 -13l2 -19v-31l-2 -27l-3 -16l-4 -26l-6 -13l-20 -26l-6 -16l-14 -4l-12 -14l-12 -8l-12 -5l-11 -8l-32 -10h-14l-31 5l-14 -4l-16 4l-25 13l-12 4l-27 23l-18 17l-18 27l-6 13l-3 18l-7 23v35l2 11l-4 15v15l2 15 v29l2 17l-2 14v148l-2 17l3 12l1 16l-4 13l2 18l2 30z"/>
<glyph glyph-name="ugrave" horiz-adv-x="454" unicode="" d="M253 855l14 -17l4 -15l7 -16l16 -38l-9 -12l-24 -11l-19 6l-29 24l-27 26l-26 34l5 17l52 7l16 -5h20zM178 693l4 -32l2 -15v-44l-2 -11l4 -17l-3 -14l3 -18v-28l-3 -18l3 -9v-31l-4 -19l4 -28v-31l-3 -18l2 -24l-3 -21l4 -9v-51l-2 -26v-33l2 -28l-4 -32l7 -26l12 -4 l10 -6h27l26 12l6 27l-4 16l3 13v29l-3 17l4 11l-4 15v48l2 16l-2 30l2 14v17l2 30l-4 28l3 17v42l-2 19l2 13v18l-2 26l2 15v19l-3 29v29l4 13l5 31l39 7l17 -5l12 2l33 -3v-47l4 -16v-14l-4 -31v-61l2 -9l-2 -20l4 -30l-3 -12v-34l3 -30l-4 -12v-17l3 -12v-20l-3 -30 l3 -27v-32l-3 -16l4 -12l-2 -13l2 -18l-2 -16l2 -11l-2 -18v-33l-4 -8l-5 -21l-13 -24l-20 -20l-8 -13l-16 -6l-26 -15l-16 -2l-15 -7l-44 -3l-13 6l-15 -1l-14 5l-27 14l-13 13l-14 6l-10 15l-10 6l-14 29l-5 27l-4 32v47l4 12v18l-3 15v57l3 17l-3 17l2 14l-3 30l2 11 l-1 16l3 35l-2 14l2 13l-3 17l2 14v27l-3 15l4 36l-4 28l4 17l-1 14v26l-3 20l9 26l25 9l30 -4l16 3z"/>
<glyph glyph-name="uacute" horiz-adv-x="454" unicode="" d="M206 860h65l13 -13l2 -13l-20 -27l-20 -19l-8 -10l-28 -25l-17 -3l-25 3l-8 18l12 28l2 9l11 15zM178 693l4 -32l2 -15v-44l-2 -11l4 -17l-3 -14l3 -18v-28l-3 -18l3 -9v-31l-4 -19l4 -28v-31l-3 -18l2 -24l-3 -21l4 -9v-51l-2 -26v-33l2 -28l-4 -32l7 -26l12 -4l10 -6 h27l26 12l6 27l-4 16l3 13v29l-3 17l4 11l-4 15v48l2 16l-2 30l2 14v17l2 30l-4 28l3 17v42l-2 19l2 13v18l-2 26l2 15v19l-3 29v29l4 13l5 31l39 7l17 -5l12 2l33 -3v-47l4 -16v-14l-4 -31v-61l2 -9l-2 -20l4 -30l-3 -12v-34l3 -30l-4 -12v-17l3 -12v-20l-3 -30l3 -27v-32 l-3 -16l4 -12l-2 -13l2 -18l-2 -16l2 -11l-2 -18v-33l-4 -8l-5 -21l-13 -24l-20 -20l-8 -13l-16 -6l-26 -15l-16 -2l-15 -7l-44 -3l-13 6l-15 -1l-14 5l-27 14l-13 13l-14 6l-10 15l-10 6l-14 29l-5 27l-4 32v47l4 12v18l-3 15v57l3 17l-3 17l2 14l-3 30l2 11l-1 16l3 35 l-2 14l2 13l-3 17l2 14v27l-3 15l4 36l-4 28l4 17l-1 14v26l-3 20l9 26l25 9l30 -4l16 3z"/>
<glyph glyph-name="ucircumflex" horiz-adv-x="454" unicode="" d="M264 858l15 -19l7 -11l18 -25l12 -25v-12l-12 -16l-33 13l-24 22l-12 7h-25l-10 -11l-14 -8l-8 -7l-22 -13l-19 3l-5 5v20l15 21l7 13l17 27l15 16h23l13 2l17 -4zM178 693l4 -32l2 -15v-44l-2 -11l4 -17l-3 -14l3 -18v-28l-3 -18l3 -9v-31l-4 -19l4 -28v-31l-3 -18 l2 -24l-3 -21l4 -9v-51l-2 -26v-33l2 -28l-4 -32l7 -26l12 -4l10 -6h27l26 12l6 27l-4 16l3 13v29l-3 17l4 11l-4 15v48l2 16l-2 30l2 14v17l2 30l-4 28l3 17v42l-2 19l2 13v18l-2 26l2 15v19l-3 29v29l4 13l5 31l39 7l17 -5l12 2l33 -3v-47l4 -16v-14l-4 -31v-61l2 -9 l-2 -20l4 -30l-3 -12v-34l3 -30l-4 -12v-17l3 -12v-20l-3 -30l3 -27v-32l-3 -16l4 -12l-2 -13l2 -18l-2 -16l2 -11l-2 -18v-33l-4 -8l-5 -21l-13 -24l-20 -20l-8 -13l-16 -6l-26 -15l-16 -2l-15 -7l-44 -3l-13 6l-15 -1l-14 5l-27 14l-13 13l-14 6l-10 15l-10 6l-14 29 l-5 27l-4 32v47l4 12v18l-3 15v57l3 17l-3 17l2 14l-3 30l2 11l-1 16l3 35l-2 14l2 13l-3 17l2 14v27l-3 15l4 36l-4 28l4 17l-1 14v26l-3 20l9 26l25 9l30 -4l16 3z"/>
<glyph glyph-name="udieresis" horiz-adv-x="454" unicode="" d="M250 820l6 10l6 12l26 17l40 -4l23 -22l7 -13l-7 -44l-11 -11l-12 -8l-9 -3l-30 -2l-26 13l-16 26zM99 819l6 14l8 12l23 16l29 -4l15 -6l10 -10l10 -7l5 -13l3 -33l-9 -13l-31 -27l-30 2l-24 13l-17 26zM178 693l4 -32l2 -15v-44l-2 -11l4 -17l-3 -14l3 -18v-28l-3 -18 l3 -9v-31l-4 -19l4 -28v-31l-3 -18l2 -24l-3 -21l4 -9v-51l-2 -26v-33l2 -28l-4 -32l7 -26l12 -4l10 -6h27l26 12l6 27l-4 16l3 13v29l-3 17l4 11l-4 15v48l2 16l-2 30l2 14v17l2 30l-4 28l3 17v42l-2 19l2 13v18l-2 26l2 15v19l-3 29v29l4 13l5 31l39 7l17 -5l12 2l33 -3 v-47l4 -16v-14l-4 -31v-61l2 -9l-2 -20l4 -30l-3 -12v-34l3 -30l-4 -12v-17l3 -12v-20l-3 -30l3 -27v-32l-3 -16l4 -12l-2 -13l2 -18l-2 -16l2 -11l-2 -18v-33l-4 -8l-5 -21l-13 -24l-20 -20l-8 -13l-16 -6l-26 -15l-16 -2l-15 -7l-44 -3l-13 6l-15 -1l-14 5l-27 14l-13 13 l-14 6l-10 15l-10 6l-14 29l-5 27l-4 32v47l4 12v18l-3 15v57l3 17l-3 17l2 14l-3 30l2 11l-1 16l3 35l-2 14l2 13l-3 17l2 14v27l-3 15l4 36l-4 28l4 17l-1 14v26l-3 20l9 26l25 9l30 -4l16 3z"/>
<glyph glyph-name="yacute" horiz-adv-x="460" unicode="" d="M209 860h65l13 -13l2 -13l-20 -27l-20 -19l-8 -10l-28 -25l-17 -3l-25 3l-8 18l12 28l2 9l11 15zM140 695l12 -24l5 -15l12 -24v-21l6 -8l6 -15l1 -16l12 -28l2 -19l8 -14l1 -10l6 -20l8 -29l6 -14h8l10 34l6 10l7 32l9 30l8 29l8 15v14l13 30l1 14l4 15l9 11l8 29h45 l17 -5h29l10 -8l-14 -60l-8 -30l-9 -16v-10l-13 -33l-1 -13l-7 -18l-10 -25l-16 -62l-5 -9l-3 -18l-8 -11v-19l-7 -13l-7 -29l-8 -16l-2 -16l-4 -9l-10 -49l-3 -41l2 -16v-82l2 -9l-3 -20l3 -26l-8 -33l-28 -3l-13 -5l-16 5l-39 3l-7 32l1 15l-2 15l2 32l-3 10l3 35l-4 16 l3 28l-2 14l2 33l-3 32l-6 14l-10 25l-2 19l-12 23l-8 34l-6 10l-2 14l-8 30l-8 15l-5 19l-5 10l-5 29l-6 13l-3 21l-12 28l-6 29l-12 30l-10 24l-5 34l13 11l27 -3l15 4l18 2z"/>
<glyph glyph-name="thorn" horiz-adv-x="422" unicode="" d="M266 364v48l-3 11l-8 28l-9 16l-19 19l-13 6l-15 -2l-17 -12l4 -32l-3 -14l3 -12l-4 -21v-147l2 -30l13 -17l15 2l16 5l21 19l8 26l7 35l3 30zM181 691l5 -26l-2 -16l1 -14v-19l16 -16l14 2h27l16 -6h14l15 -7l12 -10l12 -4l14 -11l8 -10l18 -26l11 -24l3 -14v-14l3 -21 l7 -27l2 -15l-2 -16l3 -31v-48l-2 -11l-3 -33l-2 -12v-20l-4 -11l-7 -33l-9 -24l-8 -16l-21 -19l-7 -12l-26 -16l-17 -4h-12l-14 -8l-17 2l-27 -3l-19 -18l1 -13v-35l-4 -28l-28 -7h-30l-40 6l-10 45l3 19l-3 9v66l4 30v28l-2 15l2 11l-3 19l2 14l-3 17l1 15l2 29l-3 14v15 l4 12l-4 34l3 11l-3 15l2 17l-2 14l3 18v26l-2 20l2 15l-2 12l3 13v17l-4 14l4 14l-2 20l1 13l-2 17l1 14l8 27l27 5l13 5h14l15 -6z"/>
<glyph glyph-name="OE" horiz-adv-x="671" unicode="" d="M184 167l4 -21l9 -8l10 -17l31 -9l26 -5l14 3l16 -1l15 3l11 14v30l3 14l-4 30l4 12v32l-4 18v11l4 18l-4 14v15l3 13l-3 17l1 11v66l3 24l-2 16v60l2 20l-4 26l-10 16l-15 2l-12 -1l-16 1h-26l-30 -12l-9 -9l-9 -16l-1 -14l-6 -11v-27l-3 -15l2 -19l-2 -31l4 -28v-34 l-4 -15l4 -16l-4 -31l4 -10l-3 -31l2 -15l-3 -30l4 -16l-4 -19zM77 532l-1 12l4 16l1 16l6 10l6 21l8 13l17 23l12 8l19 24l16 1l25 18l17 3l14 -3l18 5l45 3l13 -2h31l12 2l46 -4l15 3l12 -2h76l13 2l15 -5l12 2h18l14 4l29 -10l4 -44l3 -11v-15l-5 -28l-32 -2l-14 -5 l-27 4l-15 -3l-29 4l-13 -3l-16 3l-14 -16l2 -15l-4 -18l3 -29l-2 -15l2 -16l-3 -19l3 -12l1 -16l-4 -33l2 -11l17 -21h31l16 2h29l16 2l31 -8l5 -29l-4 -9v-17l4 -11l-8 -34h-43l-32 -5l-14 2l-19 -2l-11 3l-18 -18l1 -12v-34l-2 -13l2 -16l-3 -31l1 -14l16 -17l14 -4l15 3 h11l30 2l15 -5l17 2l40 -3l4 -28l4 -14l-3 -19l-4 -41l-29 -7l-14 6l-30 -6l-16 1l-26 5l-15 -3l-29 -2l-18 3l-27 -4l-33 6l-27 -4l-15 1l-17 -3l-14 4l-14 -3l-31 2l-27 6l-31 10l-13 6l-13 9l-20 17l-13 7l-7 14l-12 10l-3 13l-15 32l-2 14l-4 11l2 16l-4 31l1 15l-2 16 l3 15l-3 13l4 14l-4 15l4 17l-2 18v59l2 32l-3 12l2 20l-2 16l4 24v51z"/>
<glyph glyph-name="oe" horiz-adv-x="669" unicode="" d="M184 143l8 -17l15 -9l45 -10h26l13 14v34l-3 11v47l3 19v12l-4 18v12l4 14v19l-4 29v31l4 25v59l-2 32v75l2 15l-17 13l-23 5l-39 -7l-15 -11l-8 -10l-7 -45l4 -26l-3 -30l3 -19l-2 -28l2 -28l-3 -20l2 -26l-2 -31l3 -14l-3 -31v-45l2 -18l-1 -10v-49zM74 550l2 16l3 12 l15 27l4 14l10 18l9 10l12 7l22 22l13 4l16 10l13 3l29 7l29 -2l17 3l16 -4l31 4l13 -3l16 -1h31l17 4l26 -4l20 2l15 -1l27 -2l19 6l13 -1l14 -5l19 6l11 -5l33 -5l4 -38v-34l-5 -26l-28 -4l-29 2l-16 -6l-14 6l-17 -4h-41l-13 -2l-14 6l-18 -18v-34l2 -29v-17l-3 -30v-43 l15 -14h30l16 -6h28l15 6l16 -1l15 -5l29 6l29 -11l5 -37v-34l-9 -22l-27 -12l-16 5l-11 -4l-16 2h-31l-11 2l-33 -4l-13 5l-13 -5l-15 -11l-3 -19v-27l4 -32v-32l-3 -17l1 -12v-17l15 -15l16 -3h27l17 5l13 -4l14 3h27l33 -2l27 -5l5 -28v-30l-5 -43l-32 -3l-27 -4l-15 1 l-17 4l-16 -2l-30 2l-13 -5l-19 2l-27 2l-33 -3l-17 5l-16 -5l-13 2l-17 -3l-13 1l-31 4l-45 3l-13 5l-29 9l-27 17l-11 5l-22 26l-5 12l-17 25l-2 12l-8 31v164l2 31l-3 14l3 18l-3 15l1 15l3 12l-1 15l-3 12l4 20l-3 27l2 13l-3 15z"/>
<glyph glyph-name="Scaron" horiz-adv-x="453" unicode="" d="M156 856l17 -10l25 -24l15 -5l22 -3l23 18l14 14l17 10h17l10 -13l1 -10l-14 -30l-19 -24l-5 -11l-18 -14l-24 -7l-12 5l-19 -5l-21 5l-16 15l-8 12l-19 28l-10 21l-2 18l8 7zM286 462l-4 26l-3 29l2 19l-4 11l-5 33l-18 23l-16 2h-37l-11 -13l-10 -16l-4 -13l-6 -30v-42 l7 -14l16 -27l10 -5l9 -16l21 -14l40 -26l10 -9l15 -9l11 -9l11 -14l10 -4l11 -15l19 -24l12 -7l15 -27l2 -15l10 -32l4 -11v-31l-3 -12v-30l-7 -35l-14 -25l-4 -15l-18 -23l-19 -24l-28 -15l-11 -3l-15 -7l-16 -1l-29 -5l-45 5l-28 3l-15 5l-11 9l-14 5l-13 9l-8 11l-10 7 l-11 14l-9 8l-12 32l-6 30l-5 10l-2 29v48l4 28l30 9l18 -6h15l18 6l31 -8l4 -27v-50l10 -25v-18l9 -10l23 -24l28 3l12 9l12 6l4 15l12 32l-1 12v50l-4 12l-14 20l-8 18l-25 15l-25 17l-35 24l-14 7l-22 22l-25 21l-7 13l-11 6l-15 31l-8 9l-4 18l-9 12l-5 32l4 25l-3 17 l3 11v18l3 18l12 28l1 14l10 11l7 14l19 19l8 13l16 8l9 9l17 3l26 7l33 6l28 -2l12 2l19 -6h14l12 -6l13 -3l25 -19l14 -7l19 -24l5 -11l5 -19l7 -10l4 -13l10 -29l2 -15l-3 -16l4 -16v-31l-5 -28l-31 -4l-18 -5l-16 4l-16 -1z"/>
<glyph glyph-name="scaron" horiz-adv-x="410" unicode="" d="M137 856l17 -10l25 -24l15 -5l22 -3l23 18l14 14l17 10h17l10 -13l1 -10l-14 -30l-19 -24l-5 -11l-18 -14l-24 -7l-12 5l-19 -5l-21 5l-16 15l-8 12l-19 28l-10 21l-2 18l8 7zM258 472l-4 27v47l-5 14v19l-14 24l-14 7h-34l-11 -7l-8 -15l-8 -9l-4 -19v-76l9 -14l4 -13 l12 -9l10 -14l11 -6l7 -12l36 -25l11 -13l11 -8l10 -12l13 -11l20 -20l18 -27l10 -11l13 -28l5 -21l10 -31v-30l-2 -26l-6 -31l-3 -31l-13 -30l-13 -23l-13 -12l-9 -13l-14 -2l-29 -17l-28 -7h-64l-14 7l-12 -3l-15 11l-15 5l-22 14l-18 22l-6 12l-13 34l-9 30l2 17l-4 13 l-1 15v41l4 23l28 10h31l13 -5l29 -3l7 -30l-3 -16v-28l4 -16v-20l7 -13l8 -8l17 -7h27l16 6l8 10l5 16l8 10l-3 20l4 24l-2 31l-10 13l-14 28l-9 12l-14 13l-19 23l-24 12l-10 13l-24 16l-21 23l-10 18l-20 21l-5 14l-10 16l-13 26v16l-7 16v30l3 15l-2 11l5 34l5 16l1 14 l8 17l12 25l15 23l11 11l16 4l12 10l12 6l16 2h19l14 7l47 -7h27l31 -15l11 -10l21 -18l8 -13l11 -31l11 -26l2 -32l6 -32l-3 -9v-30l-2 -21l-32 -10l-11 4l-15 -4l-13 2z"/>
<glyph glyph-name="Ydieresis" horiz-adv-x="410" unicode="" d="M228 820l6 10l6 12l26 17l40 -4l23 -22l7 -13l-7 -44l-11 -11l-12 -8l-9 -3l-30 -2l-26 13l-16 26zM77 819l6 14l8 12l23 16l29 -4l15 -6l10 -10l10 -7l5 -13l3 -33l-9 -13l-31 -27l-30 2l-24 13l-17 26zM38 682l10 10l29 4l17 6l15 -4h29l12 -29l1 -10l7 -17l6 -26 l11 -35l2 -13l8 -14l4 -14v-15l9 -11v-20l11 4l6 14l5 26l9 14v18l8 15v15l6 13l8 31l23 53h27l13 5l21 -6h26l10 -13l-6 -27l-5 -25l-11 -29l-8 -30l-7 -14l-5 -29l-9 -33l-5 -8l-3 -20l-7 -11l-5 -16l-1 -11l-9 -28l-8 -31l-6 -11l-3 -15l-7 -17l-9 -43l4 -15l-4 -12 l1 -16l3 -14l-4 -19l4 -14l-4 -15l1 -15l2 -13v-31l-3 -28l4 -12v-17l-3 -17l3 -12l-5 -30l-32 -7l-11 3l-15 -2l-43 9l-6 23v34l-2 30l4 15l-4 27l4 32v24l-3 20l3 15l-4 25l2 30l-3 34l-6 9l-2 15l-8 15v17l-10 28l-11 29v14l-7 9l-6 20l-6 28l-5 14l-9 27l-13 42l-1 14 l-7 13l-6 17v14l-6 14z"/>
<glyph glyph-name="circumflex" horiz-adv-x="381" unicode="" d="M230 858l15 -19l7 -11l18 -25l12 -25v-12l-12 -16l-33 13l-24 22l-12 7h-25l-10 -11l-14 -8l-8 -7l-22 -13l-19 3l-5 5v20l15 21l7 13l17 27l15 16h23l13 2l17 -4z"/>
<glyph glyph-name="tilde" horiz-adv-x="386" unicode="" d="M52 802l15 18l7 17l14 9l24 9h31l13 -4h17l14 -9l12 -2l15 -9l16 -5l34 3l15 5h31l17 -16v-19l-15 -18l-26 -13l-25 -17h-30l-14 8l-15 5l-26 13l-24 9h-26l-13 -6l-45 -5l-11 15z"/>
<glyph glyph-name="pi" horiz-adv-x="486" unicode="" d="M77 644l13 21l14 6l24 18l16 5l10 8l15 3l19 6h41l14 -6l32 -11l26 -14l12 -2l15 -8l16 -5h23l25 2l12 -7l6 -36l-3 -28l-11 -9l-9 -14l-11 -7l-13 -22l1 -12l-3 -35l3 -27l-3 -13l3 -19l-4 -11l4 -30l-3 -36l2 -28l-1 -13l2 -15l-4 -29l4 -20l-3 -11v-13l2 -31l-3 -32 l3 -18l1 -11v-29l-4 -14v-19l2 -13v-18l2 -11l-5 -34h-34l-16 -2l-30 7l-5 25l2 15l-2 21l3 10l-4 33l4 16v59l-4 29v60l3 29l-2 21v28l3 16v46l-2 15l1 9l-3 18l2 18l-2 14l2 11l-1 15v36l2 12l-13 23l-13 11l-17 2l-15 4l-14 -19l1 -9v-91l-3 -28l2 -17l2 -29l-3 -16v-31 l3 -12l-2 -21l2 -12v-18l-4 -24l2 -15v-45l-2 -31l3 -17v-47l-2 -10l3 -20l-3 -25v-30l-5 -30l-30 -5l-45 3l-6 30l1 13l-2 33l2 27v34l-3 27l2 13l-2 19l2 16v58l2 31l-4 25l2 17l-1 16l2 16v45l-2 11v77l2 15l-2 12v33l-2 12l-14 -7l-11 4l-9 10l-8 29z"/>
<glyph glyph-name="thinspace" horiz-adv-x="29" unicode=""/>
<glyph glyph-name="endash" horiz-adv-x="300" unicode="" d="M251 394l5 -29l-4 -17l-4 -37h-27l-31 -3h-93l-15 5h-30l-8 32v17l7 30l30 5l12 4h32l17 -5l15 4l15 -4l15 5h18l15 -4z"/>
<glyph glyph-name="emdash" horiz-adv-x="410" unicode="" d="M343 397l6 -32v-18l-5 -30l-29 -10l-15 1l-31 -2l-11 5l-15 -2l-31 -3l-17 4h-43l-13 2l-15 -6h-28l-31 9l-6 33v18l8 28l29 3l12 3l15 -2l17 4l27 -2l16 2l13 -5l16 1l13 4h31l17 -6h12l13 4l19 -3h26z"/>
<glyph glyph-name="quoteleft" horiz-adv-x="231" unicode="" d="M67 464l-4 32l-2 14l3 15l8 63l9 10l2 17l4 11l10 14l4 13l9 16l35 24l21 -18l-23 -45l-7 -29v-15l5 -16l25 -10l7 -28l-2 -8v-19l-7 -44l-29 -3l-14 4l-28 -2z"/>
<glyph glyph-name="quotesinglbase" horiz-adv-x="231" unicode="" d="M164 104l4 -32l2 -14l-3 -15l-8 -63l-9 -10l-2 -17l-4 -11l-10 -14l-4 -13l-9 -16l-35 -24l-21 18l23 45l7 29v15l-5 16l-25 10l-7 28l2 8v19l7 44l29 3l14 -4l28 2z"/>
<glyph glyph-name="quotedblleft" horiz-adv-x="401" unicode="" d="M237 464l-4 32l-2 14l3 15l8 63l9 10l2 17l4 11l10 14l4 13l9 16l35 24l21 -18l-23 -45l-7 -29v-15l5 -16l25 -10l7 -28l-2 -8v-19l-7 -44l-29 -3l-14 4l-28 -2zM67 464l-4 32l-2 14l3 15l8 63l9 10l2 17l4 11l10 14l4 13l9 16l35 24l21 -18l-23 -45l-7 -29v-15l5 -16 l25 -10l7 -28l-2 -8v-19l-7 -44l-29 -3l-14 4l-28 -2z"/>
<glyph glyph-name="quotedblright" horiz-adv-x="401" unicode="" d="M334 694l4 -32l2 -14l-3 -15l-8 -63l-9 -10l-2 -17l-4 -11l-10 -14l-4 -13l-9 -16l-35 -24l-21 18l23 45l7 29v15l-5 16l-25 10l-7 28l2 8v19l7 44l29 3l14 -4l28 2zM164 694l4 -32l2 -14l-3 -15l-8 -63l-9 -10l-2 -17l-4 -11l-10 -14l-4 -13l-9 -16l-35 -24l-21 18 l23 45l7 29v15l-5 16l-25 10l-7 28l2 8v19l7 44l29 3l14 -4l28 2z"/>
<glyph glyph-name="dagger" horiz-adv-x="330" unicode="" d="M204 696l4 -30l2 -14v-20l-3 -14v-59l17 -11h10l29 -8l6 -34v-17l-7 -29l-38 -3l-16 -17l2 -15l-2 -17l3 -10l-3 -20v-40l3 -18l-4 -14v-18l2 -26l-2 -30l4 -29l-4 -19v-11l4 -64l-2 -32l-2 -24l3 -17l-4 -28l-31 -12l-50 12l-7 28v45l2 11l-3 18l2 12l2 32v32l-4 12 l4 15l-4 19v31l2 30v25l-2 29v32l3 28l-3 36l-12 12h-10l-28 7l-7 31l-1 14l6 35h26l13 5l15 13l2 14l-2 17l2 29l-2 27l7 47l31 8l18 -4z"/>
<glyph glyph-name="daggerdbl" horiz-adv-x="330" unicode="" d="M206 692l2 -30l-1 -14l3 -29l-3 -29v-29l17 -13l13 -6l29 -2l4 -31v-17l-6 -29l-29 -11l-14 3l-11 -14l-2 -13l2 -16l-2 -20l3 -10l-4 -34l2 -26v-32l13 -17l12 3l29 -7l7 -30l-6 -51l-29 -5l-13 5l-14 -20l2 -13v-90l-2 -32l-6 -28l-27 -9l-19 4l-32 2l-7 32l3 14l-3 15 l4 34l-4 15l3 15l-2 11l3 15v16l-17 16l-41 5l-4 31v20l8 32h40l11 16v31l2 18l-3 12l2 32l-2 11l3 31l-3 19l-9 11l-42 9l-8 32v14l5 31l31 2l10 4l17 15l-4 16v40l4 20l-4 11v20l9 29l28 5z"/>
<glyph glyph-name="ellipsis" horiz-adv-x="630" unicode="" d="M459 69l8 16l8 8l26 17l41 -5l11 -14l10 -7l4 -16v-26l-7 -16l-8 -11l-11 -7l-12 -4l-31 -5l-11 11l-10 5l-18 23v31zM259 69l8 16l8 8l26 17l41 -5l11 -14l10 -7l4 -16v-26l-7 -16l-8 -11l-11 -7l-12 -4l-31 -5l-11 11l-10 5l-18 23v31zM59 69l8 16l8 8l26 17l41 -5 l11 -14l10 -7l4 -16v-26l-7 -16l-8 -11l-11 -7l-12 -4l-31 -5l-11 11l-10 5l-18 23v31z"/>
<glyph glyph-name="perthousand" horiz-adv-x="1051" unicode="" d="M147 307l4 -9l2 -11l20 -11l19 -2l11 4l10 10l5 20l3 32v61l-3 11l1 22l-1 6l3 14l-2 9v22l2 8l-3 11v20l3 13l-2 9v62l-3 11l-6 10l-8 8l-9 3h-21l-9 -3l-9 -8l-5 -8l-5 -44l3 -12v-17l-3 -25v-42l1 -9v-40l2 -9v-11l-3 -22l3 -12l-2 -19v-20zM835 90l4 -9l2 -11l20 -11 l19 -2l11 4l10 10l5 20l3 32v61l-3 11l1 22l-1 6l3 14l-2 9v22l2 8l-3 11v20l3 13l-2 9v62l-3 11l-6 10l-8 8l-9 3h-21l-9 -3l-9 -8l-5 -8l-5 -44l3 -12v-17l-3 -25v-42l1 -9v-40l2 -9v-11l-3 -22l3 -12l-2 -19v-20zM562 90l4 -9l2 -11l20 -11l19 -2l11 4l10 10l5 20l3 32 v61l-3 11l1 22l-1 6l3 14l-2 9v22l2 8l-3 11v20l3 13l-2 9v62l-3 11l-6 10l-8 8l-9 3h-21l-9 -3l-9 -8l-5 -8l-5 -44l3 -12v-17l-3 -25v-42l1 -9v-40l2 -9v-11l-3 -22l3 -12l-2 -19v-20zM479 692v-29l2 -18l-8 -47l-4 -13l-3 -25l-7 -20v-28l-7 -15l1 -12l-4 -17l-3 -28 l-7 -27v-16l-3 -18l-8 -26l-1 -16l-3 -11v-19l-7 -15v-30l-8 -28v-15l-6 -16l-4 -25v-19l-5 -12l-8 -46l1 -15l-6 -11l-5 -48l-9 -22l-25 -4l-32 8l-4 27l9 46l2 27l6 18l7 61l6 13v11l6 16v28l6 19l3 25v19l5 10l7 32l-2 13l5 17l8 46l-1 12l5 12l2 17l8 60l6 16l6 58l7 12 l-1 13l4 30l10 29l27 4zM493 391v12l1 9l9 28l5 12l7 10l12 15l10 3l10 5l7 7l12 1l11 3l10 -2h33l9 -4l11 -1l8 -5l11 -2l8 -7l10 -3l7 -12l6 -5l11 -34l4 -52l-2 -12v-17l2 -11l-1 -21l1 -9l-2 -11l3 -10l-3 -20l3 -14v-20l-3 -20l3 -30l-2 -13v-72l-1 -19l-5 -19l-10 -22 l-7 -6l-7 -11l-8 -7l-8 -2l-10 -6l-28 -9l-34 3l-9 -1l-23 3l-25 14l-10 9l-7 4l-7 8l-4 10l-7 31v12l-4 8l1 22l-1 11v32l2 10l-3 11l2 19v23l-1 17l2 14l-1 9v22l1 6l-2 11l2 11l-1 12v32l-2 9zM766 391v12l1 9l9 28l5 12l7 10l12 15l10 3l10 5l7 7l12 1l11 3l10 -2h33 l9 -4l11 -1l8 -5l11 -2l8 -7l10 -3l7 -12l6 -5l11 -34l4 -52l-2 -12v-17l2 -11l-1 -21l1 -9l-2 -11l3 -10l-3 -20l3 -14v-20l-3 -20l3 -30l-2 -13v-72l-1 -19l-5 -19l-10 -22l-7 -6l-7 -11l-8 -7l-8 -2l-10 -6l-28 -9l-34 3l-9 -1l-23 3l-25 14l-10 9l-7 4l-7 8l-4 10l-7 31 v12l-4 8l1 22l-1 11v32l2 10l-3 11l2 19v23l-1 17l2 14l-1 9v22l1 6l-2 11l2 11l-1 12v32l-2 9zM78 608v12l1 9l9 28l5 12l7 10l12 15l10 3l10 5l7 7l12 1l11 3l10 -2h33l9 -4l11 -1l8 -5l11 -2l8 -7l10 -3l7 -12l6 -5l11 -34l4 -52l-2 -12v-17l2 -11l-1 -21l1 -9l-2 -11 l3 -10l-3 -20l3 -14v-20l-3 -20l3 -30l-2 -13v-72l-1 -19l-5 -19l-10 -22l-7 -6l-7 -11l-8 -7l-8 -2l-10 -6l-28 -9l-34 3l-9 -1l-23 3l-25 14l-10 9l-7 4l-7 8l-4 10l-7 31v12l-4 8l1 22l-1 11v32l2 10l-3 11l2 19v23l-1 17l2 14l-1 9v22l1 6l-2 11l2 11l-1 12v32l-2 9z "/>
<glyph glyph-name="guilsinglleft" horiz-adv-x="253" unicode="" d="M206 479l-8 -15l-7 -17l-11 -12l-5 -12l-10 -12l-4 -20l-19 -26l4 -22l11 -29l9 -12l8 -19l17 -26l4 -15l14 -19l-5 -20l-13 -28l-12 -11l-13 3l-22 22l-38 50l-13 10l-19 24l-6 14l-11 8l-14 21v58l4 17l12 15l8 18l10 8l7 12l12 10l16 27l23 23l9 16l18 15l17 8l14 -9 l11 -31z"/>
<glyph glyph-name="guilsinglright" horiz-adv-x="253" unicode="" d="M205 390l2 -18l2 -19v-36l-13 -20l-11 -9l-11 -14l-16 -25l-12 -8l-18 -28l-16 -21l-25 -20l-13 -3l-14 4l-11 34l-2 16l8 24l6 9l15 32l11 11l7 15l16 29v24l-12 16l-13 27l-8 11l-16 30l-4 13l-12 13l13 53l16 10l13 -3l21 -17l10 -16l13 -12l15 -22l13 -13l6 -12 l10 -11l19 -23z"/>
<glyph glyph-name="fraction" horiz-adv-x="247" unicode="" d="M208 692v-29l2 -18l-8 -47l-4 -13l-3 -25l-7 -20v-28l-7 -15l1 -12l-4 -17l-3 -28l-7 -27v-16l-3 -18l-8 -26l-1 -16l-3 -11v-19l-7 -15v-30l-8 -28v-15l-6 -16l-4 -25v-19l-5 -12l-8 -46l1 -15l-6 -11l-5 -48l-9 -22l-25 -4l-32 8l-4 27l9 46l2 27l6 18l7 61l6 13v11 l6 16v28l6 19l3 25v19l5 10l7 32l-2 13l5 17l8 46l-1 12l5 12l2 17l8 60l6 16l6 58l7 12l-1 13l4 30l10 29l27 4z"/>
<glyph glyph-name="Euro" horiz-adv-x="458" unicode="" d="M91 564l3 12l2 16l6 14v17l9 10l5 16l6 12l11 15l12 5l14 11l26 14l15 -2l30 9l27 -4h17l15 -4l30 -2l10 -9l26 -19l20 -23l3 -11l8 -11l2 -13l6 -31l-3 -34l-30 -7h-17l-41 10l-12 24l-5 14l-14 10l-10 4l-31 6l-17 -10l-9 -12l-15 -25v-48l4 -10l-4 -14l17 -16h15l12 4 l28 -11l8 -28l-8 -28l-42 -8l-11 3l-19 -14l3 -21l-3 -12l3 -13v-16l-3 -22l19 -16l13 2l11 4l34 -7v-31l-2 -30l-28 -4l-15 2l-13 -4l-17 -16v-44l4 -50l21 -23l13 -4h29l26 9l9 16l6 27l31 8l31 -2l31 -6l3 -29l-8 -34l-6 -17l-8 -12l-15 -27l-10 -10l-14 -9l-30 -11h-13 l-15 -5l-15 -1l-46 4l-30 3l-30 9l-24 23l-26 32l-7 28l-5 32l-3 43v32l-3 35l-22 3l-5 31l6 33l20 5l6 14l1 13l-4 22v27l2 19l-4 15l-24 7l-3 24l4 33l19 4l9 13l-1 16l2 28z"/>
<glyph glyph-name="trademark" horiz-adv-x="541" unicode="" d="M199 697l3 -15v-14l-3 -22l-15 -2l-7 2l-6 -1l-8 -2l-9 -7l2 -13v-18l-2 -15v-28l1 -9v-29l-1 -6l1 -8l-1 -9l2 -7l-2 -9l1 -7v-13l1 -15l-2 -9l1 -13v-17l-1 -8l1 -6l1 -7l-1 -7v-18l-2 -13l-15 -3h-8l-5 2l-9 -1l-13 1l-4 15l1 7v17l-1 5l2 15l-1 11v6l-1 7l2 14v10 l-2 8l2 7l-2 6l1 15l-1 9l1 5l-1 8l1 14v47l-1 15l1 6l-1 8v16l1 7l-1 9l-8 6l-7 -1l-8 2l-6 -2l-16 5l-2 14l1 6l-1 6v9l3 12l23 5l8 -2h15l15 3h16l7 -3l7 2l9 -2h15l15 3zM281 698l5 -12l3 -8l1 -8l5 -12l2 -8l5 -14l4 -16l4 -12l6 -15l2 -8l3 -15l4 -5l3 -17l4 -8v-5 l3 -8l5 -14l4 -15l4 -13l5 -1l2 9l3 4l1 10l3 7l4 14l3 6l2 9l6 14l2 15l3 5l1 9l9 21l1 8l6 13l4 13l5 15l2 14l5 8v9l7 10l11 4h9l7 -3l6 2l15 -3l2 -15v-31l1 -16l-1 -5l1 -7l-1 -8v-25l1 -4v-11l-1 -7l2 -5v-8l-2 -15l1 -9l-1 -14l1 -9v-44l-1 -7v-7l2 -7v-10l-2 -13 l1 -10l-1 -5l2 -8l-1 -14v-18l-2 -14l-14 -3h-15l-6 3l-14 1l-2 14v9l-2 5v9l2 7l-1 7v30l-1 6v17l1 6l-1 16l2 7l-2 9v7l2 5v24l-2 5l-2 -5l-2 -15l-4 -8l-1 -6l-3 -16l-2 -7l-3 -12v-7l-4 -17l-1 -6l-3 -8v-7l-4 -14l-1 -8l-2 -6v-8l-4 -13l-6 -21l-13 -1l-15 -1l-8 2 l-13 1l-5 13l-1 6l-4 14l-2 8v8l-3 6v9l-4 13l-5 14v9l-2 4l-2 15l-5 14l-2 17l-3 13v9l-4 12l-3 1l1 -17v-49l-1 -7v-17l1 -5l-1 -10l1 -13l-1 -8l2 -8l-2 -8l1 -14v-13l-3 -16l-20 -2l-7 -2l-21 5l-2 15v14l-2 7v16l1 7v37l-1 15l1 6v23l-1 9v14l2 15l-2 14v11l2 4v18 l-2 13l2 10l-2 7l1 6v9l1 8l-2 4v17l2 15l-2 7l2 6l1 18h16l5 2l8 -2h21z"/>
<glyph glyph-name="partialdiff" horiz-adv-x="542" unicode="" d="M271 89l17 6l12 6l9 9l8 15l8 10l13 30l6 32l5 26l7 31l-4 36l3 12v33l-13 20l-12 14l-11 4l-11 7l-16 6l-12 7l-31 -3l-10 -10l-10 -5l-12 -11l-8 -17l-4 -15l-12 -28l-1 -15l-3 -32l3 -42l-2 -19l1 -15l7 -17v-10l11 -30l9 -15l22 -20h31zM464 272l-2 -14l3 -11l-6 -34 l-5 -9v-19l-6 -15l-1 -10l-9 -13l-4 -14l-7 -14l-13 -29l-7 -11l-16 -24l-13 -8l-8 -16l-14 -5l-10 -11l-15 -3l-14 -9l-42 -14l-12 3l-28 -3l-17 4h-17l-14 3l-9 9l-17 9l-32 29l-15 22l-14 25l-10 33l-1 11l-5 14l-2 16l-5 13l-3 17v42l2 17l8 31v9l5 17l8 11l9 26l7 14 l21 30l9 6l8 16l11 6l24 21l12 2l14 10l14 1h46l16 3l30 -11l11 -12l12 -8l9 1l4 13l-5 12l3 16l-4 19l2 14l-4 17l-6 27l-13 29l-18 21l-13 9l-26 11h-29l-45 -5l-15 17l-4 23l23 17h15l14 4h17l11 6l16 1l13 -6l16 1l12 -7l14 -4l25 -12l22 -14l11 -15l10 -8l16 -24l4 -15 l9 -9l9 -29l12 -30v-14l9 -29l5 -36v-27l4 -31l-2 -17l4 -29l-2 -20v-30z"/>
<glyph glyph-name="product" horiz-adv-x="486" unicode="" d="M408 694v-29l2 -17l-2 -17l4 -14l-4 -28v-45l2 -17l-2 -16l4 -29v-29l-4 -17l3 -11v-28l-3 -17v-58l4 -35l-4 -16l4 -10l-4 -30l3 -30l-3 -15l4 -20l-2 -25l1 -14l-1 -16v-61l-4 -45l-31 -9l-12 5l-16 -3l-41 6l-8 31v31l2 27v19l2 14l-4 12l2 13l2 31l-3 34l1 10l2 32 l-2 13l2 28l-2 32v33l-2 15l2 10l-2 19l2 16v71l-2 12v51l2 12l-2 33l3 10l-16 19l-12 -1l-33 -5l-10 4l-32 -3l-14 -11l2 -16l-3 -12l3 -19l-2 -12v-35l-2 -12l3 -11l-2 -18l2 -32l-3 -30l3 -28v-31l-2 -12v-47l2 -11l-2 -30l3 -18l-3 -12v-32l3 -46l-4 -11l3 -31v-33 l-3 -11l4 -15l-4 -16l-4 -29l-30 -10h-28l-10 5l-31 3l-6 30v32l3 25l-4 17l2 14l-2 17l3 12v21l-3 26l3 13l-3 21l3 10v50l-2 15l3 28l-4 16v25l4 36l-4 12l3 15l-2 16v26l2 15l-3 16l3 19l-2 16l3 12v28l-3 16l2 19l-2 13l2 11l-3 16l9 33l30 6h30l27 -5h28l17 3h29l17 2 l14 -1l13 -4l16 5l12 -5l18 4l15 -3l12 4l15 1z"/>
<glyph glyph-name="summation" horiz-adv-x="468" unicode="" d="M401 692l6 -25l2 -27l-6 -14v-34l-32 -5h-14l-16 3l-17 -4l-16 6l-16 -4l-29 3l-10 -12l10 -13l4 -20l11 -9l6 -16l7 -9l6 -16l6 -10l17 -30l12 -30l9 -12l6 -14l8 -11l17 -32l-10 -27l-3 -14l-16 -27l-3 -12l-8 -15l-8 -10l-11 -31l-10 -12l-6 -18l-7 -10l-4 -18l-9 -11 l-10 -30l6 -15l28 5h28l17 -4l14 3l14 -4l27 -4l8 -42v-13l-9 -40l-27 -10l-18 2l-14 -3l-13 1l-15 -2l-17 3l-16 -3l-15 1l-13 4l-16 -5l-14 3l-17 -2l-15 2l-31 -3l-16 1l-14 5l-31 5l-7 13l7 25l8 18l6 8l13 29l10 13l5 17l13 23l6 16l10 13l10 27l17 22l3 17l7 10l6 19 l10 10l3 13l18 28l5 11v28l-15 31l-9 9l-6 16l-6 9l-12 33l-7 11l-11 10l-11 29l-10 12l-12 31l-9 11l-7 17l-7 7l-10 33l-18 21l-7 33l5 17h63l31 5l14 -4l15 3l33 -3l27 3l34 -5l16 6l15 -4l15 -1l14 5z"/>
<glyph glyph-name="minus" horiz-adv-x="300" unicode="" d="M251 394l5 -29l-4 -17l-4 -37h-27l-31 -3h-93l-15 5h-30l-8 32v17l7 30l30 5l12 4h32l17 -5l15 4l15 -4l15 5h18l15 -4z"/>
<glyph glyph-name="radical" horiz-adv-x="498" unicode="" d="M410 699l7 -13v-27l-7 -11v-15l-4 -15l-2 -20l-4 -14l1 -10l-3 -14l-8 -30l-1 -16l-4 -16v-14l-5 -29l-4 -32l-7 -9l-1 -16l-6 -30l-5 -27v-19l-7 -25l-5 -35l-3 -25l-6 -20l-5 -29l1 -8l-6 -18v-18l-6 -13l1 -12l-2 -15l-5 -16l-1 -13l-4 -16v-17l-5 -10l-10 -30l-30 -4 l-15 3h-17l-29 2l-11 23l-3 15l-5 12l-2 17l-11 27l-2 18l-9 30l-5 8l-3 19l-9 26l-7 14l-5 19l-7 23l-17 20l-28 3l-5 27v32l-2 14l10 27l28 6l14 -4l14 5h19l11 -4l28 -6l12 -19v-17l7 -17l2 -10l5 -31l6 -16l6 -26l11 -29l6 17v13l3 14v19l5 13l-1 15l3 16l6 13l2 31 l4 11l3 20l-1 14l5 10l-2 16l7 30l6 31l5 29l-1 13l6 30l5 32v12l4 16l2 28l15 45l28 5h10l17 -3h28z"/>
<glyph glyph-name="infinity" horiz-adv-x="650" unicode="" d="M205 413h-18l-10 -7l-16 -6l-7 -12v-48l2 -14l6 -10l28 -13l14 -2l29 9l6 10l24 22l-5 22l-9 13l-20 26zM443 300l14 5l16 3l10 6l12 27v30l-3 19l-5 13l-16 7h-27l-16 3l-10 -15l-12 -9l-20 -27l3 -18l12 -15l17 -19zM414 213l-15 5l-10 6l-16 4l-12 6l-6 11l-12 9 l-6 11l-21 5l-7 -11l-11 -8l-10 -12l-11 -9l-15 -8l-12 -2l-13 -7l-16 -3l-16 5l-12 -3l-15 3l-13 7h-17l-27 13l-9 10l-19 19l-12 31l-2 13l-3 30l1 15l-3 42l4 16l12 33l16 20l24 24l17 5l30 8l15 -2h45l15 -6l10 -1l15 -9l11 -12l12 -9l9 -13h20l7 12l14 10l9 11l12 3 l13 10l12 4l45 4l16 -5l12 3l30 -11h16l24 -20l18 -22l11 -29l4 -16l3 -28l-2 -29l1 -15l-5 -32l-6 -17l-11 -25l-12 -9l-23 -20l-13 -4l-15 -8l-14 1l-16 -5l-16 3z"/>
<glyph glyph-name="approxequal" horiz-adv-x="386" unicode="" d="M53 449l6 15l10 14l21 25l10 7l44 8l11 -6l14 -12l10 -4l13 -10l14 -5l24 -13l33 3l12 6l34 10l17 -24l4 -15l-15 -24l-9 -7l-23 -19l-13 -5l-14 -11l-26 3l-28 15l-13 11l-12 7l-9 8l-14 4l-34 3l-45 -23l-13 4l-7 17zM53 251l6 15l10 14l21 25l10 7l44 8l11 -6l14 -12 l10 -4l13 -10l14 -5l24 -13l33 3l12 6l34 10l17 -24l4 -15l-15 -24l-9 -7l-23 -19l-13 -5l-14 -11l-26 3l-28 15l-13 11l-12 7l-9 8l-14 4l-34 3l-45 -23l-13 4l-7 17z"/>
<glyph glyph-name="notequal" horiz-adv-x="330" unicode="" d="M189 596l13 1l23 -3v-38l-4 -27l15 -22l27 -5l7 -46l-7 -31l-31 -8l-11 3l-22 -17l-2 -27l-7 -31l-5 -27v-15l9 -15l16 1l11 -3l16 4l29 -4l3 -35l-4 -44l-31 -10l-26 2l-12 -3l-14 4l-17 -15l-5 -12v-19l-11 -38l-18 -6l-18 4l-3 36l5 31l-8 19l-40 3l-9 36l-1 11l6 31 l30 10l28 -2l13 18l1 10l7 13l-2 20l3 15l6 12l2 25l-12 17l-15 -3l-32 3l-25 6l-10 45l9 31l29 5l30 3l27 -2l20 17l6 30l-1 12z"/>
<glyph glyph-name="lessequal" horiz-adv-x="300" unicode="" d="M251 221l5 -29l-4 -17l-4 -37h-27l-31 -3h-93l-15 5h-30l-8 32v17l7 30l30 5l12 4h32l17 -5l15 4l15 -4l15 5h18l15 -4zM238 548l-14 -12l-11 -15l-36 -45l-13 -7l4 -29l38 -41l9 -15l23 -31l-3 -45l-14 -11l-17 3l-24 15l-13 13l-12 7l-18 25l-13 6l-10 15l-10 8l-15 8 l-11 17l-6 55l5 25l15 14l10 13l21 18l43 41l37 31l18 -5l13 -9z"/>
<glyph glyph-name="greaterequal" horiz-adv-x="300" unicode="" d="M251 221l5 -29l-4 -17l-4 -37h-27l-31 -3h-93l-15 5h-30l-8 32v17l7 30l30 5l12 4h32l17 -5l15 4l15 -4l15 5h18l15 -4zM235 490v-23l4 -14l-5 -40l-36 -37l-8 -5l-12 -13l-13 -7l-12 -17l-11 -9l-8 -10l-26 -14h-15l-15 10l-3 27l1 16l29 45l22 22l18 25v21l-11 10 l-7 10l-11 10l-29 39l-14 12l7 51l10 7h17l27 -16l43 -39l9 -13l14 -7l20 -19z"/>
<glyph glyph-name="lozenge" horiz-adv-x="513" unicode="" d="M341 361l-6 16l-13 28l-2 11l-9 14l-3 13l-12 27l-2 14l-7 18l-12 25l-1 16l-5 14l-7 12h-12l-4 -16l-7 -14l-6 -25l-12 -25l-12 -31l-10 -27l-11 -27l-2 -15l-7 -12l-4 -40l4 -18l7 -8l6 -13l2 -17l11 -27l9 -30l9 -10l4 -15l10 -24l3 -14l10 -30l12 3l7 11l1 10l9 17 l2 13l9 14l6 28l6 16l7 9l5 14l11 32l9 26l-7 10zM310 695l17 -19v-19l8 -14l11 -25l4 -16l12 -27l10 -32l9 -29l8 -14l3 -13l13 -30l7 -10l6 -32l10 -9l1 -14l7 -17l3 -28l-7 -34l-13 -29l-3 -15l-6 -16l-8 -13l-5 -13l-7 -28l-9 -18l-9 -26l-10 -28l-13 -29l-5 -18 l-10 -25l-8 -30l-14 -25h-38l-15 -4l-18 4l-16 -2l-22 6l-15 20l-6 19l-10 24l-12 27l-3 19l-9 26l-15 28l-7 33l-14 24l-4 15l-7 14l-2 14l-9 18l-7 29l-7 12l-4 23l4 20l8 36l8 14l8 27l7 12l4 19l7 8l10 32l8 11l5 17l8 15v17l6 8l14 33l3 15l5 9l6 19l16 32l42 4l15 4 l17 -5l13 3z"/>
</font>
</defs>
</svg>
